%TF.GenerationSoftware,KiCad,Pcbnew,9.0.7*%
%TF.CreationDate,2026-09-06T19:53:39+05:30*%
%TF.ProjectId,step_down_converter_BL8034,73746570-5f64-46f7-976e-5f636f6e7665,rev?*%
%TF.SameCoordinates,Original*%
%TF.FileFunction,Legend,Bot*%
%TF.FilePolarity,Positive*%
%FSLAX46Y46*%
G04 Gerber Fmt 4.6, Leading zero omitted, Abs format (unit mm)*
G04 Created by KiCad (PCBNEW 9.0.7) date 2026-09-06 19:53:39*
%MOMM*%
%LPD*%
G01*
G04 APERTURE LIST*
%ADD10C,0.150000*%
%ADD11C,0.200000*%
%ADD12C,0.000000*%
G04 APERTURE END LIST*
D10*
X113149887Y-80826009D02*
X113007030Y-80873628D01*
X113007030Y-80873628D02*
X112959411Y-80921247D01*
X112959411Y-80921247D02*
X112911792Y-81016485D01*
X112911792Y-81016485D02*
X112911792Y-81159342D01*
X112911792Y-81159342D02*
X112959411Y-81254580D01*
X112959411Y-81254580D02*
X113007030Y-81302200D01*
X113007030Y-81302200D02*
X113102268Y-81349819D01*
X113102268Y-81349819D02*
X113483220Y-81349819D01*
X113483220Y-81349819D02*
X113483220Y-80349819D01*
X113483220Y-80349819D02*
X113149887Y-80349819D01*
X113149887Y-80349819D02*
X113054649Y-80397438D01*
X113054649Y-80397438D02*
X113007030Y-80445057D01*
X113007030Y-80445057D02*
X112959411Y-80540295D01*
X112959411Y-80540295D02*
X112959411Y-80635533D01*
X112959411Y-80635533D02*
X113007030Y-80730771D01*
X113007030Y-80730771D02*
X113054649Y-80778390D01*
X113054649Y-80778390D02*
X113149887Y-80826009D01*
X113149887Y-80826009D02*
X113483220Y-80826009D01*
X112007030Y-81349819D02*
X112483220Y-81349819D01*
X112483220Y-81349819D02*
X112483220Y-80349819D01*
X111530839Y-80778390D02*
X111626077Y-80730771D01*
X111626077Y-80730771D02*
X111673696Y-80683152D01*
X111673696Y-80683152D02*
X111721315Y-80587914D01*
X111721315Y-80587914D02*
X111721315Y-80540295D01*
X111721315Y-80540295D02*
X111673696Y-80445057D01*
X111673696Y-80445057D02*
X111626077Y-80397438D01*
X111626077Y-80397438D02*
X111530839Y-80349819D01*
X111530839Y-80349819D02*
X111340363Y-80349819D01*
X111340363Y-80349819D02*
X111245125Y-80397438D01*
X111245125Y-80397438D02*
X111197506Y-80445057D01*
X111197506Y-80445057D02*
X111149887Y-80540295D01*
X111149887Y-80540295D02*
X111149887Y-80587914D01*
X111149887Y-80587914D02*
X111197506Y-80683152D01*
X111197506Y-80683152D02*
X111245125Y-80730771D01*
X111245125Y-80730771D02*
X111340363Y-80778390D01*
X111340363Y-80778390D02*
X111530839Y-80778390D01*
X111530839Y-80778390D02*
X111626077Y-80826009D01*
X111626077Y-80826009D02*
X111673696Y-80873628D01*
X111673696Y-80873628D02*
X111721315Y-80968866D01*
X111721315Y-80968866D02*
X111721315Y-81159342D01*
X111721315Y-81159342D02*
X111673696Y-81254580D01*
X111673696Y-81254580D02*
X111626077Y-81302200D01*
X111626077Y-81302200D02*
X111530839Y-81349819D01*
X111530839Y-81349819D02*
X111340363Y-81349819D01*
X111340363Y-81349819D02*
X111245125Y-81302200D01*
X111245125Y-81302200D02*
X111197506Y-81254580D01*
X111197506Y-81254580D02*
X111149887Y-81159342D01*
X111149887Y-81159342D02*
X111149887Y-80968866D01*
X111149887Y-80968866D02*
X111197506Y-80873628D01*
X111197506Y-80873628D02*
X111245125Y-80826009D01*
X111245125Y-80826009D02*
X111340363Y-80778390D01*
X110530839Y-80349819D02*
X110435601Y-80349819D01*
X110435601Y-80349819D02*
X110340363Y-80397438D01*
X110340363Y-80397438D02*
X110292744Y-80445057D01*
X110292744Y-80445057D02*
X110245125Y-80540295D01*
X110245125Y-80540295D02*
X110197506Y-80730771D01*
X110197506Y-80730771D02*
X110197506Y-80968866D01*
X110197506Y-80968866D02*
X110245125Y-81159342D01*
X110245125Y-81159342D02*
X110292744Y-81254580D01*
X110292744Y-81254580D02*
X110340363Y-81302200D01*
X110340363Y-81302200D02*
X110435601Y-81349819D01*
X110435601Y-81349819D02*
X110530839Y-81349819D01*
X110530839Y-81349819D02*
X110626077Y-81302200D01*
X110626077Y-81302200D02*
X110673696Y-81254580D01*
X110673696Y-81254580D02*
X110721315Y-81159342D01*
X110721315Y-81159342D02*
X110768934Y-80968866D01*
X110768934Y-80968866D02*
X110768934Y-80730771D01*
X110768934Y-80730771D02*
X110721315Y-80540295D01*
X110721315Y-80540295D02*
X110673696Y-80445057D01*
X110673696Y-80445057D02*
X110626077Y-80397438D01*
X110626077Y-80397438D02*
X110530839Y-80349819D01*
X109864172Y-80349819D02*
X109245125Y-80349819D01*
X109245125Y-80349819D02*
X109578458Y-80730771D01*
X109578458Y-80730771D02*
X109435601Y-80730771D01*
X109435601Y-80730771D02*
X109340363Y-80778390D01*
X109340363Y-80778390D02*
X109292744Y-80826009D01*
X109292744Y-80826009D02*
X109245125Y-80921247D01*
X109245125Y-80921247D02*
X109245125Y-81159342D01*
X109245125Y-81159342D02*
X109292744Y-81254580D01*
X109292744Y-81254580D02*
X109340363Y-81302200D01*
X109340363Y-81302200D02*
X109435601Y-81349819D01*
X109435601Y-81349819D02*
X109721315Y-81349819D01*
X109721315Y-81349819D02*
X109816553Y-81302200D01*
X109816553Y-81302200D02*
X109864172Y-81254580D01*
X108387982Y-80683152D02*
X108387982Y-81349819D01*
X108626077Y-80302200D02*
X108864172Y-81016485D01*
X108864172Y-81016485D02*
X108245125Y-81016485D01*
X107102267Y-81349819D02*
X107102267Y-80349819D01*
X107102267Y-80349819D02*
X106864172Y-80349819D01*
X106864172Y-80349819D02*
X106721315Y-80397438D01*
X106721315Y-80397438D02*
X106626077Y-80492676D01*
X106626077Y-80492676D02*
X106578458Y-80587914D01*
X106578458Y-80587914D02*
X106530839Y-80778390D01*
X106530839Y-80778390D02*
X106530839Y-80921247D01*
X106530839Y-80921247D02*
X106578458Y-81111723D01*
X106578458Y-81111723D02*
X106626077Y-81206961D01*
X106626077Y-81206961D02*
X106721315Y-81302200D01*
X106721315Y-81302200D02*
X106864172Y-81349819D01*
X106864172Y-81349819D02*
X107102267Y-81349819D01*
X105530839Y-81254580D02*
X105578458Y-81302200D01*
X105578458Y-81302200D02*
X105721315Y-81349819D01*
X105721315Y-81349819D02*
X105816553Y-81349819D01*
X105816553Y-81349819D02*
X105959410Y-81302200D01*
X105959410Y-81302200D02*
X106054648Y-81206961D01*
X106054648Y-81206961D02*
X106102267Y-81111723D01*
X106102267Y-81111723D02*
X106149886Y-80921247D01*
X106149886Y-80921247D02*
X106149886Y-80778390D01*
X106149886Y-80778390D02*
X106102267Y-80587914D01*
X106102267Y-80587914D02*
X106054648Y-80492676D01*
X106054648Y-80492676D02*
X105959410Y-80397438D01*
X105959410Y-80397438D02*
X105816553Y-80349819D01*
X105816553Y-80349819D02*
X105721315Y-80349819D01*
X105721315Y-80349819D02*
X105578458Y-80397438D01*
X105578458Y-80397438D02*
X105530839Y-80445057D01*
X105102267Y-80968866D02*
X104340363Y-80968866D01*
X103864172Y-81349819D02*
X103864172Y-80349819D01*
X103864172Y-80349819D02*
X103626077Y-80349819D01*
X103626077Y-80349819D02*
X103483220Y-80397438D01*
X103483220Y-80397438D02*
X103387982Y-80492676D01*
X103387982Y-80492676D02*
X103340363Y-80587914D01*
X103340363Y-80587914D02*
X103292744Y-80778390D01*
X103292744Y-80778390D02*
X103292744Y-80921247D01*
X103292744Y-80921247D02*
X103340363Y-81111723D01*
X103340363Y-81111723D02*
X103387982Y-81206961D01*
X103387982Y-81206961D02*
X103483220Y-81302200D01*
X103483220Y-81302200D02*
X103626077Y-81349819D01*
X103626077Y-81349819D02*
X103864172Y-81349819D01*
X102292744Y-81254580D02*
X102340363Y-81302200D01*
X102340363Y-81302200D02*
X102483220Y-81349819D01*
X102483220Y-81349819D02*
X102578458Y-81349819D01*
X102578458Y-81349819D02*
X102721315Y-81302200D01*
X102721315Y-81302200D02*
X102816553Y-81206961D01*
X102816553Y-81206961D02*
X102864172Y-81111723D01*
X102864172Y-81111723D02*
X102911791Y-80921247D01*
X102911791Y-80921247D02*
X102911791Y-80778390D01*
X102911791Y-80778390D02*
X102864172Y-80587914D01*
X102864172Y-80587914D02*
X102816553Y-80492676D01*
X102816553Y-80492676D02*
X102721315Y-80397438D01*
X102721315Y-80397438D02*
X102578458Y-80349819D01*
X102578458Y-80349819D02*
X102483220Y-80349819D01*
X102483220Y-80349819D02*
X102340363Y-80397438D01*
X102340363Y-80397438D02*
X102292744Y-80445057D01*
X100768934Y-80826009D02*
X100626077Y-80873628D01*
X100626077Y-80873628D02*
X100578458Y-80921247D01*
X100578458Y-80921247D02*
X100530839Y-81016485D01*
X100530839Y-81016485D02*
X100530839Y-81159342D01*
X100530839Y-81159342D02*
X100578458Y-81254580D01*
X100578458Y-81254580D02*
X100626077Y-81302200D01*
X100626077Y-81302200D02*
X100721315Y-81349819D01*
X100721315Y-81349819D02*
X101102267Y-81349819D01*
X101102267Y-81349819D02*
X101102267Y-80349819D01*
X101102267Y-80349819D02*
X100768934Y-80349819D01*
X100768934Y-80349819D02*
X100673696Y-80397438D01*
X100673696Y-80397438D02*
X100626077Y-80445057D01*
X100626077Y-80445057D02*
X100578458Y-80540295D01*
X100578458Y-80540295D02*
X100578458Y-80635533D01*
X100578458Y-80635533D02*
X100626077Y-80730771D01*
X100626077Y-80730771D02*
X100673696Y-80778390D01*
X100673696Y-80778390D02*
X100768934Y-80826009D01*
X100768934Y-80826009D02*
X101102267Y-80826009D01*
X100102267Y-80349819D02*
X100102267Y-81159342D01*
X100102267Y-81159342D02*
X100054648Y-81254580D01*
X100054648Y-81254580D02*
X100007029Y-81302200D01*
X100007029Y-81302200D02*
X99911791Y-81349819D01*
X99911791Y-81349819D02*
X99721315Y-81349819D01*
X99721315Y-81349819D02*
X99626077Y-81302200D01*
X99626077Y-81302200D02*
X99578458Y-81254580D01*
X99578458Y-81254580D02*
X99530839Y-81159342D01*
X99530839Y-81159342D02*
X99530839Y-80349819D01*
X98483220Y-81254580D02*
X98530839Y-81302200D01*
X98530839Y-81302200D02*
X98673696Y-81349819D01*
X98673696Y-81349819D02*
X98768934Y-81349819D01*
X98768934Y-81349819D02*
X98911791Y-81302200D01*
X98911791Y-81302200D02*
X99007029Y-81206961D01*
X99007029Y-81206961D02*
X99054648Y-81111723D01*
X99054648Y-81111723D02*
X99102267Y-80921247D01*
X99102267Y-80921247D02*
X99102267Y-80778390D01*
X99102267Y-80778390D02*
X99054648Y-80587914D01*
X99054648Y-80587914D02*
X99007029Y-80492676D01*
X99007029Y-80492676D02*
X98911791Y-80397438D01*
X98911791Y-80397438D02*
X98768934Y-80349819D01*
X98768934Y-80349819D02*
X98673696Y-80349819D01*
X98673696Y-80349819D02*
X98530839Y-80397438D01*
X98530839Y-80397438D02*
X98483220Y-80445057D01*
X98054648Y-81349819D02*
X98054648Y-80349819D01*
X97483220Y-81349819D02*
X97911791Y-80778390D01*
X97483220Y-80349819D02*
X98054648Y-80921247D01*
D11*
X106085564Y-82830552D02*
X105847469Y-83497219D01*
X105847469Y-83497219D02*
X105609374Y-82830552D01*
X105037945Y-82497219D02*
X104942707Y-82497219D01*
X104942707Y-82497219D02*
X104847469Y-82544838D01*
X104847469Y-82544838D02*
X104799850Y-82592457D01*
X104799850Y-82592457D02*
X104752231Y-82687695D01*
X104752231Y-82687695D02*
X104704612Y-82878171D01*
X104704612Y-82878171D02*
X104704612Y-83116266D01*
X104704612Y-83116266D02*
X104752231Y-83306742D01*
X104752231Y-83306742D02*
X104799850Y-83401980D01*
X104799850Y-83401980D02*
X104847469Y-83449600D01*
X104847469Y-83449600D02*
X104942707Y-83497219D01*
X104942707Y-83497219D02*
X105037945Y-83497219D01*
X105037945Y-83497219D02*
X105133183Y-83449600D01*
X105133183Y-83449600D02*
X105180802Y-83401980D01*
X105180802Y-83401980D02*
X105228421Y-83306742D01*
X105228421Y-83306742D02*
X105276040Y-83116266D01*
X105276040Y-83116266D02*
X105276040Y-82878171D01*
X105276040Y-82878171D02*
X105228421Y-82687695D01*
X105228421Y-82687695D02*
X105180802Y-82592457D01*
X105180802Y-82592457D02*
X105133183Y-82544838D01*
X105133183Y-82544838D02*
X105037945Y-82497219D01*
X104276040Y-83401980D02*
X104228421Y-83449600D01*
X104228421Y-83449600D02*
X104276040Y-83497219D01*
X104276040Y-83497219D02*
X104323659Y-83449600D01*
X104323659Y-83449600D02*
X104276040Y-83401980D01*
X104276040Y-83401980D02*
X104276040Y-83497219D01*
X103276041Y-83497219D02*
X103847469Y-83497219D01*
X103561755Y-83497219D02*
X103561755Y-82497219D01*
X103561755Y-82497219D02*
X103656993Y-82640076D01*
X103656993Y-82640076D02*
X103752231Y-82735314D01*
X103752231Y-82735314D02*
X103847469Y-82782933D01*
D12*
%TO.C,G\u002A\u002A\u002A*%
G36*
X110670395Y-77409482D02*
G01*
X110704447Y-77434728D01*
X110752875Y-77473044D01*
X110815441Y-77524298D01*
X110879113Y-77579126D01*
X111003095Y-77700633D01*
X111107301Y-77825777D01*
X111192428Y-77955703D01*
X111259176Y-78091559D01*
X111308244Y-78234490D01*
X111340329Y-78385643D01*
X111343658Y-78409169D01*
X111347091Y-78447337D01*
X111346915Y-78485030D01*
X111342943Y-78529228D01*
X111334992Y-78586914D01*
X111334385Y-78590927D01*
X111308173Y-78719576D01*
X111269773Y-78835593D01*
X111217124Y-78943216D01*
X111148162Y-79046682D01*
X111060826Y-79150229D01*
X110971922Y-79235892D01*
X110863365Y-79322152D01*
X110738893Y-79406106D01*
X110601004Y-79486194D01*
X110452196Y-79560856D01*
X110294967Y-79628531D01*
X110156995Y-79679969D01*
X109952062Y-79746427D01*
X109730567Y-79807930D01*
X109494764Y-79864031D01*
X109246908Y-79914281D01*
X108989252Y-79958235D01*
X108724053Y-79995445D01*
X108453564Y-80025464D01*
X108180041Y-80047846D01*
X108148263Y-80049988D01*
X108089332Y-80054006D01*
X108037007Y-80057629D01*
X107996035Y-80060528D01*
X107971160Y-80062373D01*
X107969780Y-80062470D01*
X107947649Y-80063263D01*
X107907530Y-80064076D01*
X107851999Y-80064881D01*
X107783633Y-80065648D01*
X107705008Y-80066347D01*
X107618701Y-80066950D01*
X107527287Y-80067426D01*
X107429321Y-80067466D01*
X107275551Y-80066091D01*
X107121978Y-80063083D01*
X106972047Y-80058571D01*
X106829203Y-80052686D01*
X106696893Y-80045556D01*
X106578563Y-80037311D01*
X106477657Y-80028079D01*
X106468673Y-80027129D01*
X106413395Y-80021479D01*
X106357050Y-80015979D01*
X106310551Y-80011699D01*
X106308883Y-80011553D01*
X106245976Y-80005426D01*
X106166849Y-79996804D01*
X106075809Y-79986230D01*
X105977164Y-79974247D01*
X105875222Y-79961397D01*
X105774291Y-79948223D01*
X105678678Y-79935268D01*
X105592691Y-79923074D01*
X105520638Y-79912184D01*
X105237918Y-79864523D01*
X104892784Y-79798170D01*
X104553467Y-79723981D01*
X104221320Y-79642411D01*
X103897695Y-79553916D01*
X103583945Y-79458952D01*
X103281423Y-79357975D01*
X102991481Y-79251439D01*
X102715472Y-79139801D01*
X102454749Y-79023517D01*
X102210664Y-78903042D01*
X101984571Y-78778831D01*
X101777821Y-78651341D01*
X101760566Y-78639961D01*
X101674287Y-78581126D01*
X101594064Y-78523286D01*
X101521579Y-78467858D01*
X101458508Y-78416259D01*
X101406531Y-78369908D01*
X101367326Y-78330220D01*
X101342572Y-78298615D01*
X101333948Y-78276509D01*
X101330348Y-78259204D01*
X101317991Y-78245146D01*
X101306904Y-78237960D01*
X101291091Y-78218573D01*
X101285981Y-78208302D01*
X101287336Y-78203118D01*
X101303501Y-78210622D01*
X101316671Y-78218749D01*
X101344612Y-78237663D01*
X101381155Y-78263407D01*
X101421788Y-78292847D01*
X101502990Y-78350897D01*
X101715139Y-78489556D01*
X101946698Y-78623815D01*
X102196879Y-78753322D01*
X102464894Y-78877720D01*
X102749954Y-78996658D01*
X103051273Y-79109778D01*
X103368061Y-79216729D01*
X103699532Y-79317154D01*
X103839811Y-79356745D01*
X104032287Y-79408752D01*
X104218536Y-79456043D01*
X104401570Y-79499204D01*
X104584401Y-79538822D01*
X104770040Y-79575482D01*
X104961501Y-79609772D01*
X105161794Y-79642277D01*
X105373932Y-79673584D01*
X105600927Y-79704278D01*
X105845790Y-79734948D01*
X105871367Y-79737919D01*
X105957107Y-79746620D01*
X106059053Y-79755474D01*
X106173742Y-79764254D01*
X106297708Y-79772730D01*
X106427490Y-79780674D01*
X106559623Y-79787858D01*
X106690644Y-79794053D01*
X106817089Y-79799030D01*
X106865620Y-79800597D01*
X107155587Y-79804840D01*
X107447919Y-79800657D01*
X107740369Y-79788322D01*
X108030689Y-79768114D01*
X108316633Y-79740310D01*
X108595953Y-79705186D01*
X108866402Y-79663020D01*
X109125732Y-79614089D01*
X109371697Y-79558669D01*
X109602049Y-79497038D01*
X109814540Y-79429473D01*
X109916751Y-79392426D01*
X110108805Y-79313507D01*
X110284898Y-79228185D01*
X110444435Y-79136920D01*
X110586823Y-79040177D01*
X110711468Y-78938416D01*
X110817776Y-78832101D01*
X110905153Y-78721694D01*
X110973005Y-78607656D01*
X111020739Y-78490451D01*
X111025625Y-78474562D01*
X111055561Y-78342589D01*
X111065574Y-78212939D01*
X111055527Y-78085173D01*
X111025285Y-77958857D01*
X110974712Y-77833553D01*
X110903672Y-77708824D01*
X110812028Y-77584234D01*
X110699645Y-77459346D01*
X110682735Y-77441883D01*
X110656891Y-77413507D01*
X110646379Y-77398738D01*
X110650960Y-77397440D01*
X110670395Y-77409482D01*
G37*
G36*
X101920324Y-78376765D02*
G01*
X101932970Y-78382475D01*
X101973406Y-78400733D01*
X101979214Y-78403363D01*
X102002280Y-78413807D01*
X102024484Y-78423861D01*
X102065033Y-78442292D01*
X102098418Y-78457211D01*
X102208137Y-78503005D01*
X102333861Y-78551442D01*
X102472259Y-78601433D01*
X102620001Y-78651890D01*
X102773755Y-78701723D01*
X102930190Y-78749842D01*
X103085976Y-78795158D01*
X103237780Y-78836583D01*
X103382273Y-78873027D01*
X103429242Y-78884212D01*
X103855614Y-78976036D01*
X104286631Y-79051311D01*
X104724706Y-79110367D01*
X105172254Y-79153534D01*
X105631686Y-79181145D01*
X105916670Y-79189374D01*
X106237823Y-79189845D01*
X106564766Y-79181612D01*
X106895141Y-79164967D01*
X107226589Y-79140202D01*
X107556751Y-79107611D01*
X107883269Y-79067485D01*
X108203785Y-79020117D01*
X108515939Y-78965799D01*
X108817372Y-78904825D01*
X109105728Y-78837486D01*
X109378645Y-78764075D01*
X109633767Y-78684884D01*
X109706046Y-78659993D01*
X109855694Y-78603677D01*
X109999016Y-78543378D01*
X110133141Y-78480481D01*
X110255199Y-78416372D01*
X110362318Y-78352437D01*
X110451629Y-78290061D01*
X110519515Y-78237825D01*
X110467295Y-78292856D01*
X110454663Y-78305834D01*
X110402250Y-78355298D01*
X110340648Y-78408383D01*
X110276547Y-78459480D01*
X110216637Y-78502982D01*
X110200824Y-78513439D01*
X110132652Y-78553988D01*
X110048635Y-78598477D01*
X109952065Y-78645446D01*
X109846240Y-78693435D01*
X109734452Y-78740985D01*
X109619998Y-78786637D01*
X109506172Y-78828930D01*
X109396269Y-78866405D01*
X109380863Y-78871359D01*
X109203441Y-78924410D01*
X109008035Y-78976172D01*
X108797289Y-79026160D01*
X108573848Y-79073888D01*
X108340359Y-79118869D01*
X108099464Y-79160618D01*
X107853811Y-79198648D01*
X107606043Y-79232474D01*
X107358806Y-79261610D01*
X107114745Y-79285570D01*
X107071137Y-79289245D01*
X106862871Y-79303094D01*
X106639782Y-79312435D01*
X106406430Y-79317295D01*
X106167372Y-79317698D01*
X105927167Y-79313670D01*
X105690374Y-79305235D01*
X105461550Y-79292418D01*
X105245255Y-79275246D01*
X105226337Y-79273448D01*
X105138832Y-79264313D01*
X105037330Y-79252662D01*
X104926178Y-79239073D01*
X104809724Y-79224125D01*
X104692315Y-79208399D01*
X104578297Y-79192472D01*
X104472018Y-79176925D01*
X104377825Y-79162337D01*
X104300066Y-79149287D01*
X104018098Y-79095500D01*
X103667298Y-79018054D01*
X103323773Y-78930501D01*
X102990046Y-78833582D01*
X102668638Y-78728039D01*
X102362071Y-78614614D01*
X102072866Y-78494049D01*
X102028052Y-78474381D01*
X101980295Y-78453886D01*
X101942384Y-78438146D01*
X101917387Y-78428431D01*
X101908372Y-78426010D01*
X101917184Y-78432012D01*
X101941297Y-78444856D01*
X101977015Y-78462645D01*
X102020646Y-78483487D01*
X102226148Y-78575953D01*
X102517759Y-78695213D01*
X102817921Y-78804982D01*
X103119885Y-78902688D01*
X103276406Y-78949304D01*
X103422656Y-78991467D01*
X103554377Y-79027933D01*
X103669866Y-79058232D01*
X103767418Y-79081891D01*
X103802618Y-79089928D01*
X103981859Y-79129662D01*
X104153056Y-79165379D01*
X104319102Y-79197493D01*
X104482892Y-79226419D01*
X104647317Y-79252571D01*
X104815271Y-79276363D01*
X104989647Y-79298211D01*
X105173339Y-79318528D01*
X105369238Y-79337729D01*
X105580240Y-79356229D01*
X105809236Y-79374443D01*
X105852606Y-79377262D01*
X105932707Y-79380858D01*
X106026938Y-79383613D01*
X106132385Y-79385548D01*
X106246127Y-79386685D01*
X106365249Y-79387044D01*
X106486832Y-79386648D01*
X106607958Y-79385518D01*
X106725711Y-79383675D01*
X106837171Y-79381141D01*
X106939423Y-79377936D01*
X107029547Y-79374083D01*
X107104626Y-79369603D01*
X107161744Y-79364517D01*
X107168928Y-79363754D01*
X107201535Y-79360809D01*
X107245121Y-79357328D01*
X107292295Y-79353912D01*
X107324510Y-79351450D01*
X107378940Y-79346762D01*
X107444144Y-79340751D01*
X107514586Y-79333928D01*
X107584729Y-79326808D01*
X107823871Y-79299484D01*
X108160117Y-79252441D01*
X108483114Y-79196821D01*
X108791943Y-79132853D01*
X109085681Y-79060770D01*
X109363408Y-78980804D01*
X109624202Y-78893187D01*
X109867142Y-78798150D01*
X110091308Y-78695925D01*
X110191190Y-78644623D01*
X110327884Y-78565889D01*
X110445703Y-78486176D01*
X110545859Y-78404458D01*
X110629563Y-78319712D01*
X110698027Y-78230914D01*
X110752462Y-78137039D01*
X110801505Y-78037820D01*
X110801014Y-77928158D01*
X110798688Y-77867333D01*
X110786099Y-77783386D01*
X110761030Y-77707141D01*
X110721706Y-77631975D01*
X110702932Y-77599429D01*
X110695135Y-77581355D01*
X110698351Y-77578735D01*
X110711677Y-77591024D01*
X110734214Y-77617679D01*
X110765061Y-77658156D01*
X110831721Y-77757383D01*
X110884230Y-77857449D01*
X110920029Y-77956815D01*
X110940445Y-78059212D01*
X110946808Y-78168371D01*
X110946428Y-78195269D01*
X110939628Y-78281524D01*
X110923066Y-78361261D01*
X110895103Y-78439368D01*
X110854095Y-78520731D01*
X110798402Y-78610236D01*
X110778260Y-78638708D01*
X110705543Y-78723379D01*
X110614210Y-78808306D01*
X110505909Y-78892444D01*
X110382287Y-78974747D01*
X110244992Y-79054168D01*
X110095670Y-79129662D01*
X109935971Y-79200183D01*
X109767541Y-79264684D01*
X109633733Y-79309921D01*
X109397412Y-79380252D01*
X109144936Y-79444363D01*
X108878828Y-79501682D01*
X108601613Y-79551638D01*
X108315814Y-79593659D01*
X108252485Y-79601551D01*
X108117820Y-79616284D01*
X107967965Y-79630349D01*
X107806656Y-79643432D01*
X107637629Y-79655218D01*
X107464622Y-79665393D01*
X107457206Y-79665709D01*
X107425089Y-79666554D01*
X107376410Y-79667423D01*
X107314276Y-79668278D01*
X107241791Y-79669078D01*
X107162061Y-79669783D01*
X107078191Y-79670353D01*
X106755185Y-79668137D01*
X106262289Y-79648619D01*
X105774524Y-79609406D01*
X105290688Y-79550318D01*
X104809576Y-79471172D01*
X104329984Y-79371788D01*
X103850707Y-79251984D01*
X103370543Y-79111577D01*
X103355963Y-79106973D01*
X103255911Y-79073947D01*
X103141969Y-79034272D01*
X103018363Y-78989566D01*
X102889320Y-78941443D01*
X102759066Y-78891522D01*
X102631828Y-78841418D01*
X102511831Y-78792747D01*
X102403303Y-78747125D01*
X102310469Y-78706170D01*
X102172519Y-78641511D01*
X101961446Y-78534539D01*
X101770486Y-78427017D01*
X101749603Y-78413807D01*
X101887484Y-78413807D01*
X101892706Y-78419029D01*
X101897928Y-78413807D01*
X101892706Y-78408585D01*
X101887484Y-78413807D01*
X101749603Y-78413807D01*
X101733092Y-78403363D01*
X101866596Y-78403363D01*
X101871818Y-78408585D01*
X101877040Y-78403363D01*
X101871818Y-78398141D01*
X101866596Y-78403363D01*
X101733092Y-78403363D01*
X101700071Y-78382475D01*
X101824819Y-78382475D01*
X101830041Y-78387697D01*
X101835263Y-78382475D01*
X101830041Y-78377253D01*
X101824819Y-78382475D01*
X101700071Y-78382475D01*
X101683560Y-78372031D01*
X101803931Y-78372031D01*
X101809153Y-78377253D01*
X101814375Y-78372031D01*
X101809153Y-78366809D01*
X101803931Y-78372031D01*
X101683560Y-78372031D01*
X101599795Y-78319045D01*
X101449527Y-78210724D01*
X101319838Y-78102153D01*
X101210881Y-77993433D01*
X101205393Y-77987349D01*
X101172747Y-77949705D01*
X101152400Y-77923568D01*
X101144602Y-77909817D01*
X101149603Y-77909329D01*
X101167652Y-77922983D01*
X101198999Y-77951657D01*
X101246533Y-77992435D01*
X101312686Y-78041230D01*
X101392610Y-78094432D01*
X101483425Y-78150333D01*
X101582246Y-78207219D01*
X101686192Y-78263379D01*
X101792380Y-78317102D01*
X101897928Y-78366675D01*
X101909816Y-78372031D01*
X101920324Y-78376765D01*
G37*
G36*
X108723088Y-76782500D02*
G01*
X108710895Y-76791062D01*
X108685497Y-76805729D01*
X108651012Y-76824079D01*
X108591456Y-76858724D01*
X108520987Y-76908878D01*
X108453660Y-76965774D01*
X108393494Y-77025683D01*
X108344511Y-77084878D01*
X108310731Y-77139630D01*
X108310012Y-77141120D01*
X108275895Y-77235737D01*
X108260746Y-77336016D01*
X108264147Y-77439894D01*
X108285677Y-77545308D01*
X108324920Y-77650194D01*
X108381456Y-77752488D01*
X108454867Y-77850128D01*
X108517393Y-77914211D01*
X108617122Y-77992889D01*
X108733561Y-78062524D01*
X108865201Y-78122453D01*
X109010534Y-78172014D01*
X109168049Y-78210543D01*
X109336239Y-78237377D01*
X109417017Y-78245060D01*
X109561004Y-78250802D01*
X109714302Y-78248318D01*
X109870911Y-78237916D01*
X110024827Y-78219906D01*
X110170048Y-78194593D01*
X110200959Y-78187771D01*
X110258091Y-78173448D01*
X110315188Y-78157298D01*
X110368188Y-78140631D01*
X110413027Y-78124755D01*
X110445643Y-78110977D01*
X110461973Y-78100605D01*
X110465424Y-78095150D01*
X110474317Y-78070135D01*
X110480381Y-78037815D01*
X110480457Y-78037145D01*
X110486430Y-78004891D01*
X110494027Y-77992575D01*
X110502239Y-78000497D01*
X110510057Y-78028960D01*
X110513499Y-78061233D01*
X110506327Y-78096165D01*
X110483170Y-78124051D01*
X110441603Y-78149152D01*
X110389559Y-78170214D01*
X110318712Y-78192030D01*
X110233051Y-78213502D01*
X110135636Y-78233988D01*
X110029526Y-78252846D01*
X109917781Y-78269434D01*
X109803461Y-78283109D01*
X109782118Y-78285003D01*
X109712132Y-78288184D01*
X109629229Y-78288619D01*
X109539081Y-78286489D01*
X109447361Y-78281973D01*
X109359740Y-78275253D01*
X109281892Y-78266509D01*
X109185112Y-78250822D01*
X109046265Y-78219807D01*
X108913746Y-78180362D01*
X108792277Y-78133951D01*
X108686579Y-78082036D01*
X108655179Y-78063749D01*
X108612014Y-78036996D01*
X108570866Y-78009945D01*
X108535728Y-77985321D01*
X108510595Y-77965853D01*
X108499460Y-77954268D01*
X108491590Y-77943682D01*
X108472434Y-77922720D01*
X108446691Y-77896825D01*
X108392694Y-77837298D01*
X108331695Y-77748127D01*
X108283572Y-77650370D01*
X108249465Y-77547658D01*
X108230511Y-77443620D01*
X108227850Y-77341887D01*
X108242619Y-77246089D01*
X108248597Y-77225109D01*
X108288219Y-77132143D01*
X108347568Y-77044880D01*
X108426184Y-76963899D01*
X108523614Y-76889780D01*
X108563378Y-76864334D01*
X108608585Y-76837113D01*
X108650866Y-76813226D01*
X108686556Y-76794658D01*
X108711992Y-76783396D01*
X108723510Y-76781426D01*
X108723088Y-76782500D01*
G37*
G36*
X104022510Y-75875896D02*
G01*
X104013782Y-75894173D01*
X104008871Y-75902921D01*
X104004880Y-75917547D01*
X104005105Y-75938227D01*
X104009749Y-75969716D01*
X104019017Y-76016772D01*
X104024506Y-76041600D01*
X104035366Y-76082940D01*
X104045873Y-76114450D01*
X104054365Y-76130764D01*
X104055003Y-76131360D01*
X104073357Y-76141417D01*
X104105159Y-76153320D01*
X104143929Y-76164620D01*
X104198090Y-76180216D01*
X104241026Y-76198997D01*
X104274068Y-76224261D01*
X104302845Y-76260387D01*
X104332985Y-76311756D01*
X104348329Y-76339656D01*
X104373904Y-76385369D01*
X104406229Y-76442618D01*
X104443331Y-76507921D01*
X104483237Y-76577795D01*
X104523972Y-76648758D01*
X104586957Y-76758169D01*
X104668209Y-76899283D01*
X104744361Y-77031500D01*
X104814821Y-77153799D01*
X104879000Y-77265154D01*
X104936308Y-77364543D01*
X104986153Y-77450942D01*
X105027947Y-77523327D01*
X105061099Y-77580676D01*
X105085018Y-77621964D01*
X105099114Y-77646168D01*
X105111546Y-77667429D01*
X105134551Y-77706909D01*
X105163562Y-77756789D01*
X105196102Y-77812812D01*
X105229693Y-77870715D01*
X105246483Y-77899663D01*
X105291502Y-77977024D01*
X105327824Y-78038786D01*
X105356715Y-78086854D01*
X105379444Y-78123134D01*
X105397278Y-78149532D01*
X105411485Y-78167953D01*
X105423333Y-78180303D01*
X105434088Y-78188487D01*
X105445019Y-78194411D01*
X105460548Y-78198353D01*
X105495189Y-78202430D01*
X105544235Y-78205774D01*
X105604479Y-78208374D01*
X105672714Y-78210219D01*
X105745734Y-78211299D01*
X105820331Y-78211605D01*
X105893299Y-78211124D01*
X105961430Y-78209848D01*
X106021517Y-78207767D01*
X106070355Y-78204868D01*
X106104735Y-78201144D01*
X106121452Y-78196582D01*
X106126252Y-78191414D01*
X106138773Y-78165199D01*
X106153131Y-78118947D01*
X106169451Y-78052285D01*
X106175005Y-78028171D01*
X106190463Y-77964194D01*
X106208950Y-77890759D01*
X106228612Y-77815161D01*
X106247596Y-77744695D01*
X106253384Y-77723630D01*
X106275383Y-77642982D01*
X106299379Y-77554292D01*
X106322841Y-77466935D01*
X106343240Y-77390288D01*
X106352948Y-77353566D01*
X106371777Y-77282328D01*
X106393637Y-77199611D01*
X106417117Y-77110753D01*
X106440805Y-77021093D01*
X106463293Y-76935970D01*
X106475649Y-76889382D01*
X106499264Y-76801124D01*
X106525124Y-76705272D01*
X106552144Y-76605795D01*
X106579237Y-76506663D01*
X106605317Y-76411844D01*
X106629298Y-76325307D01*
X106650093Y-76251021D01*
X106666618Y-76192956D01*
X106674350Y-76182594D01*
X106694718Y-76175838D01*
X106698146Y-76175678D01*
X106722756Y-76171874D01*
X106759301Y-76164041D01*
X106801218Y-76153553D01*
X106809789Y-76151289D01*
X106856521Y-76140723D01*
X106888804Y-76137517D01*
X106910880Y-76141194D01*
X106920318Y-76144261D01*
X106952122Y-76151837D01*
X106988462Y-76158019D01*
X107031289Y-76164599D01*
X107061186Y-76173213D01*
X107078600Y-76186860D01*
X107087848Y-76209051D01*
X107093245Y-76243298D01*
X107093365Y-76244313D01*
X107099019Y-76290499D01*
X107106950Y-76353197D01*
X107116845Y-76430082D01*
X107128394Y-76518827D01*
X107141285Y-76617105D01*
X107155206Y-76722589D01*
X107169847Y-76832954D01*
X107184896Y-76945872D01*
X107200042Y-77059018D01*
X107214972Y-77170064D01*
X107229377Y-77276684D01*
X107242943Y-77376551D01*
X107255360Y-77467339D01*
X107266317Y-77546721D01*
X107275502Y-77612370D01*
X107282604Y-77661961D01*
X107287310Y-77693166D01*
X107290977Y-77719410D01*
X107295598Y-77765922D01*
X107297438Y-77805171D01*
X107297373Y-77815525D01*
X107294770Y-77842407D01*
X107285740Y-77858180D01*
X107266703Y-77870447D01*
X107248211Y-77879520D01*
X107230573Y-77885408D01*
X107229515Y-77879319D01*
X107244563Y-77861052D01*
X107246166Y-77859354D01*
X107254203Y-77850527D01*
X107259826Y-77841542D01*
X107262971Y-77829466D01*
X107263574Y-77811366D01*
X107261570Y-77784309D01*
X107256895Y-77745360D01*
X107249484Y-77691587D01*
X107239273Y-77620057D01*
X107238000Y-77611082D01*
X107231514Y-77564267D01*
X107223183Y-77502899D01*
X107213669Y-77431892D01*
X107203630Y-77356162D01*
X107193726Y-77280625D01*
X107182841Y-77197769D01*
X107169637Y-77098442D01*
X107155686Y-76994468D01*
X107142090Y-76894057D01*
X107129951Y-76805419D01*
X107128659Y-76796043D01*
X107117212Y-76712250D01*
X107105183Y-76623020D01*
X107093442Y-76534882D01*
X107082859Y-76454368D01*
X107074306Y-76388009D01*
X107051814Y-76210814D01*
X106978414Y-76194150D01*
X106976204Y-76193647D01*
X106938456Y-76184375D01*
X106908531Y-76175864D01*
X106892735Y-76169898D01*
X106883774Y-76169014D01*
X106858500Y-76171644D01*
X106823485Y-76177503D01*
X106784703Y-76185359D01*
X106748127Y-76193978D01*
X106719728Y-76202127D01*
X106705481Y-76208571D01*
X106704979Y-76209464D01*
X106699625Y-76224980D01*
X106689617Y-76257606D01*
X106675661Y-76304882D01*
X106658466Y-76364346D01*
X106638737Y-76433538D01*
X106617184Y-76509996D01*
X106594513Y-76591260D01*
X106571431Y-76674868D01*
X106563479Y-76704203D01*
X106550569Y-76752397D01*
X106534107Y-76814212D01*
X106515001Y-76886217D01*
X106494161Y-76964981D01*
X106472495Y-77047073D01*
X106450913Y-77129062D01*
X106430323Y-77207516D01*
X106423098Y-77234972D01*
X106408463Y-77290225D01*
X106390375Y-77358215D01*
X106370025Y-77434476D01*
X106348603Y-77514542D01*
X106327300Y-77593947D01*
X106315219Y-77639114D01*
X106292613Y-77724557D01*
X106270070Y-77810828D01*
X106248946Y-77892681D01*
X106230601Y-77964871D01*
X106216393Y-78022154D01*
X106205883Y-78064767D01*
X106192161Y-78116931D01*
X106180678Y-78154343D01*
X106170170Y-78180471D01*
X106159373Y-78198786D01*
X106147026Y-78212759D01*
X106117006Y-78241480D01*
X105780350Y-78241441D01*
X105692441Y-78241362D01*
X105616278Y-78241051D01*
X105556516Y-78240386D01*
X105510833Y-78239248D01*
X105476907Y-78237513D01*
X105452419Y-78235061D01*
X105435046Y-78231770D01*
X105422467Y-78227518D01*
X105412361Y-78222185D01*
X105395203Y-78206818D01*
X105366983Y-78170965D01*
X105330379Y-78116067D01*
X105285376Y-78042101D01*
X105231959Y-77949046D01*
X105228576Y-77943070D01*
X105213649Y-77916993D01*
X105190829Y-77877337D01*
X105161957Y-77827295D01*
X105128876Y-77770063D01*
X105093428Y-77708832D01*
X105083501Y-77691688D01*
X105045881Y-77626550D01*
X105009361Y-77563069D01*
X104976289Y-77505344D01*
X104949016Y-77457477D01*
X104929893Y-77423567D01*
X104923562Y-77412269D01*
X104898981Y-77369151D01*
X104875877Y-77329627D01*
X104858536Y-77301057D01*
X104850730Y-77288427D01*
X104837816Y-77265961D01*
X104832714Y-77254544D01*
X104832033Y-77252453D01*
X104823681Y-77236279D01*
X104807827Y-77208426D01*
X104787005Y-77173395D01*
X104782335Y-77165616D01*
X104762417Y-77131855D01*
X104734480Y-77083953D01*
X104700250Y-77024895D01*
X104661456Y-76957666D01*
X104619825Y-76885253D01*
X104577086Y-76810641D01*
X104534295Y-76735759D01*
X104473789Y-76629894D01*
X104422102Y-76539854D01*
X104378203Y-76464263D01*
X104341065Y-76401744D01*
X104309658Y-76350920D01*
X104282953Y-76310417D01*
X104259922Y-76278856D01*
X104239534Y-76254862D01*
X104220762Y-76237058D01*
X104202575Y-76224068D01*
X104183945Y-76214515D01*
X104163844Y-76207023D01*
X104141241Y-76200216D01*
X104115108Y-76192718D01*
X104070145Y-76177738D01*
X104033027Y-76158286D01*
X104008557Y-76132219D01*
X103992514Y-76094780D01*
X103980676Y-76041210D01*
X103978329Y-76027744D01*
X103970197Y-75975700D01*
X103966997Y-75939400D01*
X103968938Y-75915041D01*
X103976226Y-75898820D01*
X103989068Y-75886932D01*
X103996268Y-75882059D01*
X104016428Y-75871787D01*
X104022510Y-75875896D01*
G37*
G36*
X101983830Y-77927526D02*
G01*
X101966743Y-77949847D01*
X101966162Y-77950537D01*
X101951422Y-77968223D01*
X101943414Y-77981748D01*
X101941230Y-77997317D01*
X101943960Y-78021133D01*
X101950697Y-78059401D01*
X101955526Y-78085488D01*
X101966415Y-78133591D01*
X101977855Y-78166002D01*
X101991346Y-78186325D01*
X102008384Y-78198165D01*
X102018955Y-78200546D01*
X102044041Y-78202925D01*
X102083805Y-78204936D01*
X102139136Y-78206595D01*
X102210920Y-78207916D01*
X102300043Y-78208916D01*
X102407392Y-78209611D01*
X102533855Y-78210016D01*
X102680317Y-78210148D01*
X102740742Y-78210146D01*
X102864188Y-78210113D01*
X102969047Y-78209996D01*
X103056921Y-78209745D01*
X103129409Y-78209307D01*
X103188112Y-78208632D01*
X103234629Y-78207668D01*
X103270561Y-78206363D01*
X103297507Y-78204666D01*
X103317069Y-78202526D01*
X103330846Y-78199891D01*
X103340438Y-78196709D01*
X103347445Y-78192930D01*
X103353469Y-78188502D01*
X103354520Y-78187660D01*
X103373249Y-78166772D01*
X103380987Y-78146725D01*
X103384166Y-78131837D01*
X103394522Y-78127770D01*
X103405700Y-78142385D01*
X103407339Y-78148408D01*
X103403215Y-78175864D01*
X103384831Y-78203547D01*
X103356100Y-78224944D01*
X103351177Y-78227007D01*
X103339826Y-78230056D01*
X103323208Y-78232641D01*
X103299759Y-78234799D01*
X103267917Y-78236570D01*
X103226121Y-78237989D01*
X103172809Y-78239095D01*
X103106418Y-78239926D01*
X103025387Y-78240518D01*
X102928154Y-78240910D01*
X102813157Y-78241139D01*
X102678834Y-78241242D01*
X102597591Y-78241254D01*
X102474604Y-78241171D01*
X102369990Y-78240924D01*
X102282164Y-78240478D01*
X102209539Y-78239794D01*
X102150530Y-78238837D01*
X102103551Y-78237569D01*
X102067016Y-78235952D01*
X102039341Y-78233951D01*
X102018938Y-78231528D01*
X102004223Y-78228647D01*
X101993609Y-78225269D01*
X101992618Y-78224870D01*
X101963713Y-78209486D01*
X101943845Y-78187975D01*
X101929903Y-78155417D01*
X101918777Y-78106892D01*
X101911947Y-78064390D01*
X101908672Y-78013436D01*
X101914656Y-77976247D01*
X101930622Y-77949498D01*
X101957295Y-77929864D01*
X101971089Y-77922930D01*
X101985400Y-77918811D01*
X101983830Y-77927526D01*
G37*
G36*
X107102516Y-77926601D02*
G01*
X107088904Y-77946448D01*
X107088458Y-77947053D01*
X107076588Y-77965331D01*
X107071396Y-77982879D01*
X107072081Y-78006756D01*
X107077844Y-78044019D01*
X107086546Y-78088562D01*
X107099053Y-78133281D01*
X107112910Y-78160626D01*
X107128924Y-78172632D01*
X107129601Y-78172764D01*
X107145744Y-78173696D01*
X107180672Y-78174671D01*
X107232551Y-78175667D01*
X107299549Y-78176661D01*
X107379830Y-78177630D01*
X107471562Y-78178552D01*
X107572911Y-78179405D01*
X107682043Y-78180166D01*
X107797124Y-78180812D01*
X108448170Y-78184038D01*
X108473378Y-78154734D01*
X108476285Y-78151240D01*
X108492126Y-78127216D01*
X108498586Y-78108258D01*
X108500653Y-78097968D01*
X108510087Y-78102586D01*
X108516941Y-78118822D01*
X108514059Y-78146359D01*
X108501235Y-78175745D01*
X108480709Y-78199576D01*
X108477590Y-78201944D01*
X108471262Y-78205843D01*
X108462878Y-78209156D01*
X108450871Y-78211932D01*
X108433669Y-78214219D01*
X108409704Y-78216063D01*
X108377407Y-78217512D01*
X108335207Y-78218614D01*
X108281536Y-78219416D01*
X108214824Y-78219966D01*
X108133501Y-78220311D01*
X108035999Y-78220499D01*
X107920747Y-78220576D01*
X107786177Y-78220592D01*
X107118361Y-78220592D01*
X107089243Y-78191474D01*
X107089140Y-78191371D01*
X107073889Y-78173034D01*
X107063019Y-78150566D01*
X107054557Y-78118399D01*
X107046529Y-78070968D01*
X107040970Y-78032025D01*
X107037893Y-78001146D01*
X107038825Y-77980957D01*
X107044101Y-77966109D01*
X107054058Y-77951257D01*
X107054857Y-77950201D01*
X107074806Y-77929815D01*
X107093378Y-77919361D01*
X107103489Y-77918942D01*
X107102516Y-77926601D01*
G37*
G36*
X103970055Y-77929013D02*
G01*
X103970729Y-77935979D01*
X103956591Y-77953012D01*
X103956307Y-77953315D01*
X103945251Y-77966025D01*
X103939378Y-77978350D01*
X103938361Y-77995516D01*
X103941874Y-78022752D01*
X103949592Y-78065286D01*
X103950269Y-78068876D01*
X103961693Y-78119231D01*
X103973855Y-78152174D01*
X103987944Y-78170982D01*
X103988494Y-78171432D01*
X103994989Y-78175551D01*
X104004476Y-78178986D01*
X104018745Y-78181798D01*
X104039586Y-78184049D01*
X104068787Y-78185800D01*
X104108139Y-78187114D01*
X104159430Y-78188050D01*
X104224452Y-78188672D01*
X104304993Y-78189039D01*
X104402843Y-78189215D01*
X104519791Y-78189260D01*
X105029636Y-78189260D01*
X105051817Y-78161060D01*
X105055838Y-78155789D01*
X105065228Y-78139725D01*
X105069649Y-78120692D01*
X105069899Y-78092770D01*
X105066774Y-78050038D01*
X105063741Y-78008976D01*
X105063680Y-77984107D01*
X105067014Y-77972970D01*
X105074072Y-77972042D01*
X105081220Y-77979824D01*
X105090943Y-78003896D01*
X105099796Y-78037998D01*
X105106511Y-78075971D01*
X105109818Y-78111654D01*
X105108448Y-78138889D01*
X105108137Y-78140328D01*
X105096117Y-78167442D01*
X105076063Y-78193720D01*
X105049191Y-78220592D01*
X104517164Y-78220592D01*
X103985137Y-78220592D01*
X103956076Y-78191531D01*
X103940640Y-78172615D01*
X103925864Y-78140417D01*
X103915103Y-78094067D01*
X103909496Y-78059353D01*
X103904939Y-78025509D01*
X103903191Y-78004430D01*
X103908229Y-77983849D01*
X103923692Y-77957825D01*
X103943954Y-77936803D01*
X103963212Y-77928158D01*
X103970055Y-77929013D01*
G37*
G36*
X109020365Y-75895582D02*
G01*
X109178047Y-75905995D01*
X109329931Y-75925721D01*
X109471668Y-75954657D01*
X109598908Y-75992701D01*
X109638686Y-76007833D01*
X109755053Y-76062614D01*
X109860267Y-76128298D01*
X109951970Y-76203043D01*
X110027804Y-76285009D01*
X110085410Y-76372357D01*
X110098404Y-76398250D01*
X110131918Y-76486365D01*
X110151728Y-76577106D01*
X110157457Y-76666236D01*
X110148733Y-76749516D01*
X110125181Y-76822710D01*
X110105107Y-76862040D01*
X110071269Y-76914448D01*
X110030252Y-76962275D01*
X109980161Y-77006793D01*
X109919104Y-77049273D01*
X109845186Y-77090988D01*
X109756513Y-77133209D01*
X109651191Y-77177209D01*
X109527328Y-77224259D01*
X109486463Y-77239335D01*
X109386558Y-77277457D01*
X109304157Y-77311279D01*
X109237371Y-77341876D01*
X109184314Y-77370326D01*
X109143097Y-77397706D01*
X109111830Y-77425093D01*
X109088628Y-77453564D01*
X109071600Y-77484195D01*
X109070026Y-77487737D01*
X109053687Y-77549807D01*
X109058002Y-77612384D01*
X109082793Y-77674666D01*
X109127879Y-77735852D01*
X109159106Y-77766119D01*
X109231978Y-77816604D01*
X109317500Y-77854782D01*
X109412529Y-77880167D01*
X109513923Y-77892271D01*
X109618539Y-77890606D01*
X109723236Y-77874685D01*
X109824870Y-77844020D01*
X109901075Y-77806502D01*
X109971715Y-77751084D01*
X110028106Y-77680752D01*
X110070549Y-77595120D01*
X110099346Y-77493802D01*
X110113926Y-77421620D01*
X110175726Y-77413614D01*
X110214075Y-77410176D01*
X110266049Y-77408119D01*
X110315856Y-77408392D01*
X110394186Y-77411176D01*
X110402075Y-77463396D01*
X110407105Y-77498722D01*
X110414233Y-77553289D01*
X110422071Y-77617011D01*
X110430204Y-77686153D01*
X110438220Y-77756978D01*
X110445705Y-77825752D01*
X110452246Y-77888740D01*
X110457430Y-77942208D01*
X110460843Y-77982419D01*
X110462073Y-78005639D01*
X110461595Y-78023172D01*
X110457135Y-78046399D01*
X110447236Y-78053487D01*
X110441048Y-78052189D01*
X110434312Y-78044981D01*
X110428565Y-78028800D01*
X110423105Y-78000686D01*
X110417236Y-77957681D01*
X110410259Y-77896825D01*
X110401494Y-77816872D01*
X110391984Y-77729883D01*
X110384408Y-77660204D01*
X110378562Y-77605886D01*
X110374239Y-77564978D01*
X110371234Y-77535530D01*
X110369343Y-77515592D01*
X110368358Y-77503214D01*
X110368076Y-77496446D01*
X110363858Y-77486485D01*
X110346535Y-77475865D01*
X110336832Y-77473947D01*
X110328721Y-77478600D01*
X110330695Y-77498146D01*
X110331454Y-77502518D01*
X110334834Y-77527226D01*
X110339771Y-77567549D01*
X110345871Y-77619851D01*
X110352736Y-77680496D01*
X110359971Y-77745848D01*
X110367180Y-77812269D01*
X110373966Y-77876123D01*
X110379934Y-77933774D01*
X110384687Y-77981586D01*
X110387829Y-78015920D01*
X110388964Y-78033142D01*
X110384129Y-78045010D01*
X110365234Y-78056997D01*
X110328911Y-78069518D01*
X110304007Y-78076580D01*
X110176013Y-78107691D01*
X110039192Y-78133392D01*
X109903314Y-78151795D01*
X109789698Y-78160814D01*
X109641719Y-78164389D01*
X109492353Y-78159695D01*
X109346874Y-78147071D01*
X109210557Y-78126855D01*
X109088676Y-78099387D01*
X108972594Y-78063634D01*
X108844262Y-78012338D01*
X108731792Y-77952375D01*
X108632969Y-77882530D01*
X108545576Y-77801588D01*
X108524239Y-77778195D01*
X108454257Y-77684379D01*
X108403834Y-77585238D01*
X108373360Y-77481681D01*
X108363223Y-77374621D01*
X108363924Y-77343653D01*
X108374236Y-77261079D01*
X108398458Y-77187734D01*
X108438643Y-77118611D01*
X108496845Y-77048702D01*
X108528526Y-77016757D01*
X108574398Y-76976465D01*
X108624975Y-76939446D01*
X108682847Y-76904293D01*
X108750601Y-76869600D01*
X108830828Y-76833960D01*
X108926116Y-76795968D01*
X109039054Y-76754217D01*
X109059862Y-76746705D01*
X109164460Y-76707784D01*
X109251126Y-76673091D01*
X109321749Y-76641562D01*
X109378214Y-76612132D01*
X109422409Y-76583738D01*
X109456219Y-76555315D01*
X109481532Y-76525800D01*
X109500234Y-76494128D01*
X109518081Y-76440530D01*
X109519905Y-76379016D01*
X109502839Y-76319361D01*
X109467890Y-76263698D01*
X109416066Y-76214158D01*
X109348374Y-76172873D01*
X109329933Y-76165045D01*
X109280916Y-76149361D01*
X109221281Y-76134739D01*
X109157852Y-76122575D01*
X109097450Y-76114266D01*
X109046900Y-76111206D01*
X109021743Y-76111940D01*
X108945255Y-76120830D01*
X108867629Y-76138065D01*
X108799692Y-76161447D01*
X108742277Y-76193465D01*
X108682774Y-76247472D01*
X108636831Y-76316140D01*
X108605302Y-76398129D01*
X108589042Y-76492097D01*
X108584665Y-76544317D01*
X108476350Y-76544317D01*
X108368035Y-76544317D01*
X108335612Y-76319769D01*
X108332891Y-76300909D01*
X108322940Y-76231599D01*
X108313724Y-76166940D01*
X108305811Y-76110937D01*
X108299766Y-76067595D01*
X108296157Y-76040919D01*
X108289125Y-75986616D01*
X108365134Y-75963807D01*
X108418656Y-75949087D01*
X108556031Y-75921233D01*
X108705008Y-75903099D01*
X108861236Y-75894582D01*
X109020365Y-75895582D01*
G37*
G36*
X106836137Y-75933800D02*
G01*
X106846619Y-75938360D01*
X106853459Y-75951265D01*
X106858408Y-75976675D01*
X106863218Y-76018750D01*
X106869315Y-76078052D01*
X106809259Y-76085053D01*
X106802399Y-76085915D01*
X106742775Y-76098660D01*
X106690125Y-76118849D01*
X106649082Y-76144285D01*
X106624277Y-76172772D01*
X106621279Y-76179718D01*
X106611678Y-76207535D01*
X106598370Y-76250589D01*
X106582351Y-76305504D01*
X106564618Y-76368901D01*
X106546169Y-76437403D01*
X106540120Y-76460269D01*
X106520536Y-76533968D01*
X106501347Y-76605718D01*
X106483781Y-76670957D01*
X106469065Y-76725120D01*
X106458427Y-76763643D01*
X106456212Y-76771581D01*
X106444310Y-76815019D01*
X106427321Y-76877919D01*
X106405403Y-76959688D01*
X106378714Y-77059731D01*
X106347412Y-77177454D01*
X106311656Y-77312264D01*
X106271602Y-77463566D01*
X106227410Y-77630767D01*
X106179236Y-77813273D01*
X106167075Y-77859547D01*
X106149673Y-77926389D01*
X106134405Y-77985783D01*
X106122082Y-78034544D01*
X106113512Y-78069487D01*
X106109506Y-78087430D01*
X106104521Y-78116151D01*
X105813952Y-78116151D01*
X105808543Y-78116149D01*
X105731771Y-78115764D01*
X105661038Y-78114765D01*
X105599312Y-78113243D01*
X105549564Y-78111290D01*
X105514764Y-78108997D01*
X105497881Y-78106455D01*
X105491554Y-78102596D01*
X105476306Y-78086577D01*
X105455173Y-78057645D01*
X105427222Y-78014392D01*
X105391520Y-77955411D01*
X105347131Y-77879296D01*
X105313169Y-77820328D01*
X105214388Y-77648770D01*
X105123513Y-77490881D01*
X105038627Y-77343319D01*
X104957809Y-77202745D01*
X104879139Y-77065819D01*
X104800698Y-76929202D01*
X104720567Y-76789555D01*
X104636825Y-76643536D01*
X104633395Y-76637555D01*
X104582262Y-76548796D01*
X104533567Y-76464982D01*
X104488437Y-76388002D01*
X104447996Y-76319745D01*
X104413370Y-76262097D01*
X104385684Y-76216948D01*
X104366063Y-76186186D01*
X104355633Y-76171699D01*
X104345915Y-76162602D01*
X104303426Y-76134717D01*
X104246444Y-76109544D01*
X104179819Y-76089352D01*
X104160864Y-76084436D01*
X104134383Y-76076264D01*
X104121203Y-76070303D01*
X104118236Y-76063835D01*
X104112803Y-76041030D01*
X104107774Y-76008948D01*
X104100880Y-75954007D01*
X104558183Y-75956728D01*
X105015486Y-75959449D01*
X105028243Y-76006447D01*
X105041000Y-76053445D01*
X105034873Y-75993392D01*
X105033361Y-75977330D01*
X105032385Y-75949889D01*
X105035984Y-75936726D01*
X105044911Y-75933339D01*
X105045827Y-75933351D01*
X105056887Y-75937077D01*
X105065047Y-75950084D01*
X105071819Y-75976218D01*
X105078715Y-76019328D01*
X105081152Y-76036565D01*
X105083893Y-76063838D01*
X105080440Y-76077718D01*
X105068139Y-76083339D01*
X105044335Y-76085839D01*
X105031223Y-76087064D01*
X104950480Y-76099374D01*
X104889568Y-76118185D01*
X104848466Y-76143508D01*
X104827154Y-76175358D01*
X104825609Y-76213745D01*
X104825612Y-76213760D01*
X104832276Y-76232121D01*
X104847231Y-76265375D01*
X104868807Y-76310062D01*
X104895333Y-76362722D01*
X104925138Y-76419894D01*
X104936328Y-76441057D01*
X104968257Y-76501791D01*
X105006788Y-76575452D01*
X105049863Y-76658086D01*
X105095422Y-76745741D01*
X105141408Y-76834465D01*
X105185762Y-76920304D01*
X105196573Y-76941265D01*
X105262290Y-77068725D01*
X105319179Y-77179060D01*
X105367931Y-77273495D01*
X105409237Y-77353258D01*
X105443786Y-77419575D01*
X105472270Y-77473673D01*
X105495379Y-77516780D01*
X105513803Y-77550121D01*
X105528234Y-77574923D01*
X105539362Y-77592414D01*
X105547878Y-77603820D01*
X105554472Y-77610368D01*
X105559834Y-77613285D01*
X105564656Y-77613797D01*
X105569628Y-77613130D01*
X105575441Y-77612513D01*
X105592777Y-77611073D01*
X105602428Y-77603423D01*
X105600384Y-77583638D01*
X105599820Y-77579793D01*
X105599742Y-77567589D01*
X105601353Y-77548955D01*
X105604866Y-77522818D01*
X105610497Y-77488103D01*
X105618461Y-77443734D01*
X105628973Y-77388637D01*
X105642248Y-77321737D01*
X105658500Y-77241959D01*
X105677946Y-77148229D01*
X105700799Y-77039471D01*
X105727274Y-76914611D01*
X105757587Y-76772574D01*
X105791953Y-76612285D01*
X105830587Y-76432670D01*
X105838094Y-76397592D01*
X105854131Y-76320132D01*
X105865545Y-76259652D01*
X105872581Y-76213765D01*
X105875483Y-76180086D01*
X105874498Y-76156229D01*
X105869870Y-76139807D01*
X105861845Y-76128435D01*
X105848399Y-76119621D01*
X105813000Y-76106846D01*
X105761572Y-76094964D01*
X105697002Y-76084742D01*
X105671132Y-76080787D01*
X105654854Y-76074174D01*
X105645184Y-76060413D01*
X105638959Y-76034990D01*
X105633019Y-75993392D01*
X105627777Y-75954227D01*
X106223050Y-75954227D01*
X106317997Y-75954153D01*
X106449826Y-75953740D01*
X106561406Y-75952969D01*
X106652631Y-75951839D01*
X106723397Y-75950354D01*
X106773595Y-75948515D01*
X106803121Y-75946324D01*
X106811867Y-75943783D01*
X106812598Y-75937308D01*
X106827245Y-75933339D01*
X106836137Y-75933800D01*
G37*
G36*
X103156079Y-77531741D02*
G01*
X103164466Y-77539213D01*
X103167259Y-77557587D01*
X103164304Y-77589124D01*
X103155449Y-77636085D01*
X103140539Y-77700730D01*
X103136889Y-77715849D01*
X103122492Y-77777564D01*
X103113218Y-77822893D01*
X103108770Y-77854962D01*
X103108855Y-77876896D01*
X103113176Y-77891819D01*
X103121439Y-77902855D01*
X103134863Y-77911019D01*
X103170827Y-77922373D01*
X103225898Y-77933438D01*
X103299036Y-77943972D01*
X103311278Y-77945580D01*
X103332119Y-77950269D01*
X103345656Y-77959705D01*
X103354287Y-77977892D01*
X103360406Y-78008833D01*
X103366412Y-78056534D01*
X103369004Y-78085233D01*
X103367919Y-78108807D01*
X103361278Y-78116151D01*
X103360483Y-78116121D01*
X103346601Y-78104616D01*
X103334538Y-78072393D01*
X103324328Y-78019543D01*
X103321200Y-78003051D01*
X103313231Y-77979194D01*
X103304628Y-77969727D01*
X103304405Y-77969722D01*
X103287841Y-77968149D01*
X103257259Y-77964376D01*
X103219104Y-77959194D01*
X103218641Y-77959129D01*
X103160448Y-77949389D01*
X103118388Y-77937135D01*
X103090804Y-77919461D01*
X103076039Y-77893461D01*
X103072436Y-77856229D01*
X103078338Y-77804859D01*
X103092088Y-77736445D01*
X103096122Y-77718140D01*
X103111207Y-77651098D01*
X103123056Y-77601599D01*
X103132366Y-77567255D01*
X103139834Y-77545679D01*
X103146158Y-77534484D01*
X103152036Y-77531283D01*
X103156079Y-77531741D01*
G37*
G36*
X104328892Y-77296705D02*
G01*
X104394528Y-77407220D01*
X104451387Y-77502767D01*
X104500096Y-77584386D01*
X104541281Y-77653122D01*
X104575568Y-77710014D01*
X104603584Y-77756107D01*
X104625954Y-77792441D01*
X104643304Y-77820059D01*
X104656261Y-77840003D01*
X104665452Y-77853315D01*
X104666961Y-77855352D01*
X104706069Y-77893625D01*
X104759429Y-77927079D01*
X104820772Y-77952463D01*
X104883831Y-77966528D01*
X104904133Y-77969357D01*
X104929865Y-77974544D01*
X104941488Y-77979258D01*
X104943436Y-77985700D01*
X104947789Y-78008432D01*
X104952607Y-78040431D01*
X104960003Y-78095263D01*
X104511045Y-78095263D01*
X104434582Y-78095229D01*
X104337558Y-78095025D01*
X104258437Y-78094583D01*
X104195436Y-78093843D01*
X104146772Y-78092744D01*
X104110663Y-78091224D01*
X104085326Y-78089223D01*
X104068979Y-78086680D01*
X104059840Y-78083534D01*
X104056124Y-78079724D01*
X104054054Y-78072848D01*
X104048675Y-78047123D01*
X104043522Y-78014137D01*
X104036883Y-77964089D01*
X104106356Y-77952189D01*
X104154774Y-77942372D01*
X104191597Y-77929918D01*
X104215000Y-77913045D01*
X104225258Y-77889613D01*
X104222646Y-77857483D01*
X104207438Y-77814515D01*
X104179908Y-77758572D01*
X104140333Y-77687512D01*
X104120342Y-77652737D01*
X104091763Y-77603284D01*
X104067205Y-77561095D01*
X104048780Y-77529794D01*
X104038602Y-77513005D01*
X104023495Y-77489506D01*
X103567966Y-77489506D01*
X103112437Y-77489506D01*
X103079430Y-77627890D01*
X103061639Y-77703912D01*
X103046380Y-77773358D01*
X103036037Y-77826905D01*
X103030230Y-77866793D01*
X103028577Y-77895265D01*
X103030697Y-77914563D01*
X103031641Y-77917785D01*
X103047813Y-77939887D01*
X103080547Y-77956958D01*
X103131185Y-77969499D01*
X103201067Y-77978008D01*
X103292213Y-77985600D01*
X103299194Y-78042807D01*
X103301557Y-78066232D01*
X103302774Y-78093972D01*
X103301189Y-78108082D01*
X103295128Y-78109295D01*
X103270309Y-78110808D01*
X103228442Y-78112126D01*
X103171758Y-78113249D01*
X103102489Y-78114179D01*
X103022866Y-78114915D01*
X102935121Y-78115460D01*
X102841485Y-78115815D01*
X102744189Y-78115980D01*
X102645465Y-78115958D01*
X102547546Y-78115748D01*
X102452661Y-78115352D01*
X102363043Y-78114771D01*
X102280923Y-78114007D01*
X102208533Y-78113060D01*
X102148104Y-78111931D01*
X102101868Y-78110622D01*
X102072055Y-78109133D01*
X102060899Y-78107467D01*
X102057320Y-78094076D01*
X102052781Y-78065807D01*
X102048396Y-78029136D01*
X102041261Y-77959490D01*
X102072139Y-77959490D01*
X102078739Y-77959289D01*
X102119580Y-77952994D01*
X102167062Y-77939986D01*
X102212034Y-77923127D01*
X102245351Y-77905279D01*
X102269456Y-77882994D01*
X102289397Y-77855404D01*
X102290221Y-77853532D01*
X102296692Y-77833490D01*
X102307438Y-77795673D01*
X102321921Y-77742137D01*
X102339606Y-77674934D01*
X102359957Y-77596117D01*
X102382438Y-77507741D01*
X102406512Y-77411859D01*
X102431643Y-77310525D01*
X102446471Y-77250484D01*
X102446767Y-77249293D01*
X103163617Y-77249293D01*
X103470739Y-77249293D01*
X103531685Y-77249163D01*
X103618411Y-77248394D01*
X103687104Y-77246954D01*
X103737051Y-77244867D01*
X103767541Y-77242157D01*
X103777862Y-77238848D01*
X103783016Y-77232309D01*
X103801361Y-77228262D01*
X103817571Y-77227218D01*
X103847830Y-77221960D01*
X103851350Y-77220976D01*
X103859794Y-77216903D01*
X103862077Y-77208934D01*
X103857250Y-77193453D01*
X103844360Y-77166846D01*
X103822458Y-77125495D01*
X103819910Y-77120758D01*
X103801116Y-77086415D01*
X103774016Y-77037531D01*
X103740312Y-76977128D01*
X103701706Y-76908227D01*
X103659900Y-76833849D01*
X103616596Y-76757015D01*
X103573498Y-76680745D01*
X103532306Y-76608062D01*
X103494723Y-76541986D01*
X103462452Y-76485538D01*
X103437194Y-76441739D01*
X103419617Y-76410348D01*
X103406778Y-76385195D01*
X103401875Y-76372459D01*
X103398394Y-76366767D01*
X103382039Y-76358795D01*
X103375498Y-76357905D01*
X103367309Y-76362130D01*
X103360375Y-76376348D01*
X103353212Y-76404109D01*
X103344336Y-76448962D01*
X103342123Y-76460571D01*
X103329980Y-76520307D01*
X103315821Y-76585345D01*
X103302272Y-76643536D01*
X103301408Y-76647095D01*
X103291175Y-76690416D01*
X103277800Y-76748596D01*
X103262418Y-76816614D01*
X103246166Y-76889449D01*
X103230181Y-76962080D01*
X103225825Y-76981992D01*
X103211280Y-77047966D01*
X103197910Y-77107877D01*
X103186524Y-77158137D01*
X103177934Y-77195157D01*
X103172951Y-77215349D01*
X103163617Y-77249293D01*
X102446767Y-77249293D01*
X102477488Y-77125499D01*
X102510461Y-76993324D01*
X102544239Y-76858541D01*
X102577670Y-76725728D01*
X102609602Y-76599468D01*
X102638884Y-76484339D01*
X102664365Y-76384922D01*
X102770009Y-75974868D01*
X103263285Y-75968320D01*
X103263722Y-75968314D01*
X103383212Y-75966839D01*
X103483365Y-75965871D01*
X103565723Y-75965429D01*
X103631825Y-75965532D01*
X103683213Y-75966202D01*
X103721427Y-75967458D01*
X103748008Y-75969320D01*
X103764497Y-75971809D01*
X103772434Y-75974944D01*
X103773033Y-75975466D01*
X103783840Y-75995179D01*
X103788306Y-76023269D01*
X103788229Y-76031066D01*
X103785073Y-76050036D01*
X103772935Y-76059468D01*
X103745918Y-76065199D01*
X103737670Y-76066661D01*
X103693542Y-76082016D01*
X103667422Y-76107491D01*
X103658867Y-76143486D01*
X103658924Y-76145685D01*
X103664034Y-76169318D01*
X103678191Y-76202942D01*
X103702488Y-76248848D01*
X103738019Y-76309325D01*
X103771520Y-76364655D01*
X103888066Y-76557600D01*
X103994775Y-76735019D01*
X104091219Y-76896195D01*
X104176965Y-77040411D01*
X104253853Y-77170180D01*
X104276837Y-77208934D01*
X104328892Y-77296705D01*
G37*
G36*
X108120848Y-75985196D02*
G01*
X108127231Y-76027598D01*
X108133619Y-76074859D01*
X108036926Y-76088028D01*
X108001509Y-76093377D01*
X107951737Y-76104246D01*
X107917393Y-76118050D01*
X107894962Y-76136434D01*
X107880930Y-76161043D01*
X107880216Y-76162922D01*
X107877003Y-76173584D01*
X107874969Y-76186684D01*
X107874303Y-76204253D01*
X107875193Y-76228316D01*
X107877827Y-76260902D01*
X107882394Y-76304038D01*
X107889080Y-76359753D01*
X107898075Y-76430075D01*
X107909566Y-76517030D01*
X107923741Y-76622648D01*
X107931867Y-76683180D01*
X107946121Y-76790211D01*
X107961267Y-76904786D01*
X107976376Y-77019847D01*
X107990517Y-77128333D01*
X108002763Y-77223182D01*
X108018458Y-77345407D01*
X108033535Y-77461675D01*
X108046653Y-77560235D01*
X108058181Y-77642664D01*
X108068486Y-77710541D01*
X108077936Y-77765443D01*
X108086900Y-77808948D01*
X108095746Y-77842633D01*
X108104841Y-77868076D01*
X108114555Y-77886854D01*
X108125254Y-77900545D01*
X108137307Y-77910727D01*
X108151082Y-77918978D01*
X108166947Y-77926875D01*
X108178634Y-77931976D01*
X108228587Y-77946474D01*
X108285714Y-77954411D01*
X108357591Y-77959248D01*
X108287197Y-77945819D01*
X108256442Y-77938958D01*
X108204585Y-77919815D01*
X108167474Y-77892414D01*
X108141310Y-77854375D01*
X108139943Y-77851381D01*
X108131203Y-77822825D01*
X108120896Y-77774723D01*
X108108989Y-77706863D01*
X108095450Y-77619035D01*
X108080245Y-77511027D01*
X108063342Y-77382628D01*
X108044709Y-77233626D01*
X108036674Y-77168237D01*
X108024414Y-77069801D01*
X108012980Y-76980124D01*
X108001595Y-76893321D01*
X107989482Y-76803508D01*
X107975865Y-76704801D01*
X107959968Y-76591316D01*
X107951319Y-76529697D01*
X107939572Y-76444888D01*
X107930483Y-76377208D01*
X107923815Y-76324466D01*
X107919331Y-76284472D01*
X107916794Y-76255034D01*
X107915966Y-76233964D01*
X107916612Y-76219071D01*
X107918494Y-76208164D01*
X107920777Y-76200003D01*
X107928152Y-76188949D01*
X107940258Y-76194798D01*
X107949934Y-76201058D01*
X107955494Y-76196087D01*
X107959800Y-76185519D01*
X107980113Y-76172858D01*
X108018410Y-76161614D01*
X108076142Y-76151251D01*
X108086132Y-76149742D01*
X108124251Y-76142937D01*
X108147983Y-76135479D01*
X108162639Y-76125088D01*
X108173536Y-76109487D01*
X108181972Y-76095754D01*
X108195539Y-76081575D01*
X108203569Y-76087480D01*
X108206294Y-76113499D01*
X108206323Y-76115015D01*
X108208185Y-76137947D01*
X108212605Y-76177283D01*
X108219111Y-76229242D01*
X108227233Y-76290041D01*
X108236498Y-76355895D01*
X108243088Y-76401413D01*
X108251982Y-76460975D01*
X108259245Y-76504760D01*
X108265679Y-76535808D01*
X108272087Y-76557163D01*
X108279273Y-76571868D01*
X108288038Y-76582966D01*
X108299186Y-76593498D01*
X108300336Y-76594524D01*
X108314317Y-76606219D01*
X108328028Y-76614110D01*
X108345702Y-76618937D01*
X108371568Y-76621437D01*
X108409860Y-76622351D01*
X108464807Y-76622416D01*
X108520838Y-76621769D01*
X108567286Y-76619087D01*
X108600008Y-76613233D01*
X108622780Y-76603065D01*
X108639375Y-76587437D01*
X108653569Y-76565205D01*
X108660218Y-76554024D01*
X108664373Y-76553986D01*
X108665374Y-76573038D01*
X108665009Y-76581854D01*
X108652833Y-76614338D01*
X108623100Y-76638447D01*
X108575342Y-76654354D01*
X108509095Y-76662229D01*
X108423891Y-76662246D01*
X108379730Y-76660067D01*
X108335233Y-76655472D01*
X108300671Y-76646598D01*
X108274239Y-76631095D01*
X108254133Y-76606616D01*
X108238551Y-76570814D01*
X108225688Y-76521340D01*
X108213741Y-76455848D01*
X108200906Y-76371990D01*
X108193296Y-76321193D01*
X108184784Y-76265964D01*
X108177483Y-76220288D01*
X108171986Y-76187873D01*
X108168889Y-76172423D01*
X108166757Y-76167355D01*
X108159685Y-76162559D01*
X108144721Y-76162669D01*
X108117799Y-76167953D01*
X108074852Y-76178682D01*
X108058340Y-76183115D01*
X108018816Y-76195079D01*
X107988620Y-76206132D01*
X107973256Y-76214343D01*
X107970499Y-76218052D01*
X107965338Y-76235063D01*
X107963225Y-76263814D01*
X107964263Y-76305778D01*
X107968550Y-76362424D01*
X107976186Y-76435224D01*
X107987273Y-76525649D01*
X108001910Y-76635170D01*
X108004032Y-76650614D01*
X108020126Y-76768723D01*
X108036608Y-76891274D01*
X108053072Y-77015124D01*
X108069109Y-77137133D01*
X108084309Y-77254159D01*
X108098265Y-77363062D01*
X108110569Y-77460699D01*
X108120812Y-77543930D01*
X108128586Y-77609613D01*
X108132753Y-77645034D01*
X108142806Y-77719907D01*
X108153267Y-77777714D01*
X108165252Y-77821163D01*
X108179880Y-77852959D01*
X108198270Y-77875809D01*
X108221537Y-77892418D01*
X108250801Y-77905494D01*
X108270686Y-77912366D01*
X108315929Y-77925267D01*
X108356221Y-77933720D01*
X108360094Y-77934300D01*
X108385605Y-77938880D01*
X108401279Y-77946229D01*
X108410030Y-77960857D01*
X108414773Y-77987273D01*
X108418421Y-78029987D01*
X108423497Y-78095263D01*
X107804044Y-78095263D01*
X107184592Y-78095263D01*
X107177634Y-78040431D01*
X107174891Y-78020124D01*
X107169916Y-77988374D01*
X107165898Y-77968556D01*
X107166848Y-77958019D01*
X107180477Y-77950368D01*
X107211041Y-77944517D01*
X107231052Y-77941435D01*
X107284549Y-77930374D01*
X107329914Y-77916977D01*
X107362922Y-77902644D01*
X107379348Y-77888773D01*
X107381117Y-77885173D01*
X107389170Y-77862621D01*
X107393687Y-77834550D01*
X107394626Y-77797953D01*
X107391948Y-77749823D01*
X107385611Y-77687156D01*
X107375577Y-77606943D01*
X107364404Y-77522425D01*
X107339373Y-77332951D01*
X107316855Y-77162323D01*
X107296677Y-77009228D01*
X107278666Y-76872352D01*
X107262651Y-76750382D01*
X107248457Y-76642002D01*
X107235913Y-76545901D01*
X107224845Y-76460765D01*
X107217021Y-76400893D01*
X107206334Y-76321839D01*
X107197244Y-76259785D01*
X107189235Y-76212437D01*
X107181791Y-76177500D01*
X107174397Y-76152680D01*
X107166537Y-76135685D01*
X107157697Y-76124219D01*
X107147360Y-76115990D01*
X107143304Y-76113761D01*
X107117419Y-76104932D01*
X107079258Y-76096250D01*
X107035518Y-76089313D01*
X107020529Y-76087348D01*
X106982045Y-76081376D01*
X106953790Y-76075627D01*
X106941032Y-76071114D01*
X106938224Y-76064487D01*
X106933455Y-76041343D01*
X106929510Y-76009058D01*
X106926936Y-75980337D01*
X108070379Y-75980337D01*
X108075601Y-75985559D01*
X108080823Y-75980337D01*
X108075601Y-75975115D01*
X108070379Y-75980337D01*
X106926936Y-75980337D01*
X106924596Y-75954227D01*
X107494876Y-75954084D01*
X107554568Y-75954036D01*
X107659433Y-75953789D01*
X107757362Y-75953351D01*
X107846361Y-75952745D01*
X107924436Y-75951991D01*
X107989596Y-75951109D01*
X108039847Y-75950121D01*
X108073195Y-75949046D01*
X108087649Y-75947907D01*
X108095257Y-75946294D01*
X108106672Y-75948192D01*
X108114599Y-75959943D01*
X108119646Y-75980337D01*
X108120848Y-75985196D01*
G37*
G36*
X103888166Y-76103733D02*
G01*
X103871377Y-76118101D01*
X103842859Y-76133746D01*
X103806723Y-76147964D01*
X103784089Y-76155508D01*
X103759369Y-76164206D01*
X103748412Y-76168726D01*
X103747964Y-76170367D01*
X103752265Y-76183332D01*
X103764950Y-76209258D01*
X103786409Y-76248822D01*
X103817028Y-76302699D01*
X103857196Y-76371566D01*
X103907301Y-76456099D01*
X103967731Y-76556975D01*
X104038874Y-76674868D01*
X104060924Y-76711456D01*
X104092650Y-76764328D01*
X104132137Y-76830291D01*
X104177914Y-76906879D01*
X104228508Y-76991626D01*
X104282447Y-77082069D01*
X104338258Y-77175742D01*
X104394468Y-77270181D01*
X104413980Y-77302980D01*
X104479619Y-77413317D01*
X104535662Y-77507451D01*
X104582975Y-77586750D01*
X104622425Y-77652582D01*
X104654879Y-77706316D01*
X104681201Y-77749319D01*
X104702260Y-77782960D01*
X104718920Y-77808608D01*
X104732049Y-77827630D01*
X104742512Y-77841395D01*
X104751177Y-77851270D01*
X104758909Y-77858626D01*
X104766574Y-77864828D01*
X104775040Y-77871247D01*
X104800727Y-77886616D01*
X104843648Y-77905331D01*
X104892489Y-77922024D01*
X104939242Y-77934010D01*
X104975895Y-77938602D01*
X104987649Y-77939938D01*
X104997264Y-77947002D01*
X105003965Y-77963590D01*
X105009177Y-77993476D01*
X105014324Y-78040431D01*
X105015695Y-78061893D01*
X105014703Y-78085917D01*
X105010475Y-78095263D01*
X105006733Y-78094364D01*
X104999030Y-78084256D01*
X104991651Y-78060177D01*
X104983393Y-78018719D01*
X104978243Y-77997405D01*
X104968550Y-77981180D01*
X104950557Y-77969521D01*
X104920150Y-77959846D01*
X104873214Y-77949571D01*
X104852144Y-77944254D01*
X104806418Y-77927682D01*
X104767294Y-77907767D01*
X104758632Y-77902204D01*
X104749158Y-77895509D01*
X104739626Y-77887408D01*
X104729216Y-77876632D01*
X104717109Y-77861908D01*
X104702483Y-77841967D01*
X104684520Y-77815536D01*
X104662398Y-77781346D01*
X104635299Y-77738124D01*
X104602401Y-77684600D01*
X104562885Y-77619503D01*
X104515931Y-77541561D01*
X104460718Y-77449504D01*
X104396428Y-77342061D01*
X104322238Y-77217960D01*
X104303596Y-77186779D01*
X104252878Y-77102014D01*
X104203868Y-77020197D01*
X104158068Y-76943826D01*
X104116975Y-76875398D01*
X104082090Y-76817411D01*
X104054914Y-76772364D01*
X104036944Y-76742755D01*
X104028151Y-76728321D01*
X103998477Y-76679190D01*
X103963985Y-76621596D01*
X103926403Y-76558473D01*
X103887457Y-76492750D01*
X103848874Y-76427361D01*
X103812383Y-76365236D01*
X103779711Y-76309307D01*
X103752584Y-76262506D01*
X103732730Y-76227764D01*
X103721877Y-76208014D01*
X103720612Y-76205488D01*
X103710070Y-76178216D01*
X103705217Y-76153998D01*
X103706601Y-76138337D01*
X103714770Y-76136734D01*
X103722272Y-76137691D01*
X103746657Y-76134105D01*
X103781487Y-76125537D01*
X103821180Y-76113426D01*
X103860153Y-76099213D01*
X103877603Y-76093719D01*
X103889372Y-76093587D01*
X103888166Y-76103733D01*
G37*
G36*
X103952333Y-77575841D02*
G01*
X103967501Y-77593679D01*
X103989758Y-77625734D01*
X104017292Y-77669328D01*
X104048291Y-77721785D01*
X104061314Y-77744530D01*
X104089159Y-77793884D01*
X104107949Y-77829076D01*
X104118838Y-77852878D01*
X104122979Y-77868063D01*
X104121525Y-77877402D01*
X104115629Y-77883668D01*
X104099989Y-77893498D01*
X104086386Y-77894414D01*
X104083282Y-77878548D01*
X104083081Y-77876209D01*
X104076362Y-77856779D01*
X104061578Y-77824141D01*
X104040588Y-77782220D01*
X104015252Y-77734942D01*
X103989639Y-77688446D01*
X103965009Y-77642909D01*
X103948804Y-77611183D01*
X103939994Y-77590803D01*
X103937548Y-77579300D01*
X103940435Y-77574208D01*
X103947624Y-77573059D01*
X103952333Y-77575841D01*
G37*
G36*
X102660501Y-75925938D02*
G01*
X102662598Y-75936817D01*
X102660675Y-75959518D01*
X102654478Y-75995427D01*
X102643755Y-76045931D01*
X102628255Y-76112417D01*
X102607726Y-76196271D01*
X102581916Y-76298881D01*
X102577630Y-76315783D01*
X102556433Y-76399675D01*
X102531307Y-76499497D01*
X102503136Y-76611725D01*
X102472801Y-76732833D01*
X102441183Y-76859298D01*
X102409167Y-76987595D01*
X102377633Y-77114200D01*
X102347464Y-77235587D01*
X102325782Y-77322598D01*
X102299816Y-77425904D01*
X102275418Y-77521997D01*
X102253076Y-77609012D01*
X102233277Y-77685078D01*
X102216507Y-77748330D01*
X102203254Y-77796898D01*
X102194004Y-77828916D01*
X102189244Y-77842514D01*
X102173806Y-77860343D01*
X102149584Y-77879441D01*
X102122444Y-77893713D01*
X102108836Y-77895314D01*
X102111018Y-77884681D01*
X102130238Y-77862882D01*
X102146146Y-77845435D01*
X102167026Y-77809952D01*
X102183124Y-77761052D01*
X102184200Y-77756856D01*
X102191329Y-77728624D01*
X102202777Y-77682911D01*
X102217993Y-77621933D01*
X102236424Y-77547910D01*
X102257519Y-77463061D01*
X102280726Y-77369604D01*
X102305491Y-77269757D01*
X102331264Y-77165740D01*
X102365983Y-77025659D01*
X102412036Y-76840287D01*
X102453458Y-76674141D01*
X102490411Y-76526585D01*
X102523060Y-76396983D01*
X102551568Y-76284698D01*
X102576098Y-76189094D01*
X102596815Y-76109535D01*
X102613881Y-76045385D01*
X102627461Y-75996007D01*
X102637717Y-75960766D01*
X102644814Y-75939025D01*
X102648915Y-75930148D01*
X102654633Y-75925495D01*
X102660501Y-75925938D01*
G37*
G36*
X110048403Y-77373346D02*
G01*
X110039318Y-77392743D01*
X110033887Y-77405195D01*
X110022020Y-77437247D01*
X110007673Y-77479798D01*
X109992853Y-77527046D01*
X109992748Y-77527395D01*
X109975099Y-77581704D01*
X109958553Y-77621628D01*
X109940146Y-77653234D01*
X109916917Y-77682588D01*
X109895185Y-77705689D01*
X109865343Y-77733525D01*
X109841060Y-77752061D01*
X109830105Y-77758635D01*
X109810246Y-77769228D01*
X109806700Y-77767911D01*
X109819555Y-77754418D01*
X109848899Y-77728484D01*
X109870989Y-77707709D01*
X109910590Y-77657123D01*
X109942786Y-77593866D01*
X109969836Y-77513931D01*
X109983532Y-77466830D01*
X109996704Y-77427096D01*
X110008231Y-77400988D01*
X110019768Y-77384869D01*
X110032969Y-77375101D01*
X110046388Y-77368826D01*
X110048403Y-77373346D01*
G37*
G36*
X110281702Y-76702201D02*
G01*
X110284523Y-76726158D01*
X110284460Y-76730168D01*
X110276710Y-76779326D01*
X110257801Y-76836847D01*
X110230295Y-76896181D01*
X110196751Y-76950777D01*
X110188143Y-76962485D01*
X110139501Y-77018208D01*
X110079423Y-77071251D01*
X110006366Y-77122522D01*
X109918784Y-77172926D01*
X109815132Y-77223368D01*
X109693865Y-77274756D01*
X109553438Y-77327994D01*
X109550653Y-77329002D01*
X109460391Y-77362154D01*
X109387417Y-77390150D01*
X109329193Y-77414157D01*
X109283180Y-77435342D01*
X109246838Y-77454871D01*
X109217629Y-77473912D01*
X109193013Y-77493631D01*
X109185564Y-77500203D01*
X109162765Y-77519988D01*
X109151054Y-77528650D01*
X109146737Y-77528374D01*
X109146119Y-77521341D01*
X109146333Y-77519446D01*
X109156922Y-77502011D01*
X109180240Y-77478180D01*
X109211820Y-77451742D01*
X109247193Y-77426486D01*
X109281892Y-77406201D01*
X109285606Y-77404383D01*
X109316269Y-77390858D01*
X109361873Y-77372246D01*
X109418407Y-77350121D01*
X109481859Y-77326058D01*
X109548216Y-77301633D01*
X109593664Y-77284978D01*
X109709385Y-77240315D01*
X109808011Y-77198216D01*
X109892000Y-77157321D01*
X109963807Y-77116265D01*
X110025888Y-77073688D01*
X110080698Y-77028226D01*
X110130694Y-76978518D01*
X110167501Y-76933861D01*
X110209443Y-76868599D01*
X110240853Y-76801870D01*
X110258267Y-76740144D01*
X110258880Y-76736543D01*
X110266444Y-76708691D01*
X110274863Y-76696811D01*
X110281702Y-76702201D01*
G37*
G36*
X104867740Y-76184854D02*
G01*
X104883074Y-76207846D01*
X104902979Y-76242650D01*
X104925312Y-76285760D01*
X104938145Y-76311285D01*
X104961595Y-76357191D01*
X104992470Y-76417133D01*
X105029502Y-76488671D01*
X105071427Y-76569363D01*
X105116978Y-76656771D01*
X105164890Y-76748455D01*
X105213896Y-76841973D01*
X105230162Y-76872978D01*
X105288632Y-76984616D01*
X105338228Y-77079695D01*
X105379703Y-77159715D01*
X105413810Y-77226177D01*
X105441300Y-77280580D01*
X105462927Y-77324425D01*
X105479441Y-77359213D01*
X105491596Y-77386442D01*
X105500143Y-77407615D01*
X105505836Y-77424231D01*
X105509758Y-77443274D01*
X105505397Y-77447755D01*
X105493331Y-77436514D01*
X105474900Y-77410837D01*
X105451444Y-77372010D01*
X105443398Y-77357725D01*
X105411849Y-77300348D01*
X105373446Y-77228901D01*
X105330058Y-77146928D01*
X105283553Y-77057975D01*
X105235798Y-76965586D01*
X105188661Y-76873306D01*
X105173919Y-76844516D01*
X105143336Y-76785680D01*
X105106656Y-76715915D01*
X105066304Y-76639804D01*
X105024704Y-76561930D01*
X104984280Y-76486875D01*
X104974033Y-76467894D01*
X104930263Y-76385414D01*
X104896597Y-76319032D01*
X104872440Y-76267282D01*
X104857198Y-76228693D01*
X104850277Y-76201797D01*
X104851083Y-76185126D01*
X104859022Y-76177211D01*
X104859116Y-76177182D01*
X104867740Y-76184854D01*
G37*
G36*
X105568978Y-75871658D02*
G01*
X105569289Y-75878264D01*
X105555176Y-75894846D01*
X105546378Y-75905566D01*
X105536399Y-75927043D01*
X105533634Y-75955223D01*
X105537910Y-75994466D01*
X105549053Y-76049134D01*
X105554311Y-76070974D01*
X105565819Y-76105460D01*
X105581718Y-76128778D01*
X105606119Y-76144108D01*
X105643131Y-76154631D01*
X105696863Y-76163527D01*
X105725239Y-76167751D01*
X105756310Y-76173492D01*
X105772880Y-76179390D01*
X105778790Y-76187090D01*
X105777884Y-76198239D01*
X105774311Y-76214504D01*
X105766719Y-76249772D01*
X105755950Y-76300177D01*
X105742475Y-76363495D01*
X105726764Y-76437502D01*
X105709284Y-76519976D01*
X105690506Y-76608694D01*
X105670899Y-76701433D01*
X105650933Y-76795969D01*
X105631075Y-76890079D01*
X105611796Y-76981540D01*
X105593566Y-77068129D01*
X105576852Y-77147623D01*
X105562125Y-77217799D01*
X105549854Y-77276434D01*
X105540508Y-77321304D01*
X105534556Y-77350187D01*
X105532467Y-77360859D01*
X105531948Y-77361837D01*
X105520807Y-77364177D01*
X105516954Y-77360062D01*
X105514366Y-77339558D01*
X105515514Y-77305626D01*
X105520035Y-77262514D01*
X105527565Y-77214469D01*
X105537744Y-77165740D01*
X105539382Y-77158783D01*
X105547570Y-77122635D01*
X105558456Y-77073199D01*
X105570814Y-77016074D01*
X105583421Y-76956858D01*
X105594986Y-76902143D01*
X105614736Y-76809059D01*
X105634890Y-76714454D01*
X105654774Y-76621464D01*
X105673714Y-76533228D01*
X105691037Y-76452882D01*
X105706069Y-76383562D01*
X105718136Y-76328407D01*
X105726563Y-76290553D01*
X105727986Y-76284179D01*
X105735210Y-76247937D01*
X105739095Y-76221186D01*
X105738827Y-76209326D01*
X105737706Y-76208651D01*
X105721745Y-76204014D01*
X105691742Y-76197490D01*
X105653044Y-76190268D01*
X105620201Y-76183629D01*
X105576973Y-76170488D01*
X105551848Y-76155798D01*
X105537071Y-76132893D01*
X105521405Y-76091452D01*
X105507405Y-76036717D01*
X105496275Y-75972648D01*
X105495170Y-75964249D01*
X105493665Y-75935335D01*
X105499746Y-75915873D01*
X105515708Y-75896928D01*
X105517996Y-75894705D01*
X105540768Y-75877661D01*
X105559923Y-75870674D01*
X105568978Y-75871658D01*
G37*
G36*
X108749244Y-76774087D02*
G01*
X108744022Y-76779309D01*
X108738800Y-76774087D01*
X108744022Y-76768865D01*
X108749244Y-76774087D01*
G37*
G36*
X108799380Y-76750145D02*
G01*
X108791020Y-76758421D01*
X108782073Y-76763345D01*
X108764910Y-76768545D01*
X108761772Y-76766696D01*
X108770132Y-76758421D01*
X108779079Y-76753497D01*
X108796242Y-76748297D01*
X108799380Y-76750145D01*
G37*
G36*
X108829315Y-76741014D02*
G01*
X108830949Y-76744155D01*
X108822352Y-76747977D01*
X108816823Y-76747223D01*
X108815390Y-76741014D01*
X108816920Y-76739764D01*
X108829315Y-76741014D01*
G37*
G36*
X109709210Y-75999075D02*
G01*
X109737257Y-76010620D01*
X109775427Y-76028794D01*
X109819302Y-76051314D01*
X109864464Y-76075895D01*
X109906495Y-76100254D01*
X109940974Y-76122107D01*
X109982197Y-76153723D01*
X110034806Y-76202451D01*
X110085281Y-76257123D01*
X110128439Y-76312051D01*
X110159099Y-76361546D01*
X110173775Y-76392451D01*
X110202083Y-76466413D01*
X110221490Y-76539586D01*
X110231290Y-76607845D01*
X110230778Y-76667067D01*
X110219248Y-76713125D01*
X110214262Y-76723180D01*
X110209443Y-76727327D01*
X110205907Y-76718525D01*
X110202802Y-76694141D01*
X110199272Y-76651541D01*
X110187890Y-76561573D01*
X110159638Y-76455287D01*
X110114925Y-76359412D01*
X110052303Y-76271017D01*
X109970330Y-76187172D01*
X109967522Y-76184660D01*
X109916392Y-76140611D01*
X109870588Y-76105606D01*
X109821951Y-76073853D01*
X109762319Y-76039562D01*
X109746221Y-76030500D01*
X109717010Y-76012936D01*
X109699586Y-76000743D01*
X109697276Y-75996141D01*
X109709210Y-75999075D01*
G37*
G36*
X108853685Y-76732311D02*
G01*
X108848463Y-76737533D01*
X108843240Y-76732311D01*
X108848463Y-76727089D01*
X108853685Y-76732311D01*
G37*
G36*
X108968569Y-76690534D02*
G01*
X108963347Y-76695756D01*
X108958125Y-76690534D01*
X108963347Y-76685312D01*
X108968569Y-76690534D01*
G37*
G36*
X108999902Y-76680090D02*
G01*
X108994680Y-76685312D01*
X108989458Y-76680090D01*
X108994680Y-76674868D01*
X108999902Y-76680090D01*
G37*
G36*
X109187895Y-76617426D02*
G01*
X109182673Y-76622648D01*
X109177451Y-76617426D01*
X109182673Y-76612204D01*
X109187895Y-76617426D01*
G37*
G36*
X109154906Y-76209605D02*
G01*
X109250560Y-76231890D01*
X109272871Y-76239757D01*
X109325429Y-76269050D01*
X109368487Y-76308372D01*
X109399323Y-76354078D01*
X109415214Y-76402522D01*
X109413441Y-76450060D01*
X109403764Y-76473062D01*
X109377168Y-76509145D01*
X109340700Y-76543229D01*
X109299950Y-76569436D01*
X109285668Y-76576437D01*
X109263188Y-76587103D01*
X109253171Y-76591307D01*
X109251834Y-76591224D01*
X109252230Y-76586388D01*
X109268826Y-76573464D01*
X109302728Y-76551564D01*
X109338814Y-76524098D01*
X109370844Y-76482545D01*
X109383820Y-76438031D01*
X109378143Y-76392777D01*
X109354208Y-76349003D01*
X109312414Y-76308930D01*
X109253158Y-76274778D01*
X109216931Y-76260409D01*
X109135662Y-76239281D01*
X109050567Y-76230001D01*
X108966025Y-76232292D01*
X108886417Y-76245881D01*
X108816124Y-76270489D01*
X108759525Y-76305843D01*
X108746742Y-76315949D01*
X108731962Y-76324208D01*
X108729911Y-76319523D01*
X108740307Y-76304056D01*
X108762873Y-76279967D01*
X108769413Y-76273925D01*
X108823787Y-76238649D01*
X108892630Y-76214272D01*
X108972835Y-76201102D01*
X109061296Y-76199444D01*
X109154906Y-76209605D01*
G37*
G36*
X105151854Y-76125546D02*
G01*
X105137420Y-76145121D01*
X105127787Y-76152855D01*
X105090318Y-76170131D01*
X105033559Y-76185160D01*
X104984009Y-76195169D01*
X104948773Y-76201251D01*
X104928507Y-76202908D01*
X104920462Y-76200352D01*
X104921887Y-76193796D01*
X104923569Y-76191439D01*
X104944517Y-76177396D01*
X104983976Y-76164790D01*
X105043130Y-76153225D01*
X105072723Y-76147019D01*
X105105984Y-76136381D01*
X105126608Y-76125233D01*
X105140531Y-76115154D01*
X105152152Y-76114196D01*
X105151854Y-76125546D01*
G37*
G36*
X103827092Y-75951588D02*
G01*
X103834677Y-75982833D01*
X103835491Y-75987347D01*
X103841632Y-76018076D01*
X103847009Y-76040390D01*
X103847441Y-76041955D01*
X103845381Y-76055048D01*
X103827019Y-76058668D01*
X103818014Y-76058166D01*
X103806619Y-76052477D01*
X103800026Y-76036241D01*
X103795221Y-76004305D01*
X103793965Y-75992247D01*
X103793807Y-75958074D01*
X103801101Y-75942330D01*
X103803525Y-75940914D01*
X103817457Y-75938519D01*
X103827092Y-75951588D01*
G37*
G36*
X109678767Y-75990781D02*
G01*
X109673545Y-75996003D01*
X109668323Y-75990781D01*
X109673545Y-75985559D01*
X109678767Y-75990781D01*
G37*
G36*
X108199425Y-75952564D02*
G01*
X108197540Y-75971712D01*
X108195639Y-75980307D01*
X108191236Y-75990770D01*
X108187414Y-75981839D01*
X108186775Y-75970143D01*
X108193431Y-75952325D01*
X108193713Y-75952049D01*
X108199425Y-75952564D01*
G37*
G36*
X102874593Y-75934679D02*
G01*
X102903252Y-75938023D01*
X102921448Y-75943783D01*
X102922844Y-75944793D01*
X102921455Y-75949992D01*
X102901314Y-75953025D01*
X102861394Y-75954067D01*
X102859747Y-75954068D01*
X102821529Y-75952713D01*
X102795372Y-75949085D01*
X102785675Y-75943783D01*
X102791298Y-75939144D01*
X102812070Y-75935240D01*
X102842017Y-75933751D01*
X102874593Y-75934679D01*
G37*
G36*
X108247928Y-75907228D02*
G01*
X108242706Y-75912450D01*
X108237484Y-75907228D01*
X108242706Y-75902006D01*
X108247928Y-75907228D01*
G37*
G36*
X109317604Y-72512903D02*
G01*
X109308577Y-72533299D01*
X109296805Y-72559896D01*
X109259126Y-72627373D01*
X109219983Y-72680008D01*
X109216716Y-72683654D01*
X109190599Y-72715582D01*
X109172429Y-72742775D01*
X109164273Y-72761690D01*
X109168199Y-72768783D01*
X109170975Y-72768480D01*
X109192999Y-72759390D01*
X109228022Y-72738979D01*
X109273622Y-72709048D01*
X109327376Y-72671397D01*
X109386863Y-72627827D01*
X109449660Y-72580139D01*
X109513345Y-72530133D01*
X109575496Y-72479610D01*
X109633691Y-72430371D01*
X109685507Y-72384216D01*
X109716199Y-72356086D01*
X109755076Y-72320833D01*
X109786545Y-72292749D01*
X109807970Y-72274178D01*
X109816715Y-72267467D01*
X109818745Y-72269825D01*
X109819867Y-72287138D01*
X109817535Y-72316694D01*
X109812446Y-72353023D01*
X109805296Y-72390657D01*
X109796780Y-72424128D01*
X109781653Y-72468922D01*
X109752392Y-72535346D01*
X109714310Y-72600326D01*
X109665217Y-72667042D01*
X109623214Y-72715340D01*
X109602922Y-72738674D01*
X109525235Y-72818403D01*
X109491633Y-72851840D01*
X109452314Y-72892422D01*
X109428234Y-72919650D01*
X109419143Y-72933812D01*
X109424790Y-72935201D01*
X109447350Y-72925762D01*
X109488377Y-72906424D01*
X109533218Y-72883606D01*
X109574216Y-72861243D01*
X109603713Y-72843270D01*
X109640465Y-72818588D01*
X109690617Y-72786154D01*
X109736224Y-72758010D01*
X109774116Y-72736039D01*
X109801127Y-72722125D01*
X109814088Y-72718153D01*
X109816365Y-72723389D01*
X109810610Y-72742868D01*
X109795782Y-72773256D01*
X109774002Y-72811117D01*
X109747387Y-72853012D01*
X109718057Y-72895505D01*
X109688132Y-72935158D01*
X109659729Y-72968534D01*
X109626357Y-73002274D01*
X109613252Y-73014218D01*
X109590332Y-73035107D01*
X109580651Y-73043930D01*
X109571307Y-73052446D01*
X109509608Y-73104159D01*
X109447637Y-73152118D01*
X109423135Y-73169184D01*
X109391768Y-73191031D01*
X109386628Y-73194496D01*
X109371976Y-73207576D01*
X109371680Y-73214734D01*
X109376485Y-73214512D01*
X109398502Y-73209477D01*
X109434017Y-73199501D01*
X109478971Y-73185884D01*
X109529305Y-73169925D01*
X109580958Y-73152922D01*
X109629870Y-73136175D01*
X109671984Y-73120983D01*
X109703238Y-73108644D01*
X109720604Y-73101642D01*
X109745150Y-73095240D01*
X109753445Y-73100875D01*
X109745834Y-73119304D01*
X109722663Y-73151287D01*
X109681739Y-73200596D01*
X109660152Y-73223100D01*
X109641017Y-73243048D01*
X109619221Y-73265769D01*
X109551001Y-73323992D01*
X109472223Y-73379272D01*
X109378033Y-73435610D01*
X109368771Y-73440847D01*
X109367276Y-73441714D01*
X109330713Y-73462924D01*
X109298681Y-73482331D01*
X109278815Y-73495372D01*
X109277551Y-73496302D01*
X109267083Y-73505020D01*
X109268428Y-73508935D01*
X109284558Y-73508794D01*
X109318446Y-73505345D01*
X109343665Y-73501962D01*
X109391548Y-73493318D01*
X109432616Y-73483466D01*
X109450456Y-73478648D01*
X109483226Y-73471504D01*
X109505724Y-73468817D01*
X109510035Y-73468980D01*
X109517582Y-73472109D01*
X109511661Y-73481656D01*
X109490773Y-73500836D01*
X109445971Y-73536505D01*
X109372156Y-73586634D01*
X109289811Y-73634697D01*
X109205689Y-73676530D01*
X109192097Y-73682761D01*
X109187601Y-73684822D01*
X109145273Y-73706095D01*
X109122292Y-73721646D01*
X109118283Y-73732070D01*
X109132869Y-73737964D01*
X109165675Y-73739922D01*
X109187221Y-73740923D01*
X109193944Y-73745811D01*
X109186563Y-73757553D01*
X109184351Y-73759719D01*
X109165473Y-73772327D01*
X109140067Y-73786575D01*
X109133352Y-73790341D01*
X109092649Y-73811457D01*
X109048025Y-73833370D01*
X109004140Y-73853775D01*
X108965657Y-73870367D01*
X108937237Y-73880840D01*
X108927837Y-73884033D01*
X108897719Y-73896033D01*
X108864129Y-73911043D01*
X108817130Y-73933297D01*
X108871962Y-73936454D01*
X108893162Y-73938318D01*
X108917369Y-73942697D01*
X108926793Y-73947835D01*
X108917934Y-73957216D01*
X108908825Y-73962677D01*
X108892820Y-73972273D01*
X108854916Y-73991295D01*
X108807693Y-74012710D01*
X108754619Y-74034946D01*
X108699166Y-74056431D01*
X108644803Y-74075593D01*
X108639157Y-74077475D01*
X108596539Y-74092321D01*
X108564998Y-74104455D01*
X108547476Y-74112671D01*
X108546916Y-74115760D01*
X108561350Y-74118398D01*
X108569435Y-74123347D01*
X108581105Y-74130490D01*
X108583130Y-74133737D01*
X108581441Y-74142163D01*
X108568162Y-74152654D01*
X108540640Y-74166975D01*
X108496221Y-74186888D01*
X108476881Y-74195138D01*
X108407448Y-74222537D01*
X108345091Y-74243731D01*
X108293601Y-74257520D01*
X108256765Y-74262704D01*
X108256445Y-74262710D01*
X108240937Y-74263673D01*
X108242163Y-74267920D01*
X108256615Y-74276201D01*
X108260983Y-74278704D01*
X108261580Y-74279030D01*
X108281464Y-74292611D01*
X108289704Y-74303585D01*
X108280971Y-74310938D01*
X108255927Y-74323367D01*
X108218282Y-74339278D01*
X108171754Y-74357238D01*
X108146872Y-74366179D01*
X108120064Y-74375812D01*
X108066931Y-74393567D01*
X108016075Y-74409068D01*
X107982308Y-74418901D01*
X107957024Y-74427431D01*
X107946495Y-74434096D01*
X107947779Y-74440977D01*
X107957931Y-74450153D01*
X107962128Y-74453552D01*
X107980199Y-74468185D01*
X107954791Y-74484247D01*
X107925501Y-74499863D01*
X107879517Y-74519958D01*
X107857009Y-74528610D01*
X107825844Y-74540590D01*
X107771106Y-74559366D01*
X107721928Y-74573891D01*
X107684932Y-74581773D01*
X107667675Y-74584184D01*
X107645054Y-74588859D01*
X107638800Y-74594246D01*
X107645882Y-74601905D01*
X107647552Y-74603145D01*
X107648337Y-74604083D01*
X107657352Y-74614854D01*
X107649297Y-74626249D01*
X107643234Y-74630511D01*
X107614897Y-74644657D01*
X107574771Y-74660383D01*
X107531291Y-74674827D01*
X107529190Y-74675525D01*
X107494033Y-74685271D01*
X107484492Y-74687916D01*
X107447013Y-74695390D01*
X107445145Y-74695715D01*
X107418416Y-74700366D01*
X107400740Y-74707557D01*
X107398466Y-74717346D01*
X107398353Y-74727416D01*
X107382920Y-74739578D01*
X107348819Y-74749115D01*
X107295347Y-74756201D01*
X107221797Y-74761010D01*
X107174666Y-74763602D01*
X107135497Y-74766722D01*
X107109091Y-74769941D01*
X107099506Y-74772868D01*
X107100091Y-74773986D01*
X107112300Y-74784258D01*
X107130357Y-74796800D01*
X107137047Y-74801447D01*
X107170003Y-74822506D01*
X107248647Y-74868978D01*
X107431886Y-74963054D01*
X107623120Y-75043011D01*
X107818489Y-75107500D01*
X108014132Y-75155170D01*
X108206191Y-75184674D01*
X108323127Y-75197031D01*
X108294079Y-75216290D01*
X108252240Y-75244029D01*
X108206379Y-75272487D01*
X108134620Y-75310053D01*
X108066245Y-75337962D01*
X108060046Y-75339604D01*
X108006955Y-75353666D01*
X108006433Y-75353753D01*
X107970594Y-75360664D01*
X107953347Y-75367364D01*
X107952519Y-75375630D01*
X107965935Y-75387243D01*
X107973697Y-75392796D01*
X107981396Y-75401690D01*
X107975302Y-75410998D01*
X107953647Y-75426346D01*
X107920035Y-75444955D01*
X107896233Y-75458133D01*
X107891905Y-75460529D01*
X107802706Y-75488919D01*
X107703892Y-75499070D01*
X107683437Y-75499329D01*
X107647532Y-75500634D01*
X107627254Y-75503548D01*
X107618893Y-75508869D01*
X107618850Y-75511262D01*
X107618740Y-75517395D01*
X107619233Y-75520162D01*
X107611444Y-75537882D01*
X107587068Y-75553759D01*
X107549827Y-75566977D01*
X107503444Y-75576722D01*
X107451640Y-75582179D01*
X107398138Y-75582532D01*
X107346662Y-75576966D01*
X107325102Y-75573299D01*
X107293468Y-75569498D01*
X107275523Y-75570788D01*
X107266839Y-75577181D01*
X107253342Y-75587617D01*
X107222259Y-75596809D01*
X107180192Y-75601834D01*
X107132398Y-75602648D01*
X107084132Y-75599206D01*
X107040649Y-75591463D01*
X107007207Y-75579377D01*
X106989871Y-75573006D01*
X106978274Y-75579371D01*
X106973328Y-75583087D01*
X106949627Y-75587328D01*
X106910598Y-75586626D01*
X106887329Y-75583574D01*
X106827721Y-75567025D01*
X106764141Y-75539765D01*
X106703593Y-75505070D01*
X106653081Y-75466214D01*
X106617555Y-75433417D01*
X106819787Y-75433417D01*
X106824795Y-75442364D01*
X106843568Y-75465966D01*
X106849517Y-75472873D01*
X106871564Y-75495463D01*
X106888883Y-75509146D01*
X106892020Y-75508473D01*
X106883654Y-75496422D01*
X106864579Y-75475202D01*
X106847959Y-75458118D01*
X106827767Y-75438782D01*
X106819787Y-75433417D01*
X106617555Y-75433417D01*
X106609582Y-75426056D01*
X106581598Y-75446441D01*
X106574479Y-75451563D01*
X106557589Y-75460810D01*
X106541998Y-75459437D01*
X106517957Y-75447625D01*
X106504799Y-75440994D01*
X106483535Y-75434839D01*
X106470057Y-75440667D01*
X106458955Y-75448706D01*
X106432167Y-75450268D01*
X106399326Y-75432023D01*
X106383123Y-75420073D01*
X106368655Y-75414191D01*
X106950997Y-75414191D01*
X106951382Y-75426240D01*
X106963610Y-75445263D01*
X106983844Y-75466975D01*
X107008247Y-75487092D01*
X107032981Y-75501329D01*
X107038597Y-75503613D01*
X107053129Y-75508473D01*
X107064389Y-75512239D01*
X107080513Y-75514797D01*
X107083538Y-75511262D01*
X107070031Y-75501607D01*
X107055614Y-75490956D01*
X107052624Y-75481960D01*
X107050781Y-75471061D01*
X107040684Y-75458133D01*
X107287073Y-75458133D01*
X107292295Y-75463355D01*
X107297517Y-75458133D01*
X107292295Y-75452911D01*
X107287073Y-75458133D01*
X107040684Y-75458133D01*
X107037285Y-75453781D01*
X107030856Y-75447689D01*
X107266185Y-75447689D01*
X107271407Y-75452911D01*
X107276629Y-75447689D01*
X107271407Y-75442467D01*
X107266185Y-75447689D01*
X107030856Y-75447689D01*
X107025291Y-75442416D01*
X107017213Y-75439185D01*
X107015475Y-75450300D01*
X107014382Y-75457403D01*
X107007198Y-75456129D01*
X106991243Y-75438359D01*
X106987395Y-75433800D01*
X106968286Y-75417087D01*
X106953552Y-75412645D01*
X106950997Y-75414191D01*
X106368655Y-75414191D01*
X106366621Y-75413364D01*
X106364524Y-75416357D01*
X106359244Y-75423895D01*
X106357550Y-75453430D01*
X106354465Y-75490138D01*
X106339263Y-75529476D01*
X106327261Y-75542002D01*
X106308808Y-75561261D01*
X106260283Y-75589431D01*
X106213806Y-75609552D01*
X106180604Y-75619140D01*
X106164080Y-75616530D01*
X106164105Y-75601739D01*
X106173252Y-75570378D01*
X106175837Y-75549396D01*
X106226081Y-75549396D01*
X106227913Y-75557010D01*
X106237872Y-75546213D01*
X106239964Y-75542002D01*
X106239779Y-75530096D01*
X106236306Y-75529861D01*
X106228617Y-75541235D01*
X106226081Y-75549396D01*
X106175837Y-75549396D01*
X106178646Y-75526597D01*
X106175773Y-75489708D01*
X106167147Y-75472429D01*
X106142475Y-75447919D01*
X106110477Y-75429139D01*
X106079012Y-75421618D01*
X106078152Y-75421618D01*
X106064191Y-75423732D01*
X106060954Y-75433890D01*
X106066404Y-75457971D01*
X106067548Y-75462675D01*
X106068457Y-75466416D01*
X106068883Y-75489465D01*
X106069269Y-75510353D01*
X106069420Y-75518526D01*
X106062768Y-75536464D01*
X106051257Y-75567508D01*
X106015417Y-75609076D01*
X105999331Y-75621604D01*
X105974612Y-75635285D01*
X105959657Y-75632674D01*
X105952435Y-75613929D01*
X105952416Y-75613805D01*
X105945432Y-75576838D01*
X105934897Y-75553707D01*
X105915534Y-75537454D01*
X105913506Y-75536464D01*
X105981563Y-75536464D01*
X105981988Y-75539326D01*
X105992623Y-75546908D01*
X105996401Y-75546088D01*
X105997229Y-75536464D01*
X105995085Y-75533338D01*
X105986169Y-75526019D01*
X105985126Y-75526291D01*
X105981563Y-75536464D01*
X105913506Y-75536464D01*
X105882065Y-75521117D01*
X105870858Y-75515932D01*
X105861944Y-75510353D01*
X105971119Y-75510353D01*
X105976341Y-75515575D01*
X105981563Y-75510353D01*
X105976341Y-75505131D01*
X105971119Y-75510353D01*
X105861944Y-75510353D01*
X105829560Y-75490084D01*
X105829035Y-75489465D01*
X105950231Y-75489465D01*
X105955453Y-75494687D01*
X105960675Y-75489465D01*
X105955453Y-75484243D01*
X105950231Y-75489465D01*
X105829035Y-75489465D01*
X105802964Y-75458700D01*
X105800420Y-75454447D01*
X105792236Y-75443147D01*
X105869239Y-75443147D01*
X105871900Y-75452911D01*
X105874046Y-75456003D01*
X105883577Y-75463355D01*
X105885005Y-75462675D01*
X105882344Y-75452911D01*
X105880198Y-75449819D01*
X105870667Y-75442467D01*
X105869239Y-75443147D01*
X105792236Y-75443147D01*
X105782194Y-75429283D01*
X105768264Y-75422526D01*
X105756435Y-75432961D01*
X105742456Y-75439350D01*
X105716654Y-75438292D01*
X105696969Y-75437068D01*
X105667783Y-75444247D01*
X105629638Y-75463354D01*
X105621916Y-75467788D01*
X105595512Y-75483853D01*
X105583519Y-75495311D01*
X105582848Y-75506886D01*
X105590408Y-75523299D01*
X105591873Y-75526160D01*
X105604175Y-75561346D01*
X105603081Y-75595648D01*
X105594766Y-75616073D01*
X105587598Y-75633682D01*
X105556736Y-75680070D01*
X105551176Y-75687196D01*
X105533154Y-75706333D01*
X105520593Y-75714013D01*
X105516748Y-75712976D01*
X105499330Y-75701919D01*
X105476738Y-75682661D01*
X105459977Y-75666858D01*
X105428043Y-75637002D01*
X105395644Y-75606942D01*
X105377594Y-75589368D01*
X105480326Y-75589368D01*
X105489359Y-75601739D01*
X105492615Y-75605783D01*
X105506499Y-75619199D01*
X105511579Y-75616073D01*
X105507767Y-75610680D01*
X105493302Y-75597796D01*
X105485735Y-75591962D01*
X105480326Y-75589368D01*
X105377594Y-75589368D01*
X105373355Y-75585241D01*
X105352693Y-75562450D01*
X105342925Y-75548021D01*
X105342273Y-75546160D01*
X105333958Y-75538807D01*
X105315940Y-75545410D01*
X105315203Y-75545794D01*
X105288668Y-75553970D01*
X105256585Y-75557352D01*
X105238575Y-75558239D01*
X105221326Y-75565372D01*
X105213036Y-75583278D01*
X105211658Y-75610108D01*
X105217724Y-75641317D01*
X105224177Y-75662692D01*
X105220978Y-75669595D01*
X105205755Y-75666400D01*
X105164570Y-75645507D01*
X105124759Y-75609393D01*
X105094885Y-75564782D01*
X105084944Y-75542790D01*
X105074389Y-75507878D01*
X105074952Y-75484989D01*
X105125148Y-75484989D01*
X105125925Y-75506495D01*
X105127821Y-75515575D01*
X105128296Y-75515282D01*
X105134695Y-75504066D01*
X105144864Y-75481632D01*
X105145059Y-75481180D01*
X105375806Y-75481180D01*
X105381775Y-75511443D01*
X105406832Y-75549354D01*
X105424175Y-75566043D01*
X105436677Y-75572254D01*
X105437094Y-75563542D01*
X105423137Y-75541071D01*
X105411670Y-75520241D01*
X105410113Y-75486314D01*
X105428027Y-75447689D01*
X105432861Y-75440180D01*
X105446795Y-75412211D01*
X105445077Y-75398068D01*
X105427707Y-75397748D01*
X105403025Y-75411947D01*
X105395676Y-75423095D01*
X105383218Y-75441993D01*
X105375806Y-75481180D01*
X105145059Y-75481180D01*
X105145578Y-75479977D01*
X105160289Y-75453076D01*
X105175520Y-75434634D01*
X105180264Y-75430753D01*
X105186231Y-75423095D01*
X105174889Y-75421579D01*
X105151295Y-75429782D01*
X105132492Y-75452961D01*
X105125148Y-75484989D01*
X105074952Y-75484989D01*
X105075149Y-75476967D01*
X105088561Y-75445908D01*
X105115962Y-75410551D01*
X105118780Y-75407662D01*
X105210473Y-75407662D01*
X105210710Y-75408926D01*
X105214918Y-75418334D01*
X105224348Y-75414772D01*
X105243237Y-75396839D01*
X105243453Y-75396618D01*
X105265217Y-75377620D01*
X105285995Y-75370986D01*
X105316345Y-75373322D01*
X105332726Y-75375405D01*
X105347685Y-75375215D01*
X105343470Y-75369720D01*
X105340563Y-75368167D01*
X105328985Y-75364136D01*
X105401916Y-75364136D01*
X105428027Y-75367632D01*
X105446642Y-75371962D01*
X105453136Y-75375215D01*
X105464059Y-75380687D01*
X105470381Y-75385899D01*
X105484945Y-75388831D01*
X105490691Y-75374319D01*
X105498865Y-75361532D01*
X105515368Y-75354829D01*
X105814458Y-75354829D01*
X105814570Y-75356949D01*
X105819537Y-75378321D01*
X105829591Y-75406248D01*
X105832228Y-75412211D01*
X105835922Y-75420563D01*
X105847268Y-75439242D01*
X105854008Y-75437623D01*
X105856171Y-75416357D01*
X105877122Y-75416357D01*
X105882344Y-75421579D01*
X105887566Y-75416357D01*
X105882344Y-75411135D01*
X105877122Y-75416357D01*
X105856171Y-75416357D01*
X105856234Y-75415740D01*
X105858863Y-75398694D01*
X105867795Y-75396159D01*
X105869260Y-75396958D01*
X105875014Y-75393063D01*
X105872307Y-75371213D01*
X105870340Y-75359594D01*
X106119897Y-75359594D01*
X106122558Y-75369358D01*
X106124704Y-75372450D01*
X106134235Y-75379802D01*
X106135663Y-75379122D01*
X106133002Y-75369358D01*
X106130856Y-75366267D01*
X106121325Y-75358914D01*
X106119897Y-75359594D01*
X105870340Y-75359594D01*
X105870125Y-75358326D01*
X105870877Y-75353692D01*
X105877122Y-75353692D01*
X105882344Y-75358914D01*
X105883745Y-75357513D01*
X107146415Y-75357513D01*
X107150799Y-75369586D01*
X107160317Y-75379122D01*
X107167842Y-75386661D01*
X107184176Y-75398563D01*
X107205256Y-75409447D01*
X107215802Y-75409456D01*
X107212988Y-75399331D01*
X107193989Y-75379811D01*
X107183329Y-75371346D01*
X107161382Y-75358085D01*
X107147867Y-75355814D01*
X107146415Y-75357513D01*
X105883745Y-75357513D01*
X105887566Y-75353692D01*
X105882344Y-75348470D01*
X105877122Y-75353692D01*
X105870877Y-75353692D01*
X105873679Y-75336433D01*
X105892079Y-75315802D01*
X105894146Y-75313940D01*
X107144794Y-75313940D01*
X107158588Y-75328696D01*
X107188708Y-75353692D01*
X107189894Y-75354676D01*
X107238705Y-75391853D01*
X107264067Y-75409456D01*
X107280002Y-75420516D01*
X107326943Y-75445857D01*
X107334463Y-75447689D01*
X107361754Y-75454338D01*
X107384513Y-75445986D01*
X107385358Y-75444955D01*
X107385099Y-75440027D01*
X107377560Y-75432526D01*
X107360493Y-75421035D01*
X107331648Y-75404138D01*
X107288777Y-75380419D01*
X107229630Y-75348463D01*
X107208542Y-75337298D01*
X107178189Y-75322360D01*
X107412402Y-75322360D01*
X107417624Y-75327582D01*
X107422846Y-75322360D01*
X107417624Y-75317138D01*
X107412402Y-75322360D01*
X107178189Y-75322360D01*
X107169765Y-75318214D01*
X107148518Y-75310437D01*
X107144794Y-75313940D01*
X105894146Y-75313940D01*
X105900006Y-75308662D01*
X105910474Y-75296250D01*
X105929342Y-75296250D01*
X105929462Y-75298613D01*
X105933948Y-75306694D01*
X105935623Y-75306213D01*
X105945009Y-75296250D01*
X105946640Y-75292204D01*
X105945494Y-75291028D01*
X107109523Y-75291028D01*
X107110699Y-75292204D01*
X107114745Y-75296250D01*
X107119967Y-75291028D01*
X107114745Y-75285806D01*
X107109523Y-75291028D01*
X105945494Y-75291028D01*
X105940403Y-75285806D01*
X105937371Y-75286207D01*
X105934795Y-75289429D01*
X105929342Y-75296250D01*
X105910474Y-75296250D01*
X105916226Y-75289429D01*
X105914114Y-75278695D01*
X105893717Y-75275362D01*
X105891675Y-75275458D01*
X105868091Y-75285235D01*
X105842827Y-75306267D01*
X105822683Y-75331738D01*
X105821252Y-75335756D01*
X105814458Y-75354829D01*
X105515368Y-75354829D01*
X105522023Y-75352126D01*
X105544350Y-75345174D01*
X105552674Y-75335756D01*
X105544140Y-75326678D01*
X105520777Y-75319839D01*
X105484615Y-75317138D01*
X105459653Y-75320590D01*
X105425416Y-75340637D01*
X105401916Y-75364136D01*
X105328985Y-75364136D01*
X105316787Y-75359889D01*
X105285886Y-75353133D01*
X105266973Y-75350888D01*
X105243705Y-75353854D01*
X105225997Y-75367557D01*
X105214442Y-75385940D01*
X105210473Y-75407662D01*
X105118780Y-75407662D01*
X105158688Y-75366747D01*
X105162151Y-75363389D01*
X105193994Y-75333998D01*
X105217481Y-75316790D01*
X105237772Y-75308708D01*
X105260026Y-75306694D01*
X105261750Y-75306704D01*
X105298250Y-75310086D01*
X105331170Y-75317706D01*
X105331350Y-75317768D01*
X105354189Y-75322968D01*
X105374670Y-75318437D01*
X105401853Y-75302189D01*
X105414711Y-75294134D01*
X105454665Y-75274485D01*
X105457731Y-75273415D01*
X105608476Y-75273415D01*
X105642609Y-75277400D01*
X105647708Y-75277806D01*
X105687130Y-75270284D01*
X105699598Y-75262966D01*
X107313325Y-75262966D01*
X107323627Y-75271621D01*
X107343269Y-75285027D01*
X107353468Y-75291028D01*
X107371496Y-75301636D01*
X107383494Y-75307608D01*
X107395631Y-75310242D01*
X107398476Y-75301505D01*
X107395806Y-75295910D01*
X107378562Y-75283350D01*
X107350608Y-75271490D01*
X107335093Y-75266490D01*
X107316281Y-75261260D01*
X107313325Y-75262966D01*
X105699598Y-75262966D01*
X105726480Y-75247187D01*
X105734183Y-75239576D01*
X105857371Y-75239576D01*
X105858749Y-75245094D01*
X105871364Y-75248199D01*
X105898433Y-75249739D01*
X105943173Y-75250562D01*
X105957176Y-75250646D01*
X106009005Y-75249440D01*
X106057975Y-75246295D01*
X106095080Y-75241735D01*
X106118357Y-75237253D01*
X106137792Y-75231575D01*
X106142228Y-75225066D01*
X106135059Y-75215500D01*
X106134854Y-75215297D01*
X106110936Y-75203935D01*
X106073762Y-75200391D01*
X106068307Y-75200432D01*
X106025831Y-75197468D01*
X106019301Y-75196322D01*
X107279078Y-75196322D01*
X107279410Y-75197575D01*
X107291032Y-75207236D01*
X107315493Y-75223688D01*
X107317731Y-75225066D01*
X107348851Y-75244226D01*
X107360700Y-75251402D01*
X107391459Y-75271541D01*
X107411865Y-75287262D01*
X107417996Y-75295648D01*
X107417172Y-75298642D01*
X107421537Y-75301505D01*
X107425916Y-75304377D01*
X107436569Y-75306836D01*
X107462694Y-75314994D01*
X107483687Y-75322360D01*
X107495954Y-75326664D01*
X107510316Y-75331312D01*
X107543466Y-75339096D01*
X107579357Y-75344816D01*
X107613339Y-75348100D01*
X107640761Y-75348575D01*
X107656970Y-75345867D01*
X107657315Y-75339604D01*
X107656559Y-75339001D01*
X107640476Y-75330578D01*
X107611134Y-75317964D01*
X107574285Y-75303651D01*
X107551454Y-75295132D01*
X107501905Y-75276425D01*
X107446043Y-75255138D01*
X107392151Y-75234420D01*
X107353261Y-75219752D01*
X107315909Y-75206502D01*
X107289825Y-75198235D01*
X107279078Y-75196322D01*
X106019301Y-75196322D01*
X105985540Y-75190397D01*
X105952810Y-75186587D01*
X107255740Y-75186587D01*
X107260963Y-75191809D01*
X107265846Y-75186926D01*
X107572926Y-75186926D01*
X107576033Y-75191207D01*
X107595173Y-75201502D01*
X107606415Y-75206747D01*
X107632209Y-75217502D01*
X107647393Y-75221948D01*
X107650224Y-75220650D01*
X107642024Y-75214122D01*
X107623746Y-75204606D01*
X107601028Y-75194927D01*
X107579507Y-75187912D01*
X107572926Y-75186926D01*
X107265846Y-75186926D01*
X107266185Y-75186587D01*
X107260963Y-75181365D01*
X107255740Y-75186587D01*
X105952810Y-75186587D01*
X105949253Y-75186173D01*
X105904857Y-75197891D01*
X105864818Y-75229905D01*
X105864015Y-75230797D01*
X105857371Y-75239576D01*
X105734183Y-75239576D01*
X105761399Y-75212687D01*
X105787530Y-75170958D01*
X105793598Y-75150033D01*
X106135407Y-75150033D01*
X106168476Y-75150033D01*
X106192933Y-75153914D01*
X106207556Y-75165699D01*
X106211316Y-75171591D01*
X106231740Y-75179918D01*
X106264178Y-75178608D01*
X106304692Y-75169025D01*
X106349345Y-75152531D01*
X106394200Y-75130491D01*
X106435318Y-75104269D01*
X106444407Y-75096377D01*
X107379292Y-75096377D01*
X107381940Y-75101620D01*
X107391750Y-75107462D01*
X107412402Y-75117862D01*
X107427567Y-75124871D01*
X107431078Y-75124852D01*
X107418239Y-75114055D01*
X107404260Y-75105108D01*
X107388880Y-75098276D01*
X107379292Y-75096377D01*
X106444407Y-75096377D01*
X106468764Y-75075228D01*
X106485788Y-75056077D01*
X106513930Y-75020731D01*
X106531046Y-74996981D01*
X107269117Y-74996981D01*
X107271143Y-75001511D01*
X107290334Y-75014492D01*
X107326238Y-75035370D01*
X107356119Y-75052606D01*
X107384909Y-75070378D01*
X107401958Y-75082337D01*
X107411849Y-75089129D01*
X107441058Y-75104920D01*
X107482190Y-75124652D01*
X107482637Y-75124852D01*
X107530471Y-75146269D01*
X107581127Y-75167715D01*
X107628509Y-75186587D01*
X107629385Y-75186936D01*
X107670472Y-75201878D01*
X107699614Y-75210484D01*
X107739718Y-75218092D01*
X107760660Y-75220650D01*
X107801970Y-75225696D01*
X107858924Y-75227994D01*
X107903273Y-75224483D01*
X107909213Y-75223376D01*
X107924958Y-75219752D01*
X107926166Y-75216290D01*
X107910885Y-75211427D01*
X107877163Y-75203602D01*
X107875706Y-75203273D01*
X107769545Y-75177053D01*
X107664044Y-75146160D01*
X107554589Y-75109033D01*
X107436562Y-75064105D01*
X107305350Y-75009813D01*
X107284710Y-75001455D01*
X107269117Y-74996981D01*
X106531046Y-74996981D01*
X106541307Y-74982743D01*
X106564767Y-74946785D01*
X106581156Y-74917527D01*
X106587319Y-74899639D01*
X106584158Y-74885056D01*
X106571985Y-74862206D01*
X106568097Y-74856861D01*
X106557100Y-74833481D01*
X106564262Y-74820049D01*
X106589930Y-74815662D01*
X106618323Y-74812613D01*
X106639540Y-74805378D01*
X106642286Y-74803561D01*
X106648182Y-74796800D01*
X106634708Y-74795094D01*
X106629318Y-74794322D01*
X106605178Y-74786597D01*
X106570299Y-74772360D01*
X106530267Y-74753819D01*
X106499598Y-74738984D01*
X106458966Y-74720797D01*
X106431280Y-74711764D01*
X106413084Y-74711415D01*
X106400923Y-74719277D01*
X106391341Y-74734880D01*
X106391256Y-74735054D01*
X106378835Y-74755222D01*
X106368641Y-74763602D01*
X106362018Y-74769313D01*
X106355285Y-74788185D01*
X106354702Y-74791884D01*
X106358996Y-74813151D01*
X106380148Y-74832573D01*
X106392254Y-74841268D01*
X106407434Y-74856524D01*
X106405559Y-74864328D01*
X106386271Y-74862916D01*
X106368511Y-74860903D01*
X106346463Y-74869970D01*
X106327414Y-74896764D01*
X106322011Y-74907976D01*
X106322651Y-74918197D01*
X106339520Y-74920263D01*
X106356957Y-74922802D01*
X106383312Y-74934383D01*
X106394159Y-74943347D01*
X106392731Y-74949856D01*
X106373085Y-74955917D01*
X106363843Y-74959757D01*
X106337826Y-74976476D01*
X106304767Y-75002435D01*
X106269607Y-75033912D01*
X106252409Y-75050178D01*
X106217732Y-75082146D01*
X106217107Y-75082722D01*
X106186426Y-75109962D01*
X106165537Y-75127263D01*
X106135407Y-75150033D01*
X105793598Y-75150033D01*
X105800518Y-75126172D01*
X105805381Y-75082146D01*
X105781198Y-75109019D01*
X105774154Y-75116516D01*
X105750203Y-75140490D01*
X105718085Y-75171469D01*
X105682745Y-75204653D01*
X105608476Y-75273415D01*
X105457731Y-75273415D01*
X105495742Y-75260150D01*
X105528875Y-75254532D01*
X105530695Y-75254120D01*
X105546036Y-75243349D01*
X105571080Y-75220320D01*
X105602916Y-75188191D01*
X105638632Y-75150122D01*
X105675315Y-75109271D01*
X105710054Y-75068796D01*
X105739936Y-75031857D01*
X105762050Y-75001612D01*
X105803379Y-74939721D01*
X105743643Y-74913374D01*
X105711343Y-74897634D01*
X105664683Y-74871681D01*
X105622259Y-74845034D01*
X105609354Y-74836302D01*
X105579974Y-74818019D01*
X105557368Y-74808953D01*
X105533954Y-74806859D01*
X105502152Y-74809495D01*
X105492100Y-74810486D01*
X105453965Y-74813379D01*
X105402554Y-74816513D01*
X105343343Y-74819572D01*
X105281810Y-74822238D01*
X105250135Y-74823553D01*
X105197544Y-74826141D01*
X105154485Y-74828780D01*
X105124742Y-74831226D01*
X105112093Y-74833234D01*
X105106707Y-74842080D01*
X105104443Y-74864364D01*
X105107672Y-74889274D01*
X105115879Y-74906816D01*
X105120675Y-74913220D01*
X105123712Y-74929777D01*
X105121608Y-74932156D01*
X105106029Y-74931504D01*
X105079868Y-74922072D01*
X105047848Y-74906332D01*
X105014689Y-74886759D01*
X104985114Y-74865826D01*
X104963844Y-74846009D01*
X104945137Y-74821487D01*
X104915867Y-74764760D01*
X104907923Y-74720555D01*
X104968775Y-74720555D01*
X104982807Y-74776992D01*
X105000682Y-74807735D01*
X105024584Y-74835920D01*
X105041492Y-74850464D01*
X105050088Y-74853100D01*
X105052040Y-74842564D01*
X105052040Y-74842553D01*
X105062036Y-74802678D01*
X105082517Y-74773667D01*
X105151259Y-74773667D01*
X105193035Y-74773818D01*
X105237365Y-74766319D01*
X105281551Y-74744928D01*
X105314534Y-74714082D01*
X105325999Y-74700830D01*
X105349696Y-74681357D01*
X105360423Y-74674572D01*
X105361855Y-74671407D01*
X105344474Y-74675395D01*
X105336269Y-74677682D01*
X105315722Y-74685002D01*
X105290572Y-74696594D01*
X105256378Y-74714609D01*
X105208701Y-74741200D01*
X105151259Y-74773667D01*
X105082517Y-74773667D01*
X105090482Y-74762385D01*
X105135079Y-74723671D01*
X105193528Y-74688530D01*
X105250692Y-74664383D01*
X105375806Y-74664383D01*
X105381028Y-74669605D01*
X105386250Y-74664383D01*
X105381028Y-74659161D01*
X105375806Y-74664383D01*
X105250692Y-74664383D01*
X105263532Y-74658959D01*
X105267072Y-74657716D01*
X105276920Y-74653939D01*
X105396694Y-74653939D01*
X105401916Y-74659161D01*
X105407138Y-74653939D01*
X105401916Y-74648717D01*
X105396694Y-74653939D01*
X105276920Y-74653939D01*
X105300941Y-74644726D01*
X105324925Y-74633573D01*
X105334030Y-74626552D01*
X105333136Y-74623777D01*
X105318762Y-74611776D01*
X105290676Y-74597004D01*
X105253859Y-74581441D01*
X105213289Y-74567065D01*
X105173947Y-74555854D01*
X105140814Y-74549787D01*
X105130478Y-74548819D01*
X105094385Y-74547622D01*
X105068400Y-74552481D01*
X105055919Y-74558756D01*
X105044111Y-74564693D01*
X105030877Y-74573903D01*
X104994105Y-74614525D01*
X104972973Y-74664904D01*
X104968775Y-74720555D01*
X104907923Y-74720555D01*
X104905823Y-74708871D01*
X104905823Y-74674358D01*
X104803993Y-74674260D01*
X104793778Y-74674221D01*
X104727302Y-74672554D01*
X104665732Y-74668737D01*
X104613060Y-74663176D01*
X104573281Y-74656278D01*
X104550390Y-74648448D01*
X104547561Y-74646579D01*
X104540473Y-74635561D01*
X104548202Y-74617703D01*
X104549728Y-74615212D01*
X104553780Y-74606242D01*
X104550470Y-74600722D01*
X104536416Y-74597816D01*
X104508237Y-74596687D01*
X104462552Y-74596496D01*
X104445348Y-74596341D01*
X104393246Y-74594321D01*
X104344716Y-74590452D01*
X104313334Y-74586052D01*
X104641904Y-74586052D01*
X104692922Y-74584983D01*
X104728211Y-74582880D01*
X104768818Y-74577361D01*
X104801317Y-74569718D01*
X104819319Y-74561153D01*
X104820857Y-74558756D01*
X104813894Y-74554720D01*
X104808273Y-74551862D01*
X104808825Y-74537032D01*
X104809068Y-74536390D01*
X104809967Y-74527719D01*
X104800214Y-74529859D01*
X104776616Y-74543445D01*
X104762612Y-74551712D01*
X104740161Y-74562004D01*
X104733648Y-74559894D01*
X104743477Y-74546611D01*
X104770050Y-74523388D01*
X104786160Y-74509993D01*
X104786449Y-74509714D01*
X105081407Y-74509714D01*
X105139364Y-74501849D01*
X105160665Y-74498534D01*
X105202568Y-74490123D01*
X105209649Y-74488234D01*
X105314989Y-74488234D01*
X105323586Y-74492056D01*
X105329115Y-74491302D01*
X105330549Y-74485093D01*
X105329018Y-74483843D01*
X105316623Y-74485093D01*
X105314989Y-74488234D01*
X105209649Y-74488234D01*
X105236235Y-74481142D01*
X105236365Y-74481099D01*
X105266178Y-74467901D01*
X105307084Y-74445436D01*
X105321861Y-74436418D01*
X105389082Y-74436418D01*
X105389758Y-74454799D01*
X105394081Y-74462819D01*
X105405693Y-74471168D01*
X105416093Y-74465647D01*
X105421858Y-74448312D01*
X105417051Y-74428531D01*
X105410518Y-74422190D01*
X105397960Y-74423664D01*
X105389082Y-74436418D01*
X105321861Y-74436418D01*
X105353583Y-74417059D01*
X105390382Y-74392627D01*
X105461590Y-74392627D01*
X105462840Y-74405022D01*
X105465982Y-74406656D01*
X105469803Y-74398059D01*
X105469049Y-74392530D01*
X105462840Y-74391096D01*
X105461590Y-74392627D01*
X105390382Y-74392627D01*
X105400172Y-74386127D01*
X105441351Y-74355997D01*
X105447531Y-74351777D01*
X105472960Y-74337897D01*
X105508344Y-74321012D01*
X105547954Y-74303587D01*
X105586060Y-74288088D01*
X105616933Y-74276980D01*
X105634843Y-74272730D01*
X105632180Y-74276590D01*
X105616058Y-74288898D01*
X105589790Y-74306725D01*
X105565264Y-74324510D01*
X105533200Y-74357859D01*
X105508772Y-74398059D01*
X105505567Y-74403333D01*
X105500642Y-74412477D01*
X105475188Y-74448312D01*
X105466796Y-74460126D01*
X105440253Y-74485093D01*
X105425842Y-74498648D01*
X105382298Y-74524464D01*
X105340683Y-74533992D01*
X105329563Y-74534556D01*
X105319062Y-74538672D01*
X105325450Y-74545443D01*
X105346396Y-74553276D01*
X105379572Y-74560578D01*
X105389083Y-74562413D01*
X105407500Y-74568814D01*
X105407591Y-74575329D01*
X105405979Y-74576948D01*
X105413040Y-74581772D01*
X105434977Y-74585971D01*
X105467230Y-74589264D01*
X105505237Y-74591369D01*
X105544439Y-74592003D01*
X105580276Y-74590886D01*
X105608187Y-74587734D01*
X105625258Y-74584913D01*
X105648630Y-74582963D01*
X105657796Y-74585205D01*
X105654000Y-74588488D01*
X105634492Y-74598104D01*
X105602147Y-74611549D01*
X105562366Y-74626552D01*
X105561189Y-74626996D01*
X105541449Y-74634325D01*
X105492532Y-74653939D01*
X105492205Y-74654070D01*
X105468839Y-74664383D01*
X105452925Y-74671407D01*
X105447254Y-74673910D01*
X105414355Y-74690489D01*
X105364129Y-74719091D01*
X105479387Y-74723840D01*
X105519785Y-74725634D01*
X105559133Y-74728609D01*
X105589966Y-74733987D01*
X105619045Y-74743580D01*
X105653130Y-74759197D01*
X105698983Y-74782650D01*
X105736282Y-74801746D01*
X105772710Y-74819870D01*
X105798676Y-74832175D01*
X105810168Y-74836710D01*
X105813163Y-74836050D01*
X105812113Y-74831903D01*
X105804742Y-74821037D01*
X105788851Y-74800219D01*
X105762243Y-74766217D01*
X105748649Y-74748087D01*
X105735202Y-74727481D01*
X105731771Y-74717831D01*
X105736419Y-74717169D01*
X105758039Y-74717849D01*
X105792866Y-74720516D01*
X105836167Y-74724853D01*
X105860844Y-74727290D01*
X105903649Y-74730133D01*
X105937115Y-74730578D01*
X105955558Y-74728452D01*
X105958832Y-74727021D01*
X105964044Y-74721450D01*
X105960543Y-74712309D01*
X105946333Y-74697355D01*
X105944415Y-74695715D01*
X107203520Y-74695715D01*
X107208742Y-74700937D01*
X107213964Y-74695715D01*
X107266185Y-74695715D01*
X107271407Y-74700937D01*
X107276629Y-74695715D01*
X107271407Y-74690493D01*
X107266185Y-74695715D01*
X107213964Y-74695715D01*
X107208742Y-74690493D01*
X107203520Y-74695715D01*
X105944415Y-74695715D01*
X105932199Y-74685271D01*
X107224408Y-74685271D01*
X107229630Y-74690493D01*
X107234852Y-74685271D01*
X107229630Y-74680049D01*
X107224408Y-74685271D01*
X105932199Y-74685271D01*
X105919983Y-74674827D01*
X107203520Y-74674827D01*
X107208742Y-74680049D01*
X107213964Y-74674827D01*
X107208742Y-74669605D01*
X107203520Y-74674827D01*
X105919983Y-74674827D01*
X105919417Y-74674343D01*
X105877798Y-74641027D01*
X105872944Y-74635841D01*
X105877402Y-74631987D01*
X105897011Y-74631378D01*
X105934564Y-74633651D01*
X105971640Y-74635179D01*
X106026839Y-74634383D01*
X106075560Y-74630624D01*
X106143446Y-74622063D01*
X106081707Y-74591319D01*
X107271955Y-74591319D01*
X107281851Y-74598512D01*
X107281951Y-74598570D01*
X107302476Y-74604617D01*
X107337492Y-74609476D01*
X107380672Y-74612805D01*
X107425692Y-74614258D01*
X107466228Y-74613492D01*
X107495954Y-74610162D01*
X107500206Y-74608900D01*
X107501462Y-74604083D01*
X107487489Y-74596384D01*
X107456617Y-74585034D01*
X107407180Y-74569265D01*
X107371232Y-74558408D01*
X107320070Y-74544051D01*
X107287690Y-74536749D01*
X107274303Y-74536528D01*
X107280119Y-74543412D01*
X107305350Y-74557426D01*
X107319552Y-74565073D01*
X107341209Y-74579448D01*
X107349737Y-74589445D01*
X107348321Y-74591758D01*
X107332921Y-74594671D01*
X107305350Y-74592628D01*
X107300818Y-74591968D01*
X107277481Y-74589337D01*
X107271955Y-74591319D01*
X106081707Y-74591319D01*
X106072949Y-74586958D01*
X106066497Y-74583718D01*
X106034003Y-74566485D01*
X106011144Y-74552825D01*
X106002527Y-74545453D01*
X106002774Y-74544943D01*
X106015139Y-74541815D01*
X106042444Y-74539399D01*
X106079530Y-74538180D01*
X106136968Y-74534091D01*
X106161499Y-74528610D01*
X107245296Y-74528610D01*
X107250518Y-74533832D01*
X107255740Y-74528610D01*
X107250518Y-74523388D01*
X107245296Y-74528610D01*
X106161499Y-74528610D01*
X106233504Y-74512522D01*
X106310551Y-74487739D01*
X106231371Y-74475487D01*
X106228141Y-74474979D01*
X106185358Y-74466740D01*
X106161394Y-74460573D01*
X107428068Y-74460573D01*
X107464622Y-74477966D01*
X107484637Y-74484897D01*
X107517669Y-74491558D01*
X107556782Y-74496297D01*
X107598141Y-74499061D01*
X107637912Y-74499795D01*
X107672259Y-74498446D01*
X107697349Y-74494958D01*
X107709347Y-74489279D01*
X107704418Y-74481353D01*
X107701402Y-74478971D01*
X107704014Y-74471334D01*
X107726402Y-74463159D01*
X107762278Y-74453552D01*
X107704836Y-74446040D01*
X107694702Y-74444677D01*
X107652610Y-74438610D01*
X107601607Y-74430847D01*
X107550548Y-74422725D01*
X107523274Y-74418437D01*
X107476957Y-74412371D01*
X107450201Y-74410997D01*
X107443213Y-74414273D01*
X107456202Y-74422160D01*
X107489374Y-74434618D01*
X107515592Y-74444414D01*
X107539112Y-74455445D01*
X107548175Y-74462977D01*
X107542086Y-74466094D01*
X107520292Y-74467537D01*
X107488121Y-74465961D01*
X107428068Y-74460573D01*
X106161394Y-74460573D01*
X106147646Y-74457035D01*
X106122836Y-74447856D01*
X106093482Y-74432476D01*
X106144574Y-74425428D01*
X106157143Y-74423334D01*
X106199977Y-74412549D01*
X106237443Y-74398621D01*
X106279219Y-74378862D01*
X106238654Y-74378016D01*
X106206285Y-74375369D01*
X106173830Y-74369173D01*
X106146230Y-74360882D01*
X106126568Y-74351922D01*
X106117930Y-74343715D01*
X106123398Y-74337687D01*
X106146057Y-74335260D01*
X106159926Y-74333514D01*
X106181271Y-74327421D01*
X107563841Y-74327421D01*
X107610839Y-74348795D01*
X107640857Y-74358902D01*
X107682547Y-74367569D01*
X107728179Y-74373458D01*
X107771700Y-74376009D01*
X107807053Y-74374663D01*
X107828184Y-74368861D01*
X107829005Y-74366179D01*
X107815829Y-74360194D01*
X107785202Y-74353374D01*
X107739346Y-74346099D01*
X107680485Y-74338749D01*
X107610839Y-74331702D01*
X107563841Y-74327421D01*
X106181271Y-74327421D01*
X106192043Y-74324346D01*
X106226999Y-74309974D01*
X106227808Y-74309584D01*
X106256468Y-74295455D01*
X106267929Y-74287987D01*
X106263825Y-74284920D01*
X106245790Y-74283998D01*
X106232160Y-74283110D01*
X106196146Y-74278479D01*
X106157524Y-74271414D01*
X106104846Y-74260116D01*
X106430658Y-74260116D01*
X106437352Y-74272040D01*
X106457400Y-74268919D01*
X106461418Y-74266705D01*
X107030916Y-74266705D01*
X107041637Y-74272730D01*
X107046701Y-74274380D01*
X107073613Y-74278409D01*
X107111658Y-74280648D01*
X107153495Y-74280983D01*
X107191785Y-74279300D01*
X107219186Y-74275485D01*
X107232879Y-74270799D01*
X107258600Y-74257262D01*
X107262926Y-74254047D01*
X107267213Y-74247110D01*
X107256715Y-74242291D01*
X107228421Y-74237629D01*
X107218393Y-74236378D01*
X107172933Y-74232511D01*
X107129282Y-74230954D01*
X107128067Y-74230955D01*
X107098246Y-74232273D01*
X107085157Y-74237032D01*
X107084858Y-74246620D01*
X107086152Y-74251950D01*
X107079482Y-74260241D01*
X107055809Y-74263020D01*
X107037605Y-74263871D01*
X107030916Y-74266705D01*
X106461418Y-74266705D01*
X106490248Y-74250818D01*
X106535344Y-74218043D01*
X106562284Y-74195678D01*
X106618652Y-74195678D01*
X106618823Y-74197511D01*
X106625628Y-74197582D01*
X106633767Y-74188912D01*
X107610301Y-74188912D01*
X107611448Y-74191893D01*
X107628284Y-74199551D01*
X107659068Y-74211038D01*
X107702059Y-74225507D01*
X107720232Y-74231546D01*
X107761738Y-74247110D01*
X107763802Y-74247884D01*
X107790353Y-74260744D01*
X107799444Y-74269184D01*
X107790635Y-74272266D01*
X107763486Y-74269049D01*
X107717556Y-74258594D01*
X107695621Y-74253206D01*
X107672166Y-74248412D01*
X107663060Y-74248010D01*
X107669559Y-74254253D01*
X107692120Y-74264017D01*
X107726019Y-74274712D01*
X107766206Y-74284777D01*
X107807633Y-74292653D01*
X107815794Y-74293902D01*
X107870644Y-74300833D01*
X107910628Y-74302284D01*
X107940484Y-74298122D01*
X107964949Y-74288211D01*
X107973802Y-74283257D01*
X107982106Y-74276201D01*
X107974673Y-74270765D01*
X107949283Y-74263438D01*
X107928262Y-74258190D01*
X107889074Y-74249081D01*
X107840443Y-74238220D01*
X107788388Y-74226972D01*
X107744282Y-74217548D01*
X107697238Y-74207357D01*
X107659625Y-74199059D01*
X107636949Y-74193858D01*
X107626585Y-74191453D01*
X107610301Y-74188912D01*
X106633767Y-74188912D01*
X106640872Y-74181344D01*
X106646706Y-74173777D01*
X106649300Y-74168369D01*
X106636929Y-74177401D01*
X106625789Y-74186960D01*
X106618652Y-74195678D01*
X106562284Y-74195678D01*
X106592131Y-74170900D01*
X106601737Y-74162578D01*
X106616679Y-74149872D01*
X107135634Y-74149872D01*
X107166966Y-74157845D01*
X107194930Y-74163088D01*
X107229630Y-74166051D01*
X107236244Y-74165873D01*
X107260802Y-74163144D01*
X107289288Y-74158057D01*
X107316803Y-74151809D01*
X107338446Y-74145593D01*
X107349317Y-74140604D01*
X107344515Y-74138038D01*
X107340513Y-74137728D01*
X107330364Y-74134565D01*
X107339293Y-74126513D01*
X107341441Y-74123855D01*
X107334834Y-74121291D01*
X107391513Y-74121291D01*
X107396736Y-74126513D01*
X107401958Y-74121291D01*
X107396736Y-74116069D01*
X107391513Y-74121291D01*
X107334834Y-74121291D01*
X107331222Y-74119889D01*
X107301059Y-74117835D01*
X107250518Y-74117651D01*
X107218345Y-74118294D01*
X107186509Y-74119678D01*
X107169192Y-74121469D01*
X107169577Y-74123440D01*
X107177900Y-74125498D01*
X107184127Y-74129507D01*
X107191868Y-74134491D01*
X107187046Y-74143686D01*
X107164355Y-74148637D01*
X107135634Y-74149872D01*
X106616679Y-74149872D01*
X106625001Y-74142795D01*
X106660428Y-74142795D01*
X106660530Y-74144255D01*
X106666575Y-74146555D01*
X106677091Y-74135343D01*
X106679633Y-74129507D01*
X106672486Y-74130738D01*
X106667846Y-74133962D01*
X106660428Y-74142795D01*
X106625001Y-74142795D01*
X106647926Y-74123300D01*
X106679484Y-74098018D01*
X106696867Y-74086418D01*
X106700531Y-74088188D01*
X106690932Y-74103014D01*
X106684664Y-74112452D01*
X106688510Y-74110847D01*
X106688935Y-74110439D01*
X106700204Y-74097192D01*
X106720877Y-74071052D01*
X106726411Y-74063862D01*
X107762278Y-74063862D01*
X107845335Y-74089992D01*
X107859739Y-74094585D01*
X107905747Y-74110568D01*
X107929499Y-74121291D01*
X107931451Y-74122172D01*
X107936824Y-74129374D01*
X107921843Y-74132150D01*
X107886484Y-74130475D01*
X107884890Y-74130341D01*
X107852497Y-74129131D01*
X107839595Y-74131971D01*
X107845410Y-74138014D01*
X107852740Y-74140604D01*
X107869165Y-74146408D01*
X107910083Y-74156304D01*
X107939665Y-74161605D01*
X107997722Y-74168369D01*
X108001739Y-74168837D01*
X108067945Y-74172723D01*
X108130104Y-74172880D01*
X108180041Y-74168925D01*
X108199614Y-74165625D01*
X108215361Y-74161687D01*
X108213985Y-74159486D01*
X108208297Y-74158686D01*
X108196502Y-74151355D01*
X108202299Y-74140256D01*
X108224429Y-74129054D01*
X108226859Y-74128219D01*
X108236889Y-74123347D01*
X108233126Y-74119559D01*
X108213220Y-74116047D01*
X108174819Y-74112003D01*
X108172193Y-74111751D01*
X108120869Y-74106012D01*
X108061966Y-74098288D01*
X108007714Y-74090177D01*
X108004691Y-74089690D01*
X107949814Y-74081775D01*
X107891048Y-74074652D01*
X107840609Y-74069810D01*
X107762278Y-74063862D01*
X106726411Y-74063862D01*
X106748156Y-74035609D01*
X106756406Y-74024687D01*
X107219186Y-74024687D01*
X107266185Y-74033049D01*
X107304220Y-74038778D01*
X107342313Y-74040447D01*
X107375847Y-74035846D01*
X107378136Y-74035329D01*
X107425048Y-74022292D01*
X107452317Y-74008814D01*
X107460138Y-73995962D01*
X107485510Y-73995962D01*
X107490732Y-74001184D01*
X107495954Y-73995962D01*
X107490732Y-73990740D01*
X107487159Y-73994313D01*
X107485510Y-73995962D01*
X107460138Y-73995962D01*
X107461141Y-73994313D01*
X107461121Y-73993288D01*
X107457904Y-73985309D01*
X107446303Y-73981405D01*
X107422197Y-73981024D01*
X107381464Y-73983612D01*
X107376293Y-73984024D01*
X107335473Y-73988112D01*
X107301805Y-73992851D01*
X107282138Y-73997297D01*
X107273581Y-74000711D01*
X107268393Y-74005985D01*
X107282614Y-74012720D01*
X107289959Y-74016623D01*
X107285168Y-74020411D01*
X107260963Y-74022645D01*
X107219186Y-74024687D01*
X106756406Y-74024687D01*
X106779241Y-73994454D01*
X106800152Y-73966990D01*
X106802100Y-73964630D01*
X107971160Y-73964630D01*
X108048364Y-73983369D01*
X108061033Y-73986316D01*
X108124213Y-73995962D01*
X108169223Y-74002834D01*
X108287839Y-74007439D01*
X108410926Y-74000160D01*
X108532529Y-73981026D01*
X108553003Y-73976383D01*
X108580272Y-73968544D01*
X108591909Y-73962677D01*
X108586373Y-73959825D01*
X108562122Y-73961028D01*
X108538246Y-73959303D01*
X108512513Y-73947207D01*
X108509340Y-73944746D01*
X108497668Y-73939348D01*
X108478842Y-73935172D01*
X108450115Y-73931965D01*
X108408740Y-73929477D01*
X108351971Y-73927456D01*
X108277060Y-73925651D01*
X108260042Y-73925321D01*
X108195717Y-73924580D01*
X108138949Y-73924701D01*
X108093068Y-73925626D01*
X108061405Y-73927297D01*
X108047290Y-73929656D01*
X108045109Y-73931380D01*
X108049013Y-73936454D01*
X108071684Y-73938360D01*
X108108201Y-73940711D01*
X108144793Y-73946353D01*
X108149186Y-73947405D01*
X108156740Y-73950989D01*
X108148018Y-73953990D01*
X108121484Y-73956700D01*
X108075601Y-73959408D01*
X107971160Y-73964630D01*
X106802100Y-73964630D01*
X106850182Y-73906370D01*
X107344515Y-73906370D01*
X107412402Y-73905930D01*
X107446317Y-73904163D01*
X107483278Y-73898828D01*
X107512856Y-73891129D01*
X107530562Y-73882285D01*
X107531907Y-73873513D01*
X107531467Y-73871567D01*
X107541125Y-73861869D01*
X107563161Y-73849367D01*
X107566044Y-73847982D01*
X107592905Y-73832891D01*
X107606858Y-73820989D01*
X107606118Y-73814591D01*
X107588898Y-73816012D01*
X107586601Y-73816545D01*
X107561918Y-73822106D01*
X107525002Y-73830268D01*
X107482927Y-73839465D01*
X107471475Y-73842065D01*
X107437147Y-73851442D01*
X107414495Y-73860171D01*
X107407944Y-73866648D01*
X107408447Y-73868407D01*
X107408081Y-73868892D01*
X107400290Y-73879208D01*
X107379195Y-73891307D01*
X107344515Y-73906370D01*
X106850182Y-73906370D01*
X106857015Y-73898091D01*
X106882298Y-73872034D01*
X107362029Y-73872034D01*
X107370625Y-73875855D01*
X107376154Y-73875101D01*
X107377588Y-73868892D01*
X107376057Y-73867642D01*
X107363663Y-73868892D01*
X107362029Y-73872034D01*
X106882298Y-73872034D01*
X106913631Y-73839742D01*
X106954730Y-73805057D01*
X108092136Y-73805057D01*
X108094715Y-73808271D01*
X108117377Y-73813790D01*
X108134186Y-73815755D01*
X108169695Y-73817799D01*
X108218015Y-73819476D01*
X108274936Y-73820748D01*
X108292738Y-73820989D01*
X108336247Y-73821578D01*
X108397736Y-73821927D01*
X108455192Y-73821758D01*
X108504403Y-73821033D01*
X108541160Y-73819715D01*
X108561250Y-73817765D01*
X108562070Y-73817590D01*
X108581176Y-73814104D01*
X108613779Y-73808622D01*
X108653318Y-73802252D01*
X108660203Y-73801147D01*
X108694886Y-73794987D01*
X108718446Y-73789787D01*
X108726109Y-73786575D01*
X108725520Y-73786153D01*
X108711608Y-73781816D01*
X108686689Y-73776656D01*
X108682915Y-73775955D01*
X108650046Y-73765910D01*
X108631479Y-73752469D01*
X108630491Y-73737891D01*
X108628592Y-73734343D01*
X108612830Y-73732305D01*
X108581122Y-73732929D01*
X108532284Y-73736280D01*
X108465131Y-73742420D01*
X108378479Y-73751415D01*
X108354251Y-73754045D01*
X108283418Y-73762034D01*
X108230107Y-73768695D01*
X108191773Y-73774444D01*
X108165874Y-73779701D01*
X108149865Y-73784883D01*
X108141203Y-73790408D01*
X108127508Y-73798425D01*
X108102233Y-73803948D01*
X108092136Y-73805057D01*
X106954730Y-73805057D01*
X106974078Y-73788728D01*
X107003366Y-73768635D01*
X107462127Y-73768635D01*
X107471654Y-73770539D01*
X107508122Y-73765823D01*
X107560493Y-73753289D01*
X107614320Y-73735727D01*
X107660449Y-73715794D01*
X107670429Y-73710554D01*
X107699417Y-73693792D01*
X107713712Y-73682761D01*
X107712030Y-73678752D01*
X107693084Y-73683055D01*
X107692037Y-73683383D01*
X107677511Y-73685505D01*
X107679131Y-73676762D01*
X107682076Y-73668933D01*
X107672606Y-73668892D01*
X107671901Y-73669151D01*
X107653780Y-73675393D01*
X107622620Y-73685820D01*
X107584729Y-73698320D01*
X107544181Y-73713618D01*
X107507116Y-73731119D01*
X107482098Y-73746846D01*
X107467720Y-73759581D01*
X107462127Y-73768635D01*
X107003366Y-73768635D01*
X107042434Y-73741833D01*
X107122777Y-73695841D01*
X107211662Y-73651307D01*
X107746612Y-73651307D01*
X107751834Y-73656529D01*
X107757056Y-73651307D01*
X108185263Y-73651307D01*
X108190486Y-73656529D01*
X108195708Y-73651307D01*
X108206152Y-73651307D01*
X108211374Y-73656529D01*
X108213059Y-73654844D01*
X108221818Y-73654844D01*
X108305370Y-73654415D01*
X108328415Y-73654024D01*
X108418287Y-73648648D01*
X108515765Y-73637944D01*
X108611426Y-73623096D01*
X108695847Y-73605291D01*
X108712533Y-73601142D01*
X108749555Y-73592075D01*
X108776081Y-73585779D01*
X108787233Y-73583421D01*
X108788919Y-73581807D01*
X108791020Y-73568082D01*
X108790379Y-73564422D01*
X108779928Y-73558569D01*
X108763048Y-73562836D01*
X108748063Y-73575740D01*
X108738342Y-73580843D01*
X108716730Y-73581221D01*
X108710788Y-73580168D01*
X108702178Y-73576514D01*
X108709140Y-73570173D01*
X108733578Y-73558589D01*
X108750716Y-73551570D01*
X108788347Y-73537640D01*
X108835234Y-73521363D01*
X108885017Y-73504990D01*
X108924060Y-73492448D01*
X108988723Y-73471139D01*
X109033305Y-73455570D01*
X109057809Y-73445757D01*
X109062240Y-73441714D01*
X109046600Y-73443454D01*
X109010894Y-73450993D01*
X108955126Y-73464345D01*
X108879300Y-73483524D01*
X108847645Y-73491603D01*
X108774616Y-73509832D01*
X108700400Y-73527885D01*
X108667154Y-73535752D01*
X108632125Y-73544041D01*
X108576916Y-73556578D01*
X108529826Y-73567345D01*
X108475312Y-73580788D01*
X108427851Y-73593487D01*
X108394145Y-73603713D01*
X108373904Y-73610450D01*
X108324687Y-73625886D01*
X108279260Y-73639104D01*
X108279191Y-73639123D01*
X108234726Y-73651307D01*
X108221818Y-73654844D01*
X108213059Y-73654844D01*
X108216596Y-73651307D01*
X108211374Y-73646085D01*
X108206152Y-73651307D01*
X108195708Y-73651307D01*
X108190486Y-73646085D01*
X108185263Y-73651307D01*
X107757056Y-73651307D01*
X107751834Y-73646085D01*
X107746612Y-73651307D01*
X107211662Y-73651307D01*
X107219186Y-73647537D01*
X107230213Y-73642264D01*
X107487358Y-73642264D01*
X107495954Y-73646085D01*
X107501483Y-73645332D01*
X107502917Y-73639123D01*
X107501386Y-73637873D01*
X107488992Y-73639123D01*
X107487358Y-73642264D01*
X107230213Y-73642264D01*
X107253782Y-73630993D01*
X107537371Y-73630993D01*
X107545653Y-73633915D01*
X107573725Y-73630770D01*
X107621502Y-73621467D01*
X107632263Y-73618818D01*
X107682725Y-73599828D01*
X107728554Y-73573573D01*
X107734810Y-73569060D01*
X107764147Y-73546927D01*
X107776016Y-73535752D01*
X107770363Y-73535616D01*
X107747131Y-73546598D01*
X107746288Y-73547031D01*
X107720984Y-73558122D01*
X107702744Y-73562955D01*
X107697745Y-73563883D01*
X107675294Y-73570886D01*
X107641121Y-73583229D01*
X107600395Y-73599087D01*
X107580510Y-73607301D01*
X107548962Y-73622092D01*
X107537371Y-73630993D01*
X107253782Y-73630993D01*
X107265779Y-73625256D01*
X107322003Y-73598237D01*
X107362276Y-73578643D01*
X107388372Y-73565579D01*
X107402067Y-73558148D01*
X107405134Y-73555456D01*
X107399347Y-73556607D01*
X107389221Y-73558145D01*
X107381069Y-73553683D01*
X107385883Y-73548357D01*
X107405454Y-73537083D01*
X107434636Y-73523548D01*
X107467507Y-73510264D01*
X107498143Y-73499743D01*
X107520620Y-73494497D01*
X107529324Y-73493542D01*
X107550050Y-73490381D01*
X107556127Y-73485860D01*
X107552399Y-73477366D01*
X107551666Y-73475687D01*
X108396092Y-73475687D01*
X108400634Y-73477837D01*
X108419571Y-73476709D01*
X108449448Y-73472695D01*
X108486813Y-73466184D01*
X108528214Y-73457567D01*
X108584359Y-73443834D01*
X108649447Y-73425827D01*
X108715773Y-73405676D01*
X108780281Y-73384470D01*
X108839914Y-73363298D01*
X108891616Y-73343247D01*
X108932330Y-73325407D01*
X108959000Y-73310866D01*
X108968569Y-73300714D01*
X108971458Y-73296829D01*
X108985949Y-73298311D01*
X108996283Y-73300604D01*
X108995777Y-73292761D01*
X108993707Y-73287022D01*
X109001026Y-73280543D01*
X109005692Y-73280066D01*
X109008204Y-73274920D01*
X109000014Y-73275194D01*
X108975547Y-73281016D01*
X108939178Y-73291763D01*
X108895169Y-73306252D01*
X108879949Y-73311492D01*
X108835669Y-73326699D01*
X108806929Y-73336212D01*
X108790390Y-73340801D01*
X108782711Y-73341241D01*
X108780553Y-73338304D01*
X108780576Y-73332763D01*
X108781105Y-73329641D01*
X108792110Y-73322319D01*
X108799709Y-73320727D01*
X108825178Y-73312375D01*
X108864008Y-73298126D01*
X108912626Y-73279404D01*
X108949219Y-73264876D01*
X109020790Y-73264876D01*
X109026012Y-73270098D01*
X109031234Y-73264876D01*
X109027130Y-73260772D01*
X109041678Y-73260772D01*
X109041690Y-73261238D01*
X109045373Y-73264876D01*
X109049746Y-73269195D01*
X109065568Y-73268264D01*
X109078662Y-73258959D01*
X109080768Y-73254758D01*
X109080773Y-73243048D01*
X109080259Y-73242600D01*
X109066635Y-73242251D01*
X109049870Y-73250079D01*
X109041678Y-73260772D01*
X109027130Y-73260772D01*
X109026012Y-73259654D01*
X109020790Y-73264876D01*
X108949219Y-73264876D01*
X108967458Y-73257635D01*
X109024930Y-73234245D01*
X109051646Y-73223100D01*
X109344556Y-73223100D01*
X109349778Y-73228322D01*
X109355000Y-73223100D01*
X109349778Y-73217878D01*
X109344556Y-73223100D01*
X109051646Y-73223100D01*
X109081468Y-73210659D01*
X109132027Y-73188937D01*
X109181232Y-73188937D01*
X109181868Y-73196485D01*
X109194674Y-73193815D01*
X109214620Y-73181843D01*
X109225358Y-73173597D01*
X109227555Y-73169184D01*
X109211231Y-73172660D01*
X109195606Y-73178219D01*
X109181894Y-73187806D01*
X109181232Y-73188937D01*
X109132027Y-73188937D01*
X109133500Y-73188304D01*
X109177451Y-73168603D01*
X109198827Y-73158419D01*
X109243336Y-73135604D01*
X109287083Y-73111392D01*
X109326494Y-73087950D01*
X109357995Y-73067447D01*
X109378012Y-73052051D01*
X109382971Y-73043930D01*
X109377715Y-73045384D01*
X109355902Y-73053974D01*
X109319685Y-73069146D01*
X109271770Y-73089712D01*
X109214864Y-73114486D01*
X109151675Y-73142281D01*
X109084911Y-73171910D01*
X109017278Y-73202187D01*
X108951485Y-73231923D01*
X108890239Y-73259933D01*
X108872590Y-73267764D01*
X108827605Y-73286406D01*
X108775096Y-73306964D01*
X108723134Y-73326238D01*
X108686422Y-73339461D01*
X108619923Y-73363900D01*
X108571939Y-73382378D01*
X108541554Y-73395273D01*
X108531974Y-73400649D01*
X108527852Y-73402962D01*
X108529918Y-73405821D01*
X108530588Y-73407879D01*
X108528562Y-73409353D01*
X108518721Y-73416511D01*
X108509839Y-73421538D01*
X108495541Y-73429630D01*
X108490914Y-73431982D01*
X108470366Y-73442426D01*
X108465695Y-73444800D01*
X108433829Y-73459585D01*
X108404589Y-73471547D01*
X108396092Y-73475687D01*
X107551666Y-73475687D01*
X107549861Y-73471551D01*
X107556946Y-73472724D01*
X107559722Y-73473527D01*
X107577957Y-73470544D01*
X107606948Y-73460601D01*
X107642382Y-73445788D01*
X107649561Y-73442426D01*
X107819721Y-73442426D01*
X107824943Y-73447648D01*
X107830165Y-73442426D01*
X107824943Y-73437204D01*
X107819721Y-73442426D01*
X107649561Y-73442426D01*
X107671862Y-73431982D01*
X107840609Y-73431982D01*
X107845831Y-73437204D01*
X107851053Y-73431982D01*
X107845831Y-73426760D01*
X107840609Y-73431982D01*
X107671862Y-73431982D01*
X107679948Y-73428195D01*
X107692830Y-73421538D01*
X107871941Y-73421538D01*
X107877163Y-73426760D01*
X107882385Y-73421538D01*
X108467254Y-73421538D01*
X108472476Y-73426760D01*
X108477698Y-73421538D01*
X108472476Y-73416316D01*
X108467254Y-73421538D01*
X107882385Y-73421538D01*
X107877163Y-73416316D01*
X107871941Y-73421538D01*
X107692830Y-73421538D01*
X107710332Y-73412494D01*
X108489989Y-73412494D01*
X108498586Y-73416316D01*
X108504115Y-73415562D01*
X108505549Y-73409353D01*
X108504018Y-73408103D01*
X108491623Y-73409353D01*
X108489989Y-73412494D01*
X107710332Y-73412494D01*
X107715332Y-73409910D01*
X107731175Y-73400649D01*
X107913717Y-73400649D01*
X107918939Y-73405871D01*
X107924162Y-73400649D01*
X107918939Y-73395427D01*
X107913717Y-73400649D01*
X107731175Y-73400649D01*
X107741862Y-73394402D01*
X107935168Y-73394402D01*
X107946781Y-73393543D01*
X107965938Y-73388179D01*
X107967780Y-73387517D01*
X108003682Y-73373980D01*
X108253150Y-73373980D01*
X108264426Y-73371317D01*
X108292688Y-73363214D01*
X108334362Y-73350672D01*
X108386081Y-73334707D01*
X108444481Y-73316332D01*
X108466481Y-73309277D01*
X108637499Y-73249357D01*
X108796946Y-73184354D01*
X108942960Y-73115211D01*
X109073677Y-73042870D01*
X109085495Y-73035107D01*
X109396777Y-73035107D01*
X109401999Y-73040329D01*
X109407221Y-73035107D01*
X109401999Y-73029885D01*
X109396777Y-73035107D01*
X109085495Y-73035107D01*
X109117295Y-73014218D01*
X109438553Y-73014218D01*
X109443775Y-73019441D01*
X109448997Y-73014218D01*
X109443775Y-73008996D01*
X109438553Y-73014218D01*
X109117295Y-73014218D01*
X109187234Y-72968276D01*
X109281770Y-72892371D01*
X109295405Y-72882008D01*
X109305225Y-72879150D01*
X109305876Y-72879277D01*
X109316296Y-72871392D01*
X109335847Y-72851752D01*
X109360927Y-72823927D01*
X109361716Y-72823018D01*
X109390866Y-72790098D01*
X109418086Y-72760466D01*
X109437579Y-72740437D01*
X109445937Y-72732195D01*
X109459840Y-72715340D01*
X109456851Y-72710465D01*
X109437090Y-72717509D01*
X109400679Y-72736412D01*
X109347739Y-72767113D01*
X109278390Y-72809550D01*
X109192755Y-72863662D01*
X109152892Y-72889148D01*
X109114078Y-72913963D01*
X109084134Y-72933106D01*
X109067426Y-72943787D01*
X109052805Y-72952594D01*
X109031234Y-72963954D01*
X109019176Y-72970021D01*
X108991836Y-72984471D01*
X108954358Y-73004638D01*
X108911127Y-73028175D01*
X108833550Y-73070477D01*
X108746686Y-73117340D01*
X108674284Y-73155771D01*
X108617261Y-73185290D01*
X108576539Y-73205415D01*
X108553037Y-73215665D01*
X108546617Y-73218253D01*
X108520687Y-73230283D01*
X108482189Y-73249252D01*
X108435176Y-73273144D01*
X108383701Y-73299941D01*
X108355729Y-73314782D01*
X108312335Y-73338296D01*
X108278857Y-73357088D01*
X108258170Y-73369527D01*
X108253150Y-73373980D01*
X108003682Y-73373980D01*
X108007777Y-73372436D01*
X108058989Y-73352151D01*
X108116303Y-73328793D01*
X108174605Y-73304490D01*
X108228782Y-73281375D01*
X108273720Y-73261576D01*
X108304306Y-73247223D01*
X108333072Y-73232335D01*
X108385861Y-73203794D01*
X108447080Y-73169677D01*
X108512257Y-73132561D01*
X108576922Y-73095025D01*
X108636604Y-73059647D01*
X108686832Y-73029006D01*
X108723134Y-73005681D01*
X108835910Y-72922057D01*
X108962702Y-72807024D01*
X109073010Y-72681488D01*
X109075149Y-72678752D01*
X109093623Y-72655552D01*
X109115203Y-72628908D01*
X109129038Y-72610107D01*
X109147459Y-72580063D01*
X109161452Y-72551994D01*
X109167007Y-72533299D01*
X109163532Y-72527784D01*
X109148498Y-72534754D01*
X109121320Y-72557887D01*
X109081718Y-72597395D01*
X109017919Y-72661291D01*
X108892761Y-72774533D01*
X108752488Y-72887100D01*
X108706484Y-72920222D01*
X108595997Y-72999770D01*
X108590802Y-73003164D01*
X108422182Y-73113321D01*
X108229937Y-73228531D01*
X108018158Y-73346179D01*
X108004338Y-73353617D01*
X107970537Y-73371993D01*
X107946066Y-73385568D01*
X107935476Y-73391827D01*
X107935168Y-73394402D01*
X107741862Y-73394402D01*
X107744223Y-73393022D01*
X107762308Y-73379622D01*
X107765274Y-73371797D01*
X107759561Y-73365985D01*
X107771339Y-73368475D01*
X107778075Y-73368532D01*
X107803218Y-73361149D01*
X107841807Y-73345153D01*
X107890973Y-73322099D01*
X107947850Y-73293542D01*
X108009570Y-73261039D01*
X108073267Y-73226144D01*
X108136072Y-73190414D01*
X108195119Y-73155403D01*
X108247540Y-73122668D01*
X108290468Y-73093764D01*
X108321037Y-73070246D01*
X108333082Y-73059390D01*
X108344277Y-73047420D01*
X108341925Y-73045876D01*
X108340759Y-73045918D01*
X108346769Y-73037752D01*
X108354354Y-73037752D01*
X108359818Y-73040282D01*
X108373361Y-73033045D01*
X108389915Y-73017921D01*
X108402616Y-73003164D01*
X108402390Y-72999905D01*
X108386894Y-73007533D01*
X108371211Y-73017296D01*
X108357556Y-73029941D01*
X108354354Y-73037752D01*
X108346769Y-73037752D01*
X108347244Y-73037107D01*
X108365878Y-73017175D01*
X108394437Y-72988442D01*
X108420001Y-72963617D01*
X108446365Y-72963617D01*
X108446885Y-72966304D01*
X108454950Y-72963455D01*
X108473468Y-72943721D01*
X108493364Y-72920222D01*
X108469865Y-72940118D01*
X108453409Y-72955087D01*
X108446365Y-72963617D01*
X108420001Y-72963617D01*
X108430699Y-72953228D01*
X108441511Y-72942933D01*
X108480033Y-72907123D01*
X108513441Y-72877356D01*
X108538464Y-72856490D01*
X108551832Y-72847382D01*
X108565669Y-72837142D01*
X108580359Y-72815515D01*
X108591334Y-72798576D01*
X108603117Y-72792217D01*
X108610228Y-72787775D01*
X108626126Y-72770509D01*
X108646593Y-72744829D01*
X108668049Y-72715635D01*
X108686918Y-72687827D01*
X108699622Y-72666307D01*
X108702582Y-72655975D01*
X108701373Y-72655594D01*
X108695015Y-72658814D01*
X108681993Y-72669249D01*
X108660226Y-72688733D01*
X108627635Y-72719099D01*
X108582138Y-72762183D01*
X108514017Y-72825573D01*
X108411475Y-72914640D01*
X108312798Y-72991415D01*
X108213418Y-73059150D01*
X108108768Y-73121095D01*
X107994279Y-73180500D01*
X107970375Y-73192474D01*
X107917789Y-73220288D01*
X107867687Y-73248477D01*
X107828309Y-73272476D01*
X107799448Y-73290812D01*
X107694813Y-73351268D01*
X107572473Y-73414045D01*
X107434592Y-73478070D01*
X107283338Y-73542271D01*
X107252290Y-73554988D01*
X107183656Y-73583709D01*
X107119119Y-73611498D01*
X107062511Y-73636666D01*
X107017662Y-73657521D01*
X106988402Y-73672375D01*
X106956291Y-73691968D01*
X106884314Y-73746316D01*
X106814624Y-73812059D01*
X106753551Y-73883510D01*
X106687562Y-73969185D01*
X106618865Y-74053626D01*
X106615991Y-74056886D01*
X106607240Y-74066813D01*
X106557667Y-74123048D01*
X106552942Y-74127856D01*
X106502506Y-74179174D01*
X106484873Y-74196330D01*
X106457011Y-74225310D01*
X106437811Y-74247843D01*
X106430658Y-74260116D01*
X106104846Y-74260116D01*
X106102687Y-74259653D01*
X106177527Y-74240647D01*
X106214362Y-74230965D01*
X106250395Y-74219518D01*
X106278303Y-74206485D01*
X106305087Y-74188424D01*
X106337747Y-74161895D01*
X106353387Y-74148508D01*
X106368828Y-74133544D01*
X106369772Y-74127856D01*
X106357550Y-74129252D01*
X106352989Y-74130014D01*
X106325956Y-74131213D01*
X106286914Y-74130217D01*
X106242665Y-74127152D01*
X106221583Y-74125050D01*
X106195748Y-74121584D01*
X106186384Y-74118832D01*
X106195666Y-74117252D01*
X106201941Y-74116927D01*
X106224321Y-74113977D01*
X106227912Y-74109403D01*
X106214388Y-74103708D01*
X106185424Y-74097393D01*
X106142694Y-74090960D01*
X106087872Y-74084913D01*
X106037995Y-74081120D01*
X105918109Y-74079214D01*
X105801191Y-74087035D01*
X105690771Y-74103834D01*
X105690087Y-74103938D01*
X105587644Y-74129280D01*
X105523958Y-74152486D01*
X105496709Y-74162415D01*
X105420129Y-74202700D01*
X105419299Y-74203354D01*
X105360752Y-74249490D01*
X105346543Y-74262815D01*
X105330023Y-74275137D01*
X105323586Y-74275087D01*
X105323961Y-74271787D01*
X105334030Y-74257064D01*
X105338269Y-74253105D01*
X105344474Y-74235148D01*
X105342315Y-74226270D01*
X105331419Y-74230172D01*
X105325986Y-74234511D01*
X105324621Y-74235601D01*
X105303066Y-74252753D01*
X105272000Y-74277435D01*
X105235634Y-74306304D01*
X105227326Y-74312937D01*
X105175073Y-74357587D01*
X105168814Y-74362935D01*
X105127160Y-74405751D01*
X105114327Y-74423969D01*
X105100723Y-74443282D01*
X105092188Y-74465945D01*
X105088255Y-74476390D01*
X105087864Y-74477428D01*
X105081407Y-74509714D01*
X104786449Y-74509714D01*
X104803413Y-74493358D01*
X104808223Y-74484971D01*
X104804241Y-74485231D01*
X104800591Y-74486834D01*
X104786254Y-74493131D01*
X104758573Y-74508142D01*
X104726142Y-74527390D01*
X104693907Y-74548004D01*
X104666811Y-74567112D01*
X104641904Y-74586052D01*
X104313334Y-74586052D01*
X104308413Y-74585362D01*
X104303405Y-74584354D01*
X104262384Y-74575718D01*
X104239038Y-74568926D01*
X104230793Y-74561995D01*
X104235076Y-74552938D01*
X104249315Y-74539771D01*
X104276895Y-74515910D01*
X104185602Y-74509429D01*
X104112612Y-74502508D01*
X104048326Y-74492512D01*
X104029369Y-74487721D01*
X104449887Y-74487721D01*
X104454712Y-74491239D01*
X104477903Y-74491569D01*
X104483495Y-74491280D01*
X104504585Y-74486834D01*
X104571612Y-74486834D01*
X104576834Y-74492056D01*
X104582056Y-74486834D01*
X104576834Y-74481612D01*
X104571612Y-74486834D01*
X104504585Y-74486834D01*
X104514575Y-74484728D01*
X104536747Y-74476390D01*
X104592500Y-74476390D01*
X104597722Y-74481612D01*
X104602944Y-74476390D01*
X104597722Y-74471168D01*
X104592500Y-74476390D01*
X104536747Y-74476390D01*
X104548985Y-74471788D01*
X104560339Y-74465945D01*
X104613388Y-74465945D01*
X104618611Y-74471168D01*
X104623833Y-74465945D01*
X104618611Y-74460723D01*
X104613388Y-74465945D01*
X104560339Y-74465945D01*
X104580845Y-74455392D01*
X104604272Y-74438474D01*
X104613388Y-74423969D01*
X104612968Y-74417020D01*
X104609466Y-74408503D01*
X104598296Y-74411994D01*
X104594172Y-74413725D01*
X104573537Y-74422387D01*
X104541609Y-74436910D01*
X104508537Y-74452741D01*
X104480347Y-74467060D01*
X104463064Y-74477047D01*
X104460916Y-74478557D01*
X104449887Y-74487721D01*
X104029369Y-74487721D01*
X103999870Y-74480266D01*
X103969755Y-74466270D01*
X103958140Y-74456678D01*
X103957042Y-74446717D01*
X103970224Y-74430334D01*
X103985255Y-74413725D01*
X104300066Y-74413725D01*
X104305288Y-74418947D01*
X104310510Y-74413725D01*
X104305288Y-74408503D01*
X104300066Y-74413725D01*
X103985255Y-74413725D01*
X103989981Y-74408503D01*
X103907421Y-74408248D01*
X103905012Y-74408236D01*
X103857672Y-74406629D01*
X103812104Y-74402906D01*
X103777862Y-74397836D01*
X103776815Y-74397607D01*
X103774052Y-74396856D01*
X104200847Y-74396856D01*
X104254825Y-74397457D01*
X104274307Y-74397968D01*
X104304727Y-74400026D01*
X104322711Y-74402972D01*
X104325641Y-74403525D01*
X104346817Y-74401050D01*
X104377949Y-74392941D01*
X104411799Y-74381565D01*
X104441129Y-74369291D01*
X104458703Y-74358485D01*
X104459412Y-74357587D01*
X104452925Y-74356724D01*
X104431531Y-74362224D01*
X104399125Y-74373130D01*
X104359996Y-74386386D01*
X104332152Y-74393202D01*
X104322868Y-74391204D01*
X104332088Y-74380696D01*
X104359758Y-74361986D01*
X104405824Y-74335379D01*
X104431671Y-74320660D01*
X104450537Y-74308851D01*
X104455216Y-74304251D01*
X104439567Y-74307171D01*
X104409298Y-74315884D01*
X104397469Y-74319728D01*
X104370361Y-74328537D01*
X104328299Y-74343253D01*
X104288655Y-74358155D01*
X104256973Y-74371367D01*
X104200847Y-74396856D01*
X103774052Y-74396856D01*
X103747044Y-74389515D01*
X103708985Y-74377129D01*
X103667330Y-74362248D01*
X103626768Y-74346670D01*
X103591988Y-74332193D01*
X103567681Y-74320616D01*
X103566501Y-74319728D01*
X103986744Y-74319728D01*
X103991966Y-74324950D01*
X103997188Y-74319728D01*
X103992645Y-74315185D01*
X104006980Y-74315185D01*
X104019344Y-74317620D01*
X104044386Y-74317048D01*
X104077536Y-74313932D01*
X104114227Y-74308735D01*
X104149891Y-74301919D01*
X104179959Y-74293946D01*
X104191712Y-74289848D01*
X104223819Y-74276986D01*
X104258204Y-74261581D01*
X104271247Y-74255177D01*
X104787310Y-74255177D01*
X104792260Y-74257978D01*
X104814187Y-74261147D01*
X104845871Y-74260430D01*
X104881184Y-74256618D01*
X104913995Y-74250501D01*
X104938177Y-74242868D01*
X104947599Y-74234511D01*
X104947286Y-74233732D01*
X104935408Y-74231778D01*
X104911663Y-74234052D01*
X104909018Y-74234455D01*
X104883998Y-74235039D01*
X104872116Y-74229051D01*
X104871266Y-74227497D01*
X104856178Y-74224979D01*
X104851738Y-74226118D01*
X104824353Y-74233143D01*
X104811172Y-74238057D01*
X104791760Y-74248029D01*
X104787310Y-74255177D01*
X104271247Y-74255177D01*
X104289460Y-74246234D01*
X104312180Y-74233546D01*
X104320954Y-74226118D01*
X104315903Y-74225954D01*
X104295988Y-74230813D01*
X104266123Y-74240193D01*
X104253944Y-74244154D01*
X104212715Y-74256448D01*
X104162681Y-74270309D01*
X104112073Y-74283425D01*
X104085072Y-74290220D01*
X104046925Y-74300132D01*
X104019868Y-74307573D01*
X104008502Y-74311303D01*
X104006980Y-74315185D01*
X103992645Y-74315185D01*
X103991966Y-74314506D01*
X103986744Y-74319728D01*
X103566501Y-74319728D01*
X103558537Y-74313737D01*
X103563912Y-74309859D01*
X103584774Y-74302540D01*
X103615979Y-74294531D01*
X103640138Y-74288389D01*
X103657779Y-74282338D01*
X103981522Y-74282338D01*
X104018076Y-74281544D01*
X104036596Y-74280907D01*
X104055829Y-74279100D01*
X104077143Y-74275169D01*
X104105005Y-74268095D01*
X104143880Y-74256859D01*
X104198236Y-74240442D01*
X104228772Y-74230869D01*
X104265571Y-74218419D01*
X104290740Y-74208736D01*
X104300066Y-74203354D01*
X104297452Y-74201215D01*
X104279351Y-74200981D01*
X104247611Y-74205067D01*
X104206472Y-74212536D01*
X104160173Y-74222451D01*
X104112954Y-74233875D01*
X104069054Y-74245873D01*
X104032714Y-74257507D01*
X104008173Y-74267841D01*
X103981522Y-74282338D01*
X103657779Y-74282338D01*
X103664134Y-74280158D01*
X103673421Y-74273797D01*
X103665139Y-74269263D01*
X103640135Y-74261745D01*
X103602424Y-74252554D01*
X103556076Y-74242765D01*
X103441712Y-74214555D01*
X103313892Y-74167302D01*
X103241549Y-74130143D01*
X103773072Y-74130143D01*
X103789323Y-74133146D01*
X103823537Y-74134161D01*
X103877081Y-74132785D01*
X103904878Y-74131726D01*
X103947374Y-74131006D01*
X103969756Y-74132392D01*
X103971909Y-74136040D01*
X103953721Y-74142110D01*
X103915075Y-74150761D01*
X103855857Y-74162150D01*
X103822073Y-74168674D01*
X103802337Y-74173473D01*
X103801787Y-74175756D01*
X103819638Y-74175821D01*
X103849334Y-74174435D01*
X103929791Y-74167467D01*
X104003903Y-74156601D01*
X104015854Y-74153879D01*
X104576834Y-74153879D01*
X104612336Y-74166306D01*
X104624444Y-74169744D01*
X104666956Y-74175777D01*
X104717777Y-74177361D01*
X104768125Y-74174463D01*
X104809215Y-74167049D01*
X104809422Y-74166989D01*
X104835425Y-74158056D01*
X104841172Y-74152486D01*
X104827075Y-74150652D01*
X104793549Y-74152927D01*
X104743939Y-74158053D01*
X104785716Y-74143378D01*
X104827492Y-74128703D01*
X104775272Y-74128433D01*
X104743347Y-74129735D01*
X104696350Y-74134287D01*
X104649943Y-74141021D01*
X104576834Y-74153879D01*
X104015854Y-74153879D01*
X104064446Y-74142811D01*
X104073622Y-74140080D01*
X104103704Y-74129050D01*
X104118543Y-74117947D01*
X104122517Y-74103834D01*
X104122512Y-74102444D01*
X104121192Y-74092686D01*
X104114812Y-74087061D01*
X104099431Y-74084962D01*
X104071110Y-74085779D01*
X104025909Y-74088903D01*
X103976079Y-74093003D01*
X103913315Y-74099451D01*
X103860298Y-74106335D01*
X103818395Y-74113249D01*
X103788977Y-74119791D01*
X103773413Y-74125557D01*
X103773072Y-74130143D01*
X103241549Y-74130143D01*
X103187772Y-74102520D01*
X103104219Y-74053782D01*
X103213882Y-74053433D01*
X103274997Y-74052093D01*
X103317232Y-74048474D01*
X103339199Y-74042624D01*
X103340475Y-74035901D01*
X104435839Y-74035901D01*
X104439060Y-74038816D01*
X104457006Y-74046956D01*
X104485449Y-74056874D01*
X104494373Y-74059592D01*
X104580696Y-74076275D01*
X104660387Y-74073609D01*
X104702163Y-74066813D01*
X104660387Y-74063908D01*
X104640850Y-74062126D01*
X104634549Y-74060027D01*
X104719677Y-74060027D01*
X104728273Y-74063848D01*
X104733802Y-74063095D01*
X104735236Y-74056886D01*
X104733705Y-74055636D01*
X104721311Y-74056886D01*
X104719677Y-74060027D01*
X104634549Y-74060027D01*
X104633168Y-74059567D01*
X104644721Y-74056320D01*
X104648810Y-74055566D01*
X104672157Y-74049555D01*
X104674830Y-74044359D01*
X104657011Y-74040024D01*
X104618879Y-74036598D01*
X104560615Y-74034130D01*
X104559718Y-74034104D01*
X104511582Y-74033147D01*
X104472197Y-74033166D01*
X104445602Y-74034103D01*
X104435839Y-74035901D01*
X103340475Y-74035901D01*
X103340724Y-74034589D01*
X103321639Y-74024417D01*
X103306651Y-74018985D01*
X103272498Y-74007392D01*
X103234770Y-73995238D01*
X103196930Y-73982284D01*
X103129409Y-73954701D01*
X103062781Y-73922669D01*
X103003495Y-73889385D01*
X102992893Y-73882082D01*
X103266102Y-73882082D01*
X103270872Y-73888363D01*
X103292874Y-73898420D01*
X103329431Y-73908570D01*
X103376864Y-73917633D01*
X103415198Y-73923776D01*
X103451370Y-73929783D01*
X103474984Y-73933946D01*
X103477711Y-73934446D01*
X103503369Y-73938519D01*
X103541319Y-73943979D01*
X103584398Y-73949790D01*
X103626159Y-73955705D01*
X103658240Y-73961564D01*
X103671298Y-73966022D01*
X103664744Y-73968858D01*
X103637991Y-73969852D01*
X103631604Y-73969965D01*
X103610048Y-73973276D01*
X103605535Y-73980296D01*
X103605674Y-73980485D01*
X103618764Y-73984162D01*
X103647857Y-73986864D01*
X103688301Y-73988574D01*
X103735445Y-73989270D01*
X103784636Y-73988934D01*
X103831221Y-73987545D01*
X103870550Y-73985084D01*
X103897969Y-73981532D01*
X103920731Y-73972167D01*
X103932116Y-73957904D01*
X103932118Y-73957891D01*
X103929973Y-73948824D01*
X103917714Y-73941889D01*
X103891769Y-73935876D01*
X103848563Y-73929571D01*
X103794587Y-73923236D01*
X103733050Y-73917021D01*
X103678643Y-73912440D01*
X103672640Y-73912004D01*
X103663061Y-73911233D01*
X104313453Y-73911233D01*
X104321143Y-73917140D01*
X104343222Y-73928794D01*
X104375102Y-73943766D01*
X104414166Y-73957891D01*
X104431908Y-73964306D01*
X104513703Y-73977382D01*
X104529779Y-73978255D01*
X104561176Y-73978773D01*
X104574478Y-73976301D01*
X104571612Y-73970612D01*
X104570622Y-73969898D01*
X104561434Y-73959501D01*
X104570606Y-73949967D01*
X104571285Y-73944114D01*
X104552461Y-73938534D01*
X104513163Y-73933452D01*
X104477030Y-73929603D01*
X104424383Y-73923258D01*
X104379009Y-73917041D01*
X104350682Y-73913206D01*
X104324817Y-73910749D01*
X104313516Y-73911144D01*
X104313453Y-73911233D01*
X103663061Y-73911233D01*
X103618433Y-73907641D01*
X103557208Y-73902161D01*
X103501094Y-73896642D01*
X103447498Y-73891403D01*
X103392228Y-73886722D01*
X103342691Y-73883217D01*
X103302650Y-73881119D01*
X103275866Y-73880663D01*
X103266102Y-73882082D01*
X102992893Y-73882082D01*
X102958002Y-73858047D01*
X102948648Y-73850447D01*
X102912107Y-73819337D01*
X102878788Y-73788964D01*
X102851914Y-73762468D01*
X102834706Y-73742989D01*
X102830385Y-73733666D01*
X102830467Y-73733603D01*
X102842425Y-73734106D01*
X102870557Y-73738251D01*
X102910765Y-73745367D01*
X102958953Y-73754779D01*
X102960741Y-73755143D01*
X103044512Y-73771391D01*
X103108372Y-73782027D01*
X103152529Y-73787046D01*
X103177189Y-73786445D01*
X103182559Y-73780218D01*
X103168847Y-73768361D01*
X103136259Y-73750869D01*
X103118473Y-73741970D01*
X103029374Y-73688876D01*
X102945213Y-73625213D01*
X102922926Y-73604309D01*
X103098997Y-73604309D01*
X103101134Y-73609410D01*
X103115662Y-73614753D01*
X103116914Y-73614806D01*
X103137325Y-73621524D01*
X103162264Y-73636070D01*
X103162620Y-73636322D01*
X103187757Y-73651159D01*
X103224430Y-73669464D01*
X103264830Y-73687337D01*
X103305953Y-73705236D01*
X103349232Y-73725749D01*
X103382722Y-73743346D01*
X103388502Y-73746489D01*
X103423921Y-73762132D01*
X103469464Y-73778491D01*
X103516760Y-73792494D01*
X103517066Y-73792574D01*
X103558271Y-73802098D01*
X103600516Y-73809008D01*
X103648760Y-73813795D01*
X103707963Y-73816954D01*
X103783084Y-73818977D01*
X103829851Y-73819684D01*
X103879922Y-73819764D01*
X103910991Y-73818794D01*
X103922435Y-73816800D01*
X103916971Y-73814941D01*
X104303013Y-73814941D01*
X104305452Y-73816800D01*
X104313621Y-73823028D01*
X104336338Y-73835984D01*
X104344773Y-73840148D01*
X104376337Y-73851025D01*
X104416802Y-73857614D01*
X104472111Y-73861013D01*
X104496114Y-73861658D01*
X104526584Y-73861792D01*
X104542330Y-73860828D01*
X104540280Y-73858863D01*
X104477080Y-73846089D01*
X104405873Y-73831944D01*
X104352701Y-73821721D01*
X104318361Y-73815573D01*
X104303648Y-73813652D01*
X104303013Y-73814941D01*
X103916971Y-73814941D01*
X103913635Y-73813806D01*
X103904746Y-73812078D01*
X103886198Y-73807968D01*
X104279178Y-73807968D01*
X104284400Y-73813191D01*
X104289622Y-73807968D01*
X104284400Y-73802746D01*
X104279178Y-73807968D01*
X103886198Y-73807968D01*
X103884433Y-73807577D01*
X103857161Y-73800905D01*
X103821288Y-73791614D01*
X103775175Y-73779260D01*
X103770705Y-73778037D01*
X104521239Y-73778037D01*
X104529836Y-73781858D01*
X104535365Y-73781105D01*
X104536799Y-73774896D01*
X104535268Y-73773646D01*
X104522873Y-73774896D01*
X104521239Y-73778037D01*
X103770705Y-73778037D01*
X103732530Y-73767593D01*
X104469019Y-73767593D01*
X104477615Y-73771414D01*
X104483145Y-73770660D01*
X104484578Y-73764451D01*
X104483047Y-73763202D01*
X104470653Y-73764451D01*
X104469019Y-73767593D01*
X103732530Y-73767593D01*
X103717182Y-73763394D01*
X103645667Y-73743571D01*
X103558991Y-73719343D01*
X103539877Y-73713972D01*
X104247846Y-73713972D01*
X104253068Y-73719194D01*
X104258290Y-73713972D01*
X104253068Y-73708750D01*
X104247846Y-73713972D01*
X103539877Y-73713972D01*
X103455512Y-73690265D01*
X103333592Y-73655889D01*
X103289191Y-73643355D01*
X103225000Y-73625296D01*
X103177160Y-73612058D01*
X103143269Y-73603113D01*
X103120926Y-73597934D01*
X103107730Y-73595992D01*
X103101277Y-73596759D01*
X103099167Y-73599708D01*
X103098997Y-73604309D01*
X102922926Y-73604309D01*
X102869890Y-73554563D01*
X102807309Y-73480510D01*
X102761372Y-73406637D01*
X102742096Y-73366814D01*
X102726929Y-73330199D01*
X102723164Y-73309817D01*
X102731078Y-73304772D01*
X102750952Y-73314173D01*
X102783064Y-73337124D01*
X102805429Y-73353179D01*
X102856767Y-73385482D01*
X102916572Y-73419055D01*
X102978466Y-73450561D01*
X103036071Y-73476663D01*
X103083009Y-73494027D01*
X103102358Y-73499717D01*
X103120070Y-73503466D01*
X103124377Y-73499883D01*
X103119304Y-73488338D01*
X103110679Y-73476730D01*
X103096019Y-73468472D01*
X103090267Y-73466569D01*
X103070054Y-73452525D01*
X103041042Y-73427421D01*
X103006544Y-73394363D01*
X102969873Y-73356459D01*
X102960140Y-73345600D01*
X103100098Y-73345600D01*
X103109385Y-73358092D01*
X103125356Y-73364095D01*
X103136504Y-73368361D01*
X103151217Y-73384983D01*
X103161909Y-73397458D01*
X103182550Y-73405871D01*
X103196812Y-73410033D01*
X103213882Y-73426760D01*
X103224368Y-73439263D01*
X103244010Y-73447648D01*
X103253863Y-73449725D01*
X103279241Y-73460998D01*
X103308918Y-73478790D01*
X103326840Y-73490373D01*
X103351884Y-73504520D01*
X103366653Y-73510122D01*
X103375538Y-73513031D01*
X103392064Y-73526741D01*
X103412210Y-73542321D01*
X103450134Y-73562595D01*
X103503059Y-73586176D01*
X103568401Y-73611916D01*
X103643574Y-73638663D01*
X103677386Y-73649831D01*
X103724817Y-73664556D01*
X103764915Y-73675948D01*
X103791500Y-73682187D01*
X103831248Y-73689027D01*
X103809777Y-73667556D01*
X103795010Y-73650281D01*
X103788306Y-73636991D01*
X103786246Y-73633713D01*
X103772025Y-73624209D01*
X103743414Y-73609593D01*
X103699386Y-73589401D01*
X103638915Y-73563170D01*
X103560975Y-73530436D01*
X103502993Y-73506566D01*
X103832272Y-73506566D01*
X103844666Y-73515161D01*
X103872822Y-73530955D01*
X103916010Y-73553283D01*
X103977514Y-73582279D01*
X104081909Y-73624827D01*
X104189167Y-73661551D01*
X104289622Y-73688941D01*
X104289996Y-73689027D01*
X104293220Y-73689769D01*
X104347983Y-73702638D01*
X104394909Y-73713972D01*
X104406510Y-73716774D01*
X104456727Y-73729264D01*
X104502342Y-73740017D01*
X104561882Y-73752478D01*
X104615746Y-73762298D01*
X104618921Y-73762818D01*
X104627545Y-73764451D01*
X104659998Y-73770596D01*
X104675489Y-73774896D01*
X104683638Y-73777158D01*
X104689061Y-73781880D01*
X104675488Y-73784143D01*
X104642137Y-73783325D01*
X104624050Y-73782473D01*
X104605680Y-73782971D01*
X104607982Y-73786220D01*
X104630937Y-73792216D01*
X104674522Y-73800950D01*
X104713807Y-73807968D01*
X104738717Y-73812418D01*
X104747860Y-73814010D01*
X104867972Y-73838273D01*
X104956125Y-73860828D01*
X104980971Y-73867185D01*
X105084103Y-73899786D01*
X105174612Y-73935119D01*
X105249745Y-73972223D01*
X105255875Y-73976301D01*
X105306745Y-74010141D01*
X105336855Y-74032035D01*
X105361555Y-74042593D01*
X105377253Y-74038032D01*
X105380969Y-74035487D01*
X105403214Y-74026917D01*
X105439399Y-74016707D01*
X105484619Y-74005909D01*
X105533968Y-73995574D01*
X105582543Y-73986756D01*
X105625438Y-73980505D01*
X105657748Y-73977873D01*
X105660685Y-73977816D01*
X105696174Y-73976678D01*
X105721342Y-73975063D01*
X105730905Y-73973301D01*
X105729845Y-73971659D01*
X105715271Y-73962161D01*
X105686728Y-73947215D01*
X105648232Y-73928670D01*
X105603798Y-73908375D01*
X105557442Y-73888179D01*
X105513179Y-73869931D01*
X105475025Y-73855480D01*
X105418086Y-73836247D01*
X105355424Y-73817535D01*
X105290764Y-73801199D01*
X105220964Y-73786651D01*
X105142880Y-73773305D01*
X105053368Y-73760573D01*
X104949287Y-73747870D01*
X104827492Y-73734609D01*
X104759597Y-73727328D01*
X104639809Y-73713215D01*
X104535787Y-73698971D01*
X104444139Y-73684070D01*
X104361474Y-73667984D01*
X104284400Y-73650187D01*
X104211060Y-73630941D01*
X104133875Y-73609045D01*
X104058004Y-73586083D01*
X103988198Y-73563540D01*
X103929205Y-73542901D01*
X103885775Y-73525647D01*
X103857682Y-73513635D01*
X103836368Y-73505836D01*
X103832272Y-73506566D01*
X103502993Y-73506566D01*
X103464540Y-73490736D01*
X103450776Y-73485084D01*
X103386221Y-73458042D01*
X103319872Y-73429512D01*
X103258798Y-73402563D01*
X103210066Y-73380263D01*
X103174794Y-73364079D01*
X103138488Y-73348529D01*
X103112864Y-73338878D01*
X103101969Y-73336754D01*
X103100098Y-73345600D01*
X102960140Y-73345600D01*
X102934342Y-73316817D01*
X102929819Y-73311378D01*
X102902513Y-73273780D01*
X102873407Y-73227507D01*
X102848080Y-73181324D01*
X102835432Y-73154327D01*
X102817393Y-73108676D01*
X102804344Y-73066363D01*
X102797220Y-73031297D01*
X102796954Y-73007390D01*
X102804477Y-72998552D01*
X102807182Y-72999330D01*
X102823885Y-73009851D01*
X102850150Y-73030093D01*
X102881617Y-73056766D01*
X102955178Y-73116574D01*
X103055752Y-73187158D01*
X103166300Y-73254897D01*
X103281101Y-73316320D01*
X103394429Y-73367953D01*
X103408979Y-73373717D01*
X103423647Y-73377415D01*
X103425675Y-73371574D01*
X103414905Y-73353955D01*
X103391176Y-73322319D01*
X103385561Y-73314839D01*
X103342114Y-73239287D01*
X103316429Y-73154680D01*
X103307937Y-73059222D01*
X103308929Y-73024575D01*
X103314100Y-72993640D01*
X103324398Y-72982177D01*
X103340609Y-72989561D01*
X103363520Y-73015169D01*
X103410649Y-73070225D01*
X103470622Y-73130814D01*
X103537911Y-73191881D01*
X103607085Y-73248500D01*
X103672715Y-73295743D01*
X103758716Y-73348778D01*
X103915335Y-73428851D01*
X104085777Y-73496451D01*
X104270773Y-73551783D01*
X104471051Y-73595051D01*
X104687342Y-73626462D01*
X104920375Y-73646219D01*
X105006097Y-73651712D01*
X105079962Y-73657955D01*
X105144092Y-73665537D01*
X105204164Y-73675253D01*
X105265856Y-73687897D01*
X105334847Y-73704267D01*
X105393029Y-73719473D01*
X105584560Y-73781503D01*
X105763040Y-73858866D01*
X105930000Y-73952199D01*
X105963609Y-73973301D01*
X106018851Y-74007985D01*
X106165247Y-74020250D01*
X106230199Y-74024998D01*
X106299558Y-74028905D01*
X106364740Y-74031546D01*
X106417441Y-74032516D01*
X106523240Y-74032516D01*
X106622297Y-73903748D01*
X106643209Y-73876927D01*
X106722102Y-73783087D01*
X106797150Y-73706427D01*
X106870556Y-73644846D01*
X106944523Y-73596243D01*
X106954321Y-73590857D01*
X106993333Y-73571247D01*
X107046154Y-73546435D01*
X107108662Y-73518290D01*
X107176736Y-73488680D01*
X107246255Y-73459473D01*
X107335207Y-73422206D01*
X107452213Y-73370696D01*
X107553592Y-73322484D01*
X107642015Y-73276145D01*
X107720155Y-73230255D01*
X107790684Y-73183387D01*
X107856275Y-73134117D01*
X107882699Y-73112031D01*
X107920383Y-73078041D01*
X107959451Y-73040661D01*
X107996500Y-73003339D01*
X108028126Y-72969523D01*
X108050926Y-72942663D01*
X108061494Y-72926206D01*
X108065281Y-72919884D01*
X108077741Y-72918317D01*
X108083992Y-72932670D01*
X108080547Y-72964553D01*
X108072003Y-73003774D01*
X108124449Y-72946332D01*
X108153760Y-72913397D01*
X108182991Y-72879069D01*
X108204412Y-72852335D01*
X108209297Y-72845902D01*
X108235441Y-72812703D01*
X108266103Y-72775232D01*
X108298341Y-72736909D01*
X108329212Y-72701150D01*
X108355773Y-72671376D01*
X108375083Y-72651004D01*
X108384198Y-72643454D01*
X108385399Y-72643608D01*
X108389882Y-72654400D01*
X108386812Y-72679200D01*
X108377626Y-72713793D01*
X108363760Y-72753964D01*
X108346650Y-72795499D01*
X108327732Y-72834182D01*
X108308442Y-72865799D01*
X108302669Y-72874786D01*
X108302139Y-72881778D01*
X108314069Y-72876438D01*
X108336751Y-72860180D01*
X108368477Y-72834417D01*
X108407540Y-72800561D01*
X108452233Y-72760025D01*
X108500847Y-72714222D01*
X108551675Y-72664565D01*
X108624293Y-72589118D01*
X108724279Y-72473892D01*
X108813010Y-72357607D01*
X108886607Y-72245120D01*
X108889473Y-72240309D01*
X108910595Y-72206355D01*
X108924549Y-72188204D01*
X108933662Y-72183451D01*
X108940262Y-72189691D01*
X108948923Y-72217220D01*
X108954283Y-72258984D01*
X108956097Y-72308521D01*
X108954129Y-72359383D01*
X108948144Y-72405124D01*
X108943731Y-72424024D01*
X108924895Y-72481125D01*
X108898337Y-72543368D01*
X108867764Y-72602581D01*
X108836879Y-72650590D01*
X108836039Y-72651714D01*
X108833319Y-72655975D01*
X108818311Y-72679482D01*
X108811701Y-72698845D01*
X108817498Y-72706118D01*
X108826786Y-72703909D01*
X108853244Y-72688001D01*
X108889467Y-72658425D01*
X108933624Y-72617177D01*
X108983881Y-72566250D01*
X109033509Y-72512903D01*
X109177451Y-72512903D01*
X109182673Y-72518125D01*
X109187895Y-72512903D01*
X109182673Y-72507681D01*
X109177451Y-72512903D01*
X109033509Y-72512903D01*
X109038407Y-72507638D01*
X109052247Y-72492015D01*
X109187895Y-72492015D01*
X109193117Y-72497237D01*
X109198339Y-72492015D01*
X109193117Y-72486793D01*
X109187895Y-72492015D01*
X109052247Y-72492015D01*
X109095369Y-72443336D01*
X109152935Y-72375337D01*
X109209273Y-72305635D01*
X109262551Y-72236225D01*
X109310935Y-72169101D01*
X109326786Y-72148365D01*
X109345371Y-72129477D01*
X109357454Y-72123808D01*
X109359075Y-72124477D01*
X109371869Y-72141244D01*
X109380558Y-72174734D01*
X109384555Y-72221455D01*
X109383275Y-72277911D01*
X109376595Y-72328641D01*
X109357985Y-72404507D01*
X109330574Y-72483599D01*
X109326849Y-72492015D01*
X109317604Y-72512903D01*
G37*
G36*
X103379022Y-76531142D02*
G01*
X103392232Y-76552521D01*
X103399854Y-76567142D01*
X103417147Y-76598904D01*
X103441107Y-76642111D01*
X103469668Y-76693043D01*
X103500764Y-76747977D01*
X103511077Y-76766126D01*
X103556649Y-76846719D01*
X103599060Y-76922337D01*
X103637104Y-76990789D01*
X103669575Y-77049885D01*
X103695269Y-77097434D01*
X103712980Y-77131246D01*
X103721503Y-77149130D01*
X103723439Y-77157864D01*
X103717567Y-77166529D01*
X103703599Y-77164957D01*
X103687294Y-77154626D01*
X103674408Y-77137019D01*
X103668085Y-77123914D01*
X103650452Y-77090247D01*
X103625259Y-77044002D01*
X103594377Y-76988527D01*
X103559675Y-76927169D01*
X103523022Y-76863277D01*
X103486289Y-76800197D01*
X103468702Y-76769947D01*
X103442551Y-76723950D01*
X103420147Y-76683390D01*
X103404975Y-76654513D01*
X103400430Y-76645364D01*
X103390998Y-76628014D01*
X103383724Y-76621088D01*
X103377279Y-76626582D01*
X103370333Y-76646491D01*
X103361554Y-76682810D01*
X103349614Y-76737533D01*
X103349381Y-76738607D01*
X103340278Y-76779800D01*
X103328582Y-76831489D01*
X103315196Y-76889816D01*
X103301024Y-76950923D01*
X103286968Y-77010952D01*
X103273933Y-77066045D01*
X103262820Y-77112345D01*
X103254535Y-77145992D01*
X103249978Y-77163129D01*
X103249720Y-77163919D01*
X103239965Y-77175869D01*
X103229429Y-77171212D01*
X103224726Y-77152685D01*
X103224746Y-77152007D01*
X103227364Y-77131879D01*
X103233842Y-77095950D01*
X103243503Y-77047240D01*
X103255670Y-76988770D01*
X103269665Y-76923561D01*
X103284812Y-76854634D01*
X103300432Y-76785009D01*
X103315850Y-76717708D01*
X103330387Y-76655750D01*
X103343366Y-76602157D01*
X103354109Y-76559949D01*
X103361941Y-76532147D01*
X103366183Y-76521772D01*
X103367689Y-76521708D01*
X103379022Y-76531142D01*
G37*
G36*
X107157125Y-75359384D02*
G01*
X107166966Y-75369358D01*
X107168911Y-75373056D01*
X107168199Y-75379802D01*
X107166362Y-75379332D01*
X107156522Y-75369358D01*
X107154576Y-75365661D01*
X107155289Y-75358914D01*
X107157125Y-75359384D01*
G37*
G36*
X105783125Y-75150033D02*
G01*
X105782372Y-75155562D01*
X105776163Y-75156995D01*
X105774913Y-75155465D01*
X105776163Y-75143070D01*
X105779304Y-75141436D01*
X105783125Y-75150033D01*
G37*
G36*
X105172424Y-74582487D02*
G01*
X105184659Y-74592675D01*
X105182126Y-74602525D01*
X105163189Y-74606941D01*
X105144700Y-74609439D01*
X105130265Y-74617555D01*
X105125537Y-74623289D01*
X105115866Y-74624211D01*
X105111147Y-74612861D01*
X105115378Y-74595237D01*
X105127426Y-74581799D01*
X105153767Y-74577593D01*
X105172424Y-74582487D01*
G37*
G36*
X105571474Y-74659595D02*
G01*
X105570647Y-74665745D01*
X105552836Y-74675842D01*
X105545513Y-74678365D01*
X105516848Y-74683889D01*
X105482338Y-74686810D01*
X105471231Y-74687115D01*
X105449875Y-74686847D01*
X105446611Y-74684153D01*
X105459359Y-74678257D01*
X105475179Y-74672647D01*
X105507171Y-74663917D01*
X105536225Y-74658772D01*
X105558830Y-74657301D01*
X105571474Y-74659595D01*
G37*
G36*
X105220477Y-74390226D02*
G01*
X105217221Y-74394269D01*
X105203337Y-74407686D01*
X105198257Y-74404560D01*
X105202069Y-74399166D01*
X105216534Y-74386283D01*
X105224101Y-74380448D01*
X105229510Y-74377855D01*
X105220477Y-74390226D01*
G37*
G36*
X105482205Y-74234263D02*
G01*
X105487040Y-74238023D01*
X105475895Y-74240573D01*
X105465302Y-74239835D01*
X105462187Y-74235088D01*
X105465882Y-74233018D01*
X105482205Y-74234263D01*
G37*
G36*
X105900621Y-74098708D02*
G01*
X105902393Y-74102334D01*
X105887566Y-74103976D01*
X105873199Y-74102520D01*
X105874511Y-74098708D01*
X105879239Y-74097328D01*
X105900621Y-74098708D01*
G37*
G36*
X107537731Y-73484202D02*
G01*
X107532509Y-73489424D01*
X107527287Y-73484202D01*
X107532509Y-73478980D01*
X107537731Y-73484202D01*
G37*
G36*
X107683948Y-73411093D02*
G01*
X107678726Y-73416316D01*
X107673504Y-73411093D01*
X107678726Y-73405871D01*
X107683948Y-73411093D01*
G37*
G36*
X107723309Y-73387043D02*
G01*
X107715280Y-73395427D01*
X107705819Y-73401283D01*
X107695938Y-73404821D01*
X107699614Y-73395427D01*
X107701849Y-73392583D01*
X107718507Y-73385143D01*
X107723309Y-73387043D01*
G37*
G36*
X107746612Y-73379761D02*
G01*
X107741390Y-73384983D01*
X107736168Y-73379761D01*
X107741390Y-73374539D01*
X107746612Y-73379761D01*
G37*
G36*
X108153662Y-73155407D02*
G01*
X108163533Y-73157564D01*
X108153931Y-73165658D01*
X108143688Y-73172065D01*
X108134647Y-73174777D01*
X108133043Y-73165658D01*
X108135827Y-73160159D01*
X108151320Y-73155373D01*
X108153662Y-73155407D01*
G37*
G36*
X108195708Y-73139547D02*
G01*
X108190486Y-73144769D01*
X108185263Y-73139547D01*
X108190486Y-73134325D01*
X108195708Y-73139547D01*
G37*
G36*
X108319325Y-73058448D02*
G01*
X108305405Y-73070185D01*
X108282058Y-73086951D01*
X108264968Y-73098423D01*
X108245433Y-73110452D01*
X108238681Y-73111947D01*
X108242056Y-73104044D01*
X108242214Y-73103801D01*
X108253327Y-73093870D01*
X108273240Y-73080182D01*
X108295478Y-73066676D01*
X108313568Y-73057292D01*
X108321037Y-73055971D01*
X108319325Y-73058448D01*
G37*
G36*
X108435921Y-73160436D02*
G01*
X108430699Y-73165658D01*
X108425477Y-73160436D01*
X108430699Y-73155214D01*
X108435921Y-73160436D01*
G37*
G36*
X108463772Y-73148251D02*
G01*
X108465406Y-73151392D01*
X108456810Y-73155214D01*
X108451280Y-73154460D01*
X108449847Y-73148251D01*
X108451378Y-73147001D01*
X108463772Y-73148251D01*
G37*
G36*
X108620071Y-73054154D02*
G01*
X108612046Y-73062445D01*
X108590360Y-73077414D01*
X108559144Y-73096171D01*
X108531122Y-73112084D01*
X108506706Y-73125677D01*
X108493899Y-73132083D01*
X108488957Y-73133115D01*
X108488142Y-73130588D01*
X108489990Y-73127984D01*
X108504731Y-73116878D01*
X108529617Y-73100953D01*
X108559113Y-73083440D01*
X108587680Y-73067572D01*
X108609781Y-73056581D01*
X108619878Y-73053699D01*
X108620071Y-73054154D01*
G37*
G36*
X108686579Y-73014218D02*
G01*
X108681357Y-73019441D01*
X108676135Y-73014218D01*
X108681357Y-73008996D01*
X108686579Y-73014218D01*
G37*
G36*
X108858535Y-72884031D02*
G01*
X108857669Y-72890786D01*
X108843240Y-72904556D01*
X108840649Y-72906552D01*
X108819437Y-72920255D01*
X108806845Y-72924398D01*
X108806218Y-72919032D01*
X108820898Y-72904208D01*
X108841543Y-72889916D01*
X108857453Y-72883900D01*
X108858535Y-72884031D01*
G37*
%TD*%
M02*
