%TF.GenerationSoftware,KiCad,Pcbnew,9.0.7*%
%TF.CreationDate,2026-09-06T19:53:39+05:30*%
%TF.ProjectId,step_down_converter_BL8034,73746570-5f64-46f7-976e-5f636f6e7665,rev?*%
%TF.SameCoordinates,Original*%
%TF.FileFunction,Copper,L1,Top*%
%TF.FilePolarity,Positive*%
%FSLAX46Y46*%
G04 Gerber Fmt 4.6, Leading zero omitted, Abs format (unit mm)*
G04 Created by KiCad (PCBNEW 9.0.7) date 2026-09-06 19:53:39*
%MOMM*%
%LPD*%
G01*
G04 APERTURE LIST*
G04 Aperture macros list*
%AMRoundRect*
0 Rectangle with rounded corners*
0 $1 Rounding radius*
0 $2 $3 $4 $5 $6 $7 $8 $9 X,Y pos of 4 corners*
0 Add a 4 corners polygon primitive as box body*
4,1,4,$2,$3,$4,$5,$6,$7,$8,$9,$2,$3,0*
0 Add four circle primitives for the rounded corners*
1,1,$1+$1,$2,$3*
1,1,$1+$1,$4,$5*
1,1,$1+$1,$6,$7*
1,1,$1+$1,$8,$9*
0 Add four rect primitives between the rounded corners*
20,1,$1+$1,$2,$3,$4,$5,0*
20,1,$1+$1,$4,$5,$6,$7,0*
20,1,$1+$1,$6,$7,$8,$9,0*
20,1,$1+$1,$8,$9,$2,$3,0*%
G04 Aperture macros list end*
%TA.AperFunction,Conductor*%
%ADD10C,0.200000*%
%TD*%
%TA.AperFunction,SMDPad,CuDef*%
%ADD11R,1.500000X4.000000*%
%TD*%
%TA.AperFunction,SMDPad,CuDef*%
%ADD12RoundRect,0.250000X0.650000X-0.412500X0.650000X0.412500X-0.650000X0.412500X-0.650000X-0.412500X0*%
%TD*%
%TA.AperFunction,SMDPad,CuDef*%
%ADD13R,0.500000X1.040000*%
%TD*%
%TA.AperFunction,SMDPad,CuDef*%
%ADD14R,3.300000X2.400000*%
%TD*%
%TA.AperFunction,ComponentPad*%
%ADD15R,5.000000X8.000000*%
%TD*%
%TA.AperFunction,SMDPad,CuDef*%
%ADD16RoundRect,0.237500X-0.300000X-0.237500X0.300000X-0.237500X0.300000X0.237500X-0.300000X0.237500X0*%
%TD*%
%TA.AperFunction,SMDPad,CuDef*%
%ADD17RoundRect,0.237500X-0.250000X-0.237500X0.250000X-0.237500X0.250000X0.237500X-0.250000X0.237500X0*%
%TD*%
%TA.AperFunction,SMDPad,CuDef*%
%ADD18RoundRect,0.237500X0.250000X0.237500X-0.250000X0.237500X-0.250000X-0.237500X0.250000X-0.237500X0*%
%TD*%
%TA.AperFunction,ViaPad*%
%ADD19C,0.600000*%
%TD*%
%TA.AperFunction,ViaPad*%
%ADD20C,0.800000*%
%TD*%
%TA.AperFunction,Conductor*%
%ADD21C,0.500000*%
%TD*%
%TA.AperFunction,Conductor*%
%ADD22C,0.300000*%
%TD*%
%TA.AperFunction,Conductor*%
%ADD23C,1.000000*%
%TD*%
G04 APERTURE END LIST*
D10*
%TO.N,VIN*%
X101979000Y-73921000D02*
X101974000Y-74492000D01*
X97898000Y-74530000D01*
X97972000Y-73669000D01*
X101665000Y-73442000D01*
X101674000Y-72816000D01*
X101976000Y-72812000D01*
X101979000Y-73921000D01*
%TA.AperFunction,Conductor*%
G36*
X101979000Y-73921000D02*
G01*
X101974000Y-74492000D01*
X97898000Y-74530000D01*
X97972000Y-73669000D01*
X101665000Y-73442000D01*
X101674000Y-72816000D01*
X101976000Y-72812000D01*
X101979000Y-73921000D01*
G37*
%TD.AperFunction*%
%TO.N,VOUT_5V*%
X118030000Y-77840000D02*
X110679561Y-76633402D01*
X110604748Y-75613526D01*
X118130000Y-75090000D01*
X118030000Y-77840000D01*
%TA.AperFunction,Conductor*%
G36*
X118030000Y-77840000D02*
G01*
X110679561Y-76633402D01*
X110604748Y-75613526D01*
X118130000Y-75090000D01*
X118030000Y-77840000D01*
G37*
%TD.AperFunction*%
%TO.N,VIN*%
X98420705Y-75331108D02*
X92553751Y-78066546D01*
X92803852Y-73197716D01*
X98378284Y-73139542D01*
X98420705Y-75331108D01*
%TA.AperFunction,Conductor*%
G36*
X98420705Y-75331108D02*
G01*
X92553751Y-78066546D01*
X92803852Y-73197716D01*
X98378284Y-73139542D01*
X98420705Y-75331108D01*
G37*
%TD.AperFunction*%
%TO.N,VOUT_5V*%
X110710000Y-75760000D02*
X110770000Y-76600000D01*
X108865950Y-76590000D01*
X108887950Y-75758000D01*
X110710000Y-75760000D01*
%TA.AperFunction,Conductor*%
G36*
X110710000Y-75760000D02*
G01*
X110770000Y-76600000D01*
X108865950Y-76590000D01*
X108887950Y-75758000D01*
X110710000Y-75760000D01*
G37*
%TD.AperFunction*%
%TO.N,SW*%
X105582813Y-75839000D02*
X105601813Y-76577000D01*
X103092813Y-76557000D01*
X103074813Y-75805000D01*
X105582813Y-75839000D01*
%TA.AperFunction,Conductor*%
G36*
X105582813Y-75839000D02*
G01*
X105601813Y-76577000D01*
X103092813Y-76557000D01*
X103074813Y-75805000D01*
X105582813Y-75839000D01*
G37*
%TD.AperFunction*%
X103241000Y-76215000D02*
X102955000Y-76216000D01*
X102946000Y-72783000D01*
X103246000Y-72783000D01*
X103241000Y-76215000D01*
%TA.AperFunction,Conductor*%
G36*
X103241000Y-76215000D02*
G01*
X102955000Y-76216000D01*
X102946000Y-72783000D01*
X103246000Y-72783000D01*
X103241000Y-76215000D01*
G37*
%TD.AperFunction*%
%TD*%
D11*
%TO.P,L2,1*%
%TO.N,SW*%
X104990000Y-77570000D03*
%TO.P,L2,2*%
%TO.N,VOUT_5V*%
X108590000Y-77570000D03*
%TD*%
D12*
%TO.P,C3,1*%
%TO.N,VOUT_5V*%
X110860000Y-76132500D03*
%TO.P,C3,2*%
%TO.N,GND*%
X110860000Y-73007500D03*
%TD*%
%TO.P,C1,1*%
%TO.N,VIN*%
X97490000Y-73812500D03*
%TO.P,C1,2*%
%TO.N,GND*%
X97490000Y-70687500D03*
%TD*%
D13*
%TO.P,U1,1,BST*%
%TO.N,Net-(U1-BST)*%
X100556000Y-72355000D03*
%TO.P,U1,2,VIN*%
%TO.N,VIN*%
X101826000Y-72355000D03*
%TO.P,U1,3,SW*%
%TO.N,SW*%
X103096000Y-72355000D03*
%TO.P,U1,4,GND*%
%TO.N,GND*%
X104366000Y-72355000D03*
%TO.P,U1,5,FB*%
%TO.N,FB*%
X104366000Y-67461000D03*
%TO.P,U1,6,NC*%
%TO.N,unconnected-(U1-NC-Pad6)*%
X103096000Y-67461000D03*
%TO.P,U1,7,EN*%
%TO.N,EN*%
X101826000Y-67461000D03*
%TO.P,U1,8,NC*%
%TO.N,unconnected-(U1-NC-Pad8)*%
X100556000Y-67461000D03*
D14*
%TO.P,U1,9,PAD*%
%TO.N,GND*%
X102461000Y-69908000D03*
%TD*%
D15*
%TO.P,V_IN-,1,1*%
%TO.N,GND*%
X92108000Y-62534000D03*
%TD*%
%TO.P,V_OUT -,1,1*%
%TO.N,GND*%
X119366000Y-62517000D03*
%TD*%
%TO.P,V_0UT +,1,1*%
%TO.N,VOUT_5V*%
X119343000Y-77771000D03*
%TD*%
%TO.P,V_IN+,1,1*%
%TO.N,VIN*%
X92119000Y-78012000D03*
%TD*%
D16*
%TO.P,C2,1*%
%TO.N,Net-(U1-BST)*%
X101437500Y-76190000D03*
%TO.P,C2,2*%
%TO.N,SW*%
X103162500Y-76190000D03*
%TD*%
D17*
%TO.P,R4,2*%
%TO.N,EN*%
X101702500Y-64496000D03*
%TO.P,R4,1*%
%TO.N,VIN*%
X99877500Y-64496000D03*
%TD*%
D18*
%TO.P,R3,2*%
%TO.N,FB*%
X104427000Y-63193000D03*
%TO.P,R3,1*%
%TO.N,VOUT_5V*%
X106252000Y-63193000D03*
%TD*%
D17*
%TO.P,R2,2*%
%TO.N,GND*%
X106232500Y-64822000D03*
%TO.P,R2,1*%
%TO.N,FB*%
X104407500Y-64822000D03*
%TD*%
D19*
%TO.N,GND*%
X111240000Y-70110000D03*
X114370000Y-72910000D03*
X114050000Y-79850000D03*
X108640000Y-73590000D03*
X110410000Y-68850000D03*
X114710000Y-58450000D03*
X114710000Y-60990000D03*
X120060000Y-71260000D03*
X120060000Y-68720000D03*
X114800000Y-63370000D03*
X114800000Y-65910000D03*
X112550000Y-65650000D03*
X105336000Y-69471000D03*
X96492000Y-77988000D03*
X107420000Y-69980000D03*
X109150000Y-70490000D03*
X108781000Y-68153000D03*
X107500000Y-72060000D03*
X106241000Y-68153000D03*
X108479000Y-66634000D03*
X90774000Y-68774000D03*
X90774000Y-71314000D03*
X117520000Y-68730000D03*
X114980000Y-71270000D03*
X114980000Y-68730000D03*
X117520000Y-71270000D03*
X97837000Y-63261000D03*
X95911000Y-65620000D03*
X95911000Y-63080000D03*
X110591000Y-63278000D03*
X92900000Y-68700000D03*
X92900000Y-71240000D03*
X109219000Y-58469000D03*
X111759000Y-58469000D03*
X111790000Y-79820000D03*
X109232000Y-82098000D03*
X111772000Y-82098000D03*
X114530000Y-82090000D03*
X111759000Y-61009000D03*
X109219000Y-61009000D03*
X96928000Y-79869000D03*
X104345000Y-82039000D03*
X101805000Y-82039000D03*
X101805000Y-79499000D03*
X99265000Y-82039000D03*
X99265000Y-79499000D03*
X96725000Y-82039000D03*
X106885000Y-82039000D03*
X103590000Y-61044000D03*
X101050000Y-61044000D03*
X98510000Y-61044000D03*
X95970000Y-61044000D03*
X106130000Y-58504000D03*
X103590000Y-58504000D03*
X101050000Y-58504000D03*
X98510000Y-58504000D03*
X95970000Y-58504000D03*
X106130000Y-61044000D03*
X106296000Y-73743000D03*
X104612000Y-74003000D03*
X105506000Y-72383000D03*
D20*
X106854500Y-66344500D03*
X110860000Y-71560000D03*
%TO.N,Net-(U1-BST)*%
X101400000Y-77445000D03*
D19*
X99513000Y-71970000D03*
%TO.N,GND*%
X103518000Y-70571000D03*
X101429000Y-70617000D03*
X101508000Y-69283000D03*
X103545000Y-69283000D03*
X102461000Y-69908000D03*
%TD*%
D21*
%TO.N,GND*%
X110860000Y-71560000D02*
X110860000Y-73007500D01*
D22*
%TO.N,VOUT_5V*%
X113060000Y-75810000D02*
X112970000Y-75900000D01*
X113060000Y-69162000D02*
X113060000Y-75810000D01*
X106370500Y-63183000D02*
X107081000Y-63183000D01*
X107081000Y-63183000D02*
X113060000Y-69162000D01*
D23*
%TO.N,GND*%
X98269500Y-69908000D02*
X102461000Y-69908000D01*
X97490000Y-70687500D02*
X98269500Y-69908000D01*
%TO.N,VIN*%
X95512228Y-75628044D02*
X95657456Y-75628044D01*
X94770000Y-69621000D02*
X94770000Y-74885816D01*
X99877500Y-64513500D02*
X94770000Y-69621000D01*
X99877500Y-64496000D02*
X99877500Y-64513500D01*
D22*
%TO.N,GND*%
X104366000Y-72355000D02*
X105478000Y-72355000D01*
X105478000Y-72355000D02*
X105506000Y-72383000D01*
D21*
X106854500Y-66344500D02*
X106232500Y-65722500D01*
X106232500Y-65722500D02*
X106232500Y-64822000D01*
%TO.N,Net-(U1-BST)*%
X100286000Y-72085000D02*
X100556000Y-72355000D01*
X99513000Y-71970000D02*
X99628000Y-72085000D01*
X99628000Y-72085000D02*
X100286000Y-72085000D01*
X101400000Y-76227500D02*
X101400000Y-77445000D01*
D22*
X101437500Y-76190000D02*
X101400000Y-76227500D01*
%TO.N,EN*%
X101826000Y-64619500D02*
X101569000Y-64362500D01*
X101826000Y-67461000D02*
X101826000Y-64619500D01*
%TO.N,FB*%
X104247500Y-63372500D02*
X104427000Y-63193000D01*
X104366000Y-67461000D02*
X104366000Y-63362500D01*
D10*
%TO.N,GND*%
X101429000Y-70617000D02*
X101324000Y-70617000D01*
X102461000Y-69908000D02*
X102133000Y-69908000D01*
X101752000Y-70617000D02*
X101429000Y-70617000D01*
%TD*%
%TA.AperFunction,Conductor*%
%TO.N,GND*%
G36*
X105751206Y-65766317D02*
G01*
X105789889Y-65772610D01*
X105832350Y-65786680D01*
X105832354Y-65786681D01*
X105933351Y-65796999D01*
X105987843Y-65796998D01*
X106037393Y-65769942D01*
X106064062Y-65767108D01*
X106402417Y-65767963D01*
X106469405Y-65787817D01*
X106480769Y-65796999D01*
X106531640Y-65796999D01*
X106531654Y-65796998D01*
X106632649Y-65786681D01*
X106667813Y-65775028D01*
X106707127Y-65768733D01*
X108700780Y-65773773D01*
X108767768Y-65793627D01*
X108788146Y-65810092D01*
X112373181Y-69395127D01*
X112406666Y-69456450D01*
X112409500Y-69482808D01*
X112409500Y-73140052D01*
X112389815Y-73207091D01*
X112337011Y-73252846D01*
X112286107Y-73264051D01*
X111069999Y-73270000D01*
X111080132Y-74799986D01*
X111089563Y-74816346D01*
X111086192Y-74886134D01*
X111045626Y-74943021D01*
X110980744Y-74968946D01*
X110969039Y-74969500D01*
X110159998Y-74969500D01*
X110159980Y-74969501D01*
X110057203Y-74980000D01*
X110057200Y-74980001D01*
X109890668Y-75035185D01*
X109890659Y-75035189D01*
X109735197Y-75131079D01*
X109734387Y-75129766D01*
X109720118Y-75135523D01*
X109700083Y-75148368D01*
X109681821Y-75150972D01*
X109677394Y-75152759D01*
X109665143Y-75153352D01*
X109659723Y-75153346D01*
X109592705Y-75133587D01*
X109585549Y-75128613D01*
X109582331Y-75126204D01*
X109582328Y-75126202D01*
X109447482Y-75075908D01*
X109447483Y-75075908D01*
X109387883Y-75069501D01*
X109387881Y-75069500D01*
X109387873Y-75069500D01*
X109387864Y-75069500D01*
X107792129Y-75069500D01*
X107792123Y-75069501D01*
X107732516Y-75075908D01*
X107597671Y-75126202D01*
X107597664Y-75126206D01*
X107482455Y-75212452D01*
X107482452Y-75212455D01*
X107396206Y-75327664D01*
X107396202Y-75327671D01*
X107345908Y-75462517D01*
X107339501Y-75522116D01*
X107339501Y-75522123D01*
X107339500Y-75522135D01*
X107339500Y-79617870D01*
X107339501Y-79617876D01*
X107345908Y-79677483D01*
X107396202Y-79812328D01*
X107396206Y-79812335D01*
X107482452Y-79927544D01*
X107482455Y-79927547D01*
X107597664Y-80013793D01*
X107597671Y-80013797D01*
X107732517Y-80064091D01*
X107732516Y-80064091D01*
X107739444Y-80064835D01*
X107792127Y-80070500D01*
X109387872Y-80070499D01*
X109447483Y-80064091D01*
X109582331Y-80013796D01*
X109697546Y-79927546D01*
X109783796Y-79812331D01*
X109834091Y-79677483D01*
X109840500Y-79617873D01*
X109840499Y-77384909D01*
X109860184Y-77317871D01*
X109912987Y-77272116D01*
X109982146Y-77262172D01*
X110003497Y-77267202D01*
X110057203Y-77284999D01*
X110159991Y-77295500D01*
X110964871Y-77295499D01*
X110984957Y-77297137D01*
X111519659Y-77384910D01*
X115540396Y-78044926D01*
X115603361Y-78075210D01*
X115639958Y-78134728D01*
X115644309Y-78167164D01*
X115649103Y-82951797D01*
X115629486Y-83018856D01*
X115576727Y-83064664D01*
X115525292Y-83075921D01*
X95493891Y-83106466D01*
X95426822Y-83086884D01*
X95380986Y-83034149D01*
X95369709Y-82983772D01*
X95312365Y-77528741D01*
X95331344Y-77461500D01*
X95383662Y-77415193D01*
X96031313Y-77113229D01*
X96083400Y-77101615D01*
X98356533Y-77096001D01*
X98357560Y-77096003D01*
X100398259Y-77109933D01*
X100465163Y-77130075D01*
X100510556Y-77183190D01*
X100520028Y-77252414D01*
X100519030Y-77258121D01*
X100499500Y-77356304D01*
X100499500Y-77533695D01*
X100534103Y-77707658D01*
X100534106Y-77707667D01*
X100601983Y-77871540D01*
X100601990Y-77871553D01*
X100700535Y-78019034D01*
X100700538Y-78019038D01*
X100825961Y-78144461D01*
X100825965Y-78144464D01*
X100973446Y-78243009D01*
X100973459Y-78243016D01*
X101096363Y-78293923D01*
X101137334Y-78310894D01*
X101137336Y-78310894D01*
X101137341Y-78310896D01*
X101311304Y-78345499D01*
X101311307Y-78345500D01*
X101311309Y-78345500D01*
X101488693Y-78345500D01*
X101488694Y-78345499D01*
X101546682Y-78333964D01*
X101662658Y-78310896D01*
X101662661Y-78310894D01*
X101662666Y-78310894D01*
X101826547Y-78243013D01*
X101974035Y-78144464D01*
X102099464Y-78019035D01*
X102198013Y-77871547D01*
X102265894Y-77707666D01*
X102300500Y-77533691D01*
X102300500Y-77356309D01*
X102300500Y-77356306D01*
X102300499Y-77356304D01*
X102265895Y-77182338D01*
X102265577Y-77181289D01*
X102265571Y-77180711D01*
X102264706Y-77176359D01*
X102265531Y-77176194D01*
X102264951Y-77111422D01*
X102302197Y-77052308D01*
X102365490Y-77022714D01*
X102434735Y-77032038D01*
X102449333Y-77039751D01*
X102548475Y-77100903D01*
X102548478Y-77100904D01*
X102548484Y-77100908D01*
X102712247Y-77155174D01*
X102813323Y-77165500D01*
X103466116Y-77165499D01*
X103467104Y-77165503D01*
X103468859Y-77165516D01*
X103616490Y-77166693D01*
X103683368Y-77186911D01*
X103728701Y-77240078D01*
X103739500Y-77290689D01*
X103739500Y-79617870D01*
X103739501Y-79617876D01*
X103745908Y-79677483D01*
X103796202Y-79812328D01*
X103796206Y-79812335D01*
X103882452Y-79927544D01*
X103882455Y-79927547D01*
X103997664Y-80013793D01*
X103997671Y-80013797D01*
X104132517Y-80064091D01*
X104132516Y-80064091D01*
X104139444Y-80064835D01*
X104192127Y-80070500D01*
X105787872Y-80070499D01*
X105847483Y-80064091D01*
X105982331Y-80013796D01*
X106097546Y-79927546D01*
X106183796Y-79812331D01*
X106234091Y-79677483D01*
X106240500Y-79617873D01*
X106240499Y-76634822D01*
X106247954Y-76634817D01*
X106240499Y-76627182D01*
X106240499Y-75522128D01*
X106234091Y-75462517D01*
X106219683Y-75423888D01*
X106183797Y-75327671D01*
X106183793Y-75327664D01*
X106097547Y-75212455D01*
X106097544Y-75212452D01*
X105982335Y-75126206D01*
X105982328Y-75126202D01*
X105847482Y-75075908D01*
X105847483Y-75075908D01*
X105787883Y-75069501D01*
X105787881Y-75069500D01*
X105787873Y-75069500D01*
X105787864Y-75069500D01*
X104192129Y-75069500D01*
X104192123Y-75069501D01*
X104132515Y-75075909D01*
X104015597Y-75119516D01*
X103945906Y-75124500D01*
X103884583Y-75091014D01*
X103851099Y-75029691D01*
X103848265Y-75003153D01*
X103848324Y-74963199D01*
X103851499Y-72783882D01*
X103851500Y-72783000D01*
X103847560Y-72753076D01*
X103846499Y-72736890D01*
X103846499Y-71787129D01*
X103846498Y-71787123D01*
X103840091Y-71727516D01*
X103789797Y-71592671D01*
X103789793Y-71592664D01*
X103703547Y-71477455D01*
X103703544Y-71477452D01*
X103588335Y-71391206D01*
X103588328Y-71391202D01*
X103453486Y-71340910D01*
X103453485Y-71340909D01*
X103453483Y-71340909D01*
X103393873Y-71334500D01*
X103393863Y-71334500D01*
X102798136Y-71334500D01*
X102794813Y-71334679D01*
X102794809Y-71334613D01*
X102786335Y-71335073D01*
X102144525Y-71335986D01*
X102131100Y-71335276D01*
X102123878Y-71334500D01*
X101528134Y-71334500D01*
X101528113Y-71334502D01*
X101512368Y-71336194D01*
X101499297Y-71336904D01*
X100891120Y-71337770D01*
X100878133Y-71337107D01*
X100877810Y-71337073D01*
X100853873Y-71334500D01*
X100853033Y-71334500D01*
X100849057Y-71334087D01*
X100819483Y-71321961D01*
X100789340Y-71311328D01*
X100787373Y-71308796D01*
X100784409Y-71307581D01*
X100766092Y-71281401D01*
X100746477Y-71256151D01*
X100745781Y-71252372D01*
X100744355Y-71250333D01*
X100744069Y-71243062D01*
X100737874Y-71209393D01*
X100766494Y-68601332D01*
X100786913Y-68534514D01*
X100840216Y-68489341D01*
X100890202Y-68478694D01*
X101482504Y-68477338D01*
X101496023Y-68478048D01*
X101528127Y-68481500D01*
X102123872Y-68481499D01*
X102170899Y-68476442D01*
X102183865Y-68475732D01*
X102726029Y-68474491D01*
X102739544Y-68475201D01*
X102798127Y-68481500D01*
X103393872Y-68481499D01*
X103453483Y-68475091D01*
X103453485Y-68475090D01*
X103461199Y-68474261D01*
X103461244Y-68474681D01*
X103477468Y-68472771D01*
X103979111Y-68471622D01*
X104007916Y-68474948D01*
X104008507Y-68475087D01*
X104008517Y-68475091D01*
X104068127Y-68481500D01*
X104663872Y-68481499D01*
X104723483Y-68475091D01*
X104723489Y-68475088D01*
X104731025Y-68473308D01*
X104731419Y-68474978D01*
X104759657Y-68469836D01*
X105125000Y-68469000D01*
X105225360Y-65884487D01*
X105247630Y-65818265D01*
X105302170Y-65774594D01*
X105349577Y-65765302D01*
X105751206Y-65766317D01*
G37*
%TD.AperFunction*%
%TA.AperFunction,Conductor*%
G36*
X95919414Y-57298926D02*
G01*
X121056687Y-57370153D01*
X121068796Y-57370783D01*
X121245438Y-57388667D01*
X121269222Y-57393463D01*
X121433147Y-57443638D01*
X121455552Y-57452981D01*
X121606551Y-57534137D01*
X121626707Y-57547669D01*
X121758989Y-57656689D01*
X121776125Y-57673892D01*
X121884628Y-57806603D01*
X121898083Y-57826816D01*
X121978641Y-57978124D01*
X121987899Y-58000571D01*
X122037428Y-58164685D01*
X122042133Y-58188506D01*
X122059322Y-58365196D01*
X122059905Y-58377337D01*
X122043915Y-73049702D01*
X122024157Y-73116720D01*
X121971304Y-73162417D01*
X121920285Y-73173566D01*
X115639325Y-73192316D01*
X115639325Y-73192317D01*
X115640675Y-74540418D01*
X115621058Y-74607477D01*
X115568299Y-74653285D01*
X115525281Y-74664243D01*
X113843106Y-74781271D01*
X113774862Y-74766287D01*
X113725553Y-74716785D01*
X113710500Y-74657570D01*
X113710500Y-69097928D01*
X113685502Y-68972261D01*
X113685501Y-68972260D01*
X113685501Y-68972256D01*
X113636465Y-68853873D01*
X113629778Y-68843866D01*
X113629776Y-68843859D01*
X113629775Y-68843861D01*
X113565277Y-68747331D01*
X113565275Y-68747329D01*
X113565273Y-68747326D01*
X107495673Y-62677726D01*
X107495669Y-62677723D01*
X107389127Y-62606535D01*
X107270744Y-62557499D01*
X107270739Y-62557498D01*
X107153876Y-62534251D01*
X107091966Y-62501865D01*
X107090004Y-62499699D01*
X107089947Y-62499757D01*
X106962851Y-62372661D01*
X106962850Y-62372660D01*
X106816016Y-62282092D01*
X106652253Y-62227826D01*
X106652251Y-62227825D01*
X106551178Y-62217500D01*
X105952822Y-62217500D01*
X105949675Y-62217661D01*
X105949672Y-62217620D01*
X105941161Y-62218056D01*
X104746675Y-62218939D01*
X104733983Y-62218297D01*
X104726190Y-62217501D01*
X104726183Y-62217500D01*
X104726177Y-62217500D01*
X104726169Y-62217500D01*
X104127830Y-62217500D01*
X104127812Y-62217501D01*
X104026747Y-62227825D01*
X103862984Y-62282092D01*
X103862981Y-62282093D01*
X103716148Y-62372661D01*
X103594161Y-62494648D01*
X103503593Y-62641481D01*
X103503591Y-62641486D01*
X103476219Y-62724088D01*
X103449326Y-62805247D01*
X103449326Y-62805248D01*
X103449325Y-62805248D01*
X103439000Y-62906315D01*
X103439000Y-63415371D01*
X103419315Y-63482410D01*
X103366511Y-63528165D01*
X103313264Y-63539359D01*
X102012740Y-63521150D01*
X102001878Y-63520520D01*
X102001695Y-63520501D01*
X102001681Y-63520500D01*
X102001677Y-63520500D01*
X102001669Y-63520500D01*
X101553862Y-63520500D01*
X101543927Y-63517582D01*
X100104707Y-63518646D01*
X100080423Y-63516263D01*
X99976043Y-63495500D01*
X99976041Y-63495500D01*
X99778959Y-63495500D01*
X99746069Y-63502041D01*
X99665245Y-63518118D01*
X99641057Y-63520500D01*
X99578332Y-63520500D01*
X99578312Y-63520501D01*
X99477247Y-63530825D01*
X99313484Y-63585092D01*
X99313481Y-63585093D01*
X99166648Y-63675661D01*
X99044661Y-63797648D01*
X98954090Y-63944486D01*
X98924923Y-64032503D01*
X98894899Y-64081178D01*
X95251080Y-67724999D01*
X94132220Y-68843859D01*
X94132218Y-68843861D01*
X94062538Y-68913540D01*
X93992859Y-68983219D01*
X93883371Y-69147079D01*
X93883364Y-69147092D01*
X93807950Y-69329160D01*
X93807947Y-69329170D01*
X93769500Y-69522456D01*
X93769500Y-72459392D01*
X93749815Y-72526431D01*
X93697011Y-72572186D01*
X93646794Y-72583385D01*
X92797536Y-72592248D01*
X92797533Y-72592248D01*
X92677349Y-72605578D01*
X92677346Y-72605579D01*
X92528402Y-72658496D01*
X92528399Y-72658498D01*
X92398228Y-72748161D01*
X92295696Y-72868462D01*
X92295693Y-72868467D01*
X92227794Y-73011203D01*
X92199930Y-73162417D01*
X92199149Y-73166654D01*
X92199080Y-73168000D01*
X92193375Y-73279042D01*
X92170276Y-73344983D01*
X92115194Y-73387968D01*
X92069718Y-73396679D01*
X89366036Y-73400611D01*
X89298968Y-73381024D01*
X89253137Y-73328286D01*
X89241856Y-73276627D01*
X89241834Y-73082474D01*
X89240116Y-58289036D01*
X89240713Y-58276889D01*
X89258180Y-58099672D01*
X89262934Y-58075799D01*
X89312920Y-57911281D01*
X89322251Y-57888795D01*
X89403424Y-57737223D01*
X89416963Y-57717003D01*
X89526201Y-57584215D01*
X89543439Y-57567025D01*
X89676513Y-57458157D01*
X89696777Y-57444666D01*
X89848576Y-57363900D01*
X89871075Y-57354636D01*
X90035735Y-57305097D01*
X90059616Y-57300408D01*
X90236879Y-57283423D01*
X90249044Y-57282859D01*
X95919414Y-57298926D01*
G37*
%TD.AperFunction*%
%TD*%
M02*
