%TF.GenerationSoftware,KiCad,Pcbnew,9.0.7*%
%TF.CreationDate,2026-09-06T19:53:47+05:30*%
%TF.ProjectId,step_down_converter_BL8034,73746570-5f64-46f7-976e-5f636f6e7665,rev?*%
%TF.SameCoordinates,Original*%
%TF.FileFunction,Drillmap*%
%TF.FilePolarity,Positive*%
%FSLAX45Y45*%
G04 Gerber Fmt 4.5, Leading zero omitted, Abs format (unit mm)*
G04 Created by KiCad (PCBNEW 9.0.7) date 2026-09-06 19:53:47*
%MOMM*%
%LPD*%
G01*
G04 APERTURE LIST*
%ADD10C,0.050000*%
%ADD11C,0.200000*%
%ADD12C,0.100000*%
%ADD13C,0.254000*%
G04 APERTURE END LIST*
D10*
X12048200Y-5545700D02*
G75*
G02*
X12448200Y-5945700I0J-400000D01*
G01*
X8648200Y-5945700D02*
G75*
G02*
X9048200Y-5545700I400000J0D01*
G01*
X12448200Y-8045700D02*
G75*
G02*
X12048200Y-8445700I-400000J0D01*
G01*
X9048200Y-8445700D02*
G75*
G02*
X8648200Y-8045700I0J400000D01*
G01*
X9048200Y-5545700D02*
X12048200Y-5545700D01*
X12448200Y-5945700D02*
X12448200Y-8045700D01*
X8648200Y-8045700D02*
X8648200Y-5945700D01*
X12048200Y-8445700D02*
X9048200Y-8445700D01*
D11*
D12*
X9062400Y-6862400D02*
X9092400Y-6892400D01*
X9092400Y-6862400D02*
X9062400Y-6892400D01*
X9062400Y-7116400D02*
X9092400Y-7146400D01*
X9092400Y-7116400D02*
X9062400Y-7146400D01*
X9275000Y-6855000D02*
X9305000Y-6885000D01*
X9305000Y-6855000D02*
X9275000Y-6885000D01*
X9275000Y-7109000D02*
X9305000Y-7139000D01*
X9305000Y-7109000D02*
X9275000Y-7139000D01*
X9576100Y-6293000D02*
X9606100Y-6323000D01*
X9606100Y-6293000D02*
X9576100Y-6323000D01*
X9576100Y-6547000D02*
X9606100Y-6577000D01*
X9606100Y-6547000D02*
X9576100Y-6577000D01*
X9582000Y-5835400D02*
X9612000Y-5865400D01*
X9612000Y-5835400D02*
X9582000Y-5865400D01*
X9582000Y-6089400D02*
X9612000Y-6119400D01*
X9612000Y-6089400D02*
X9582000Y-6119400D01*
X9634200Y-7783800D02*
X9664200Y-7813800D01*
X9664200Y-7783800D02*
X9634200Y-7813800D01*
X9657500Y-8188900D02*
X9687500Y-8218900D01*
X9687500Y-8188900D02*
X9657500Y-8218900D01*
X9677800Y-7971900D02*
X9707800Y-8001900D01*
X9707800Y-7971900D02*
X9677800Y-8001900D01*
X9768700Y-6311100D02*
X9798700Y-6341100D01*
X9798700Y-6311100D02*
X9768700Y-6341100D01*
X9836000Y-5835400D02*
X9866000Y-5865400D01*
X9866000Y-5835400D02*
X9836000Y-5865400D01*
X9836000Y-6089400D02*
X9866000Y-6119400D01*
X9866000Y-6089400D02*
X9836000Y-6119400D01*
X9911500Y-7934900D02*
X9941500Y-7964900D01*
X9941500Y-7934900D02*
X9911500Y-7964900D01*
X9911500Y-8188900D02*
X9941500Y-8218900D01*
X9941500Y-8188900D02*
X9911500Y-8218900D01*
X9936300Y-7182000D02*
X9966300Y-7212000D01*
X9966300Y-7182000D02*
X9936300Y-7212000D01*
X10090000Y-5835400D02*
X10120000Y-5865400D01*
X10120000Y-5835400D02*
X10090000Y-5865400D01*
X10090000Y-6089400D02*
X10120000Y-6119400D01*
X10120000Y-6089400D02*
X10090000Y-6119400D01*
X10127900Y-7046700D02*
X10157900Y-7076700D01*
X10157900Y-7046700D02*
X10127900Y-7076700D01*
X10135800Y-6913300D02*
X10165800Y-6943300D01*
X10165800Y-6913300D02*
X10135800Y-6943300D01*
X10165500Y-7934900D02*
X10195500Y-7964900D01*
X10195500Y-7934900D02*
X10165500Y-7964900D01*
X10165500Y-8188900D02*
X10195500Y-8218900D01*
X10195500Y-8188900D02*
X10165500Y-8218900D01*
X10231100Y-6975800D02*
X10261100Y-7005800D01*
X10261100Y-6975800D02*
X10231100Y-7005800D01*
X10336800Y-7042100D02*
X10366800Y-7072100D01*
X10366800Y-7042100D02*
X10336800Y-7072100D01*
X10339500Y-6913300D02*
X10369500Y-6943300D01*
X10369500Y-6913300D02*
X10339500Y-6943300D01*
X10344000Y-5835400D02*
X10374000Y-5865400D01*
X10374000Y-5835400D02*
X10344000Y-5865400D01*
X10344000Y-6089400D02*
X10374000Y-6119400D01*
X10374000Y-6089400D02*
X10344000Y-6119400D01*
X10419500Y-8188900D02*
X10449500Y-8218900D01*
X10449500Y-8188900D02*
X10419500Y-8218900D01*
X10446200Y-7385300D02*
X10476200Y-7415300D01*
X10476200Y-7385300D02*
X10446200Y-7415300D01*
X10518600Y-6932100D02*
X10548600Y-6962100D01*
X10548600Y-6932100D02*
X10518600Y-6962100D01*
X10535600Y-7223300D02*
X10565600Y-7253300D01*
X10565600Y-7223300D02*
X10535600Y-7253300D01*
X10598000Y-5835400D02*
X10628000Y-5865400D01*
X10628000Y-5835400D02*
X10598000Y-5865400D01*
X10598000Y-6089400D02*
X10628000Y-6119400D01*
X10628000Y-6089400D02*
X10598000Y-6119400D01*
X10609100Y-6800300D02*
X10639100Y-6830300D01*
X10639100Y-6800300D02*
X10609100Y-6830300D01*
X10614600Y-7359300D02*
X10644600Y-7389300D01*
X10644600Y-7359300D02*
X10614600Y-7389300D01*
X10673500Y-8188900D02*
X10703500Y-8218900D01*
X10703500Y-8188900D02*
X10673500Y-8218900D01*
X10727000Y-6983000D02*
X10757000Y-7013000D01*
X10757000Y-6983000D02*
X10727000Y-7013000D01*
X10735000Y-7191000D02*
X10765000Y-7221000D01*
X10765000Y-7191000D02*
X10735000Y-7221000D01*
X10832900Y-6648400D02*
X10862900Y-6678400D01*
X10862900Y-6648400D02*
X10832900Y-6678400D01*
X10849000Y-7344000D02*
X10879000Y-7374000D01*
X10879000Y-7344000D02*
X10849000Y-7374000D01*
X10863100Y-6800300D02*
X10893100Y-6830300D01*
X10893100Y-6800300D02*
X10863100Y-6830300D01*
X10900000Y-7034000D02*
X10930000Y-7064000D01*
X10930000Y-7034000D02*
X10900000Y-7064000D01*
X10906900Y-5831900D02*
X10936900Y-5861900D01*
X10936900Y-5831900D02*
X10906900Y-5861900D01*
X10906900Y-6085900D02*
X10936900Y-6115900D01*
X10936900Y-6085900D02*
X10906900Y-6115900D01*
X10908200Y-8194800D02*
X10938200Y-8224800D01*
X10938200Y-8194800D02*
X10908200Y-8224800D01*
X11026000Y-6870000D02*
X11056000Y-6900000D01*
X11056000Y-6870000D02*
X11026000Y-6900000D01*
X11044100Y-6312800D02*
X11074100Y-6342800D01*
X11074100Y-6312800D02*
X11044100Y-6342800D01*
X11109000Y-6996000D02*
X11139000Y-7026000D01*
X11139000Y-6996000D02*
X11109000Y-7026000D01*
X11160900Y-5831900D02*
X11190900Y-5861900D01*
X11190900Y-5831900D02*
X11160900Y-5861900D01*
X11160900Y-6085900D02*
X11190900Y-6115900D01*
X11190900Y-6085900D02*
X11160900Y-6115900D01*
X11162200Y-8194800D02*
X11192200Y-8224800D01*
X11192200Y-8194800D02*
X11162200Y-8224800D01*
X11164000Y-7967000D02*
X11194000Y-7997000D01*
X11194000Y-7967000D02*
X11164000Y-7997000D01*
X11240000Y-6550000D02*
X11270000Y-6580000D01*
X11270000Y-6550000D02*
X11240000Y-6580000D01*
X11390000Y-7970000D02*
X11420000Y-8000000D01*
X11420000Y-7970000D02*
X11390000Y-8000000D01*
X11422000Y-7276000D02*
X11452000Y-7306000D01*
X11452000Y-7276000D02*
X11422000Y-7306000D01*
X11438000Y-8194000D02*
X11468000Y-8224000D01*
X11468000Y-8194000D02*
X11438000Y-8224000D01*
X11456000Y-5830000D02*
X11486000Y-5860000D01*
X11486000Y-5830000D02*
X11456000Y-5860000D01*
X11456000Y-6084000D02*
X11486000Y-6114000D01*
X11486000Y-6084000D02*
X11456000Y-6114000D01*
X11465000Y-6322000D02*
X11495000Y-6352000D01*
X11495000Y-6322000D02*
X11465000Y-6352000D01*
X11465000Y-6576000D02*
X11495000Y-6606000D01*
X11495000Y-6576000D02*
X11465000Y-6606000D01*
X11483000Y-6858000D02*
X11513000Y-6888000D01*
X11513000Y-6858000D02*
X11483000Y-6888000D01*
X11483000Y-7112000D02*
X11513000Y-7142000D01*
X11513000Y-7112000D02*
X11483000Y-7142000D01*
X11737000Y-6858000D02*
X11767000Y-6888000D01*
X11767000Y-6858000D02*
X11737000Y-6888000D01*
X11737000Y-7112000D02*
X11767000Y-7142000D01*
X11767000Y-7112000D02*
X11737000Y-7142000D01*
X11991000Y-6857000D02*
X12021000Y-6887000D01*
X12021000Y-6857000D02*
X11991000Y-6887000D01*
X11991000Y-7111000D02*
X12021000Y-7141000D01*
X12021000Y-7111000D02*
X11991000Y-7141000D01*
X10160000Y-7744500D02*
G75*
G02*
X10120000Y-7744500I-20000J0D01*
G01*
X10120000Y-7744500D02*
G75*
G02*
X10160000Y-7744500I20000J0D01*
G01*
X10705450Y-6634450D02*
G75*
G02*
X10665450Y-6634450I-20000J0D01*
G01*
X10665450Y-6634450D02*
G75*
G02*
X10705450Y-6634450I20000J0D01*
G01*
X11106000Y-7156000D02*
G75*
G02*
X11066000Y-7156000I-20000J0D01*
G01*
X11066000Y-7156000D02*
G75*
G02*
X11106000Y-7156000I20000J0D01*
G01*
D13*
X9210800Y-6126400D02*
X9210800Y-6380400D01*
X9083800Y-6253400D02*
X9337800Y-6253400D01*
X9211900Y-7674200D02*
X9211900Y-7928200D01*
X9084900Y-7801200D02*
X9338900Y-7801200D01*
X11934300Y-7650100D02*
X11934300Y-7904100D01*
X11807300Y-7777100D02*
X12061300Y-7777100D01*
X11936600Y-6124700D02*
X11936600Y-6378700D01*
X11809600Y-6251700D02*
X12063600Y-6251700D01*
D11*
X8906477Y-8759684D02*
X8906477Y-8559684D01*
X8906477Y-8559684D02*
X8954096Y-8559684D01*
X8954096Y-8559684D02*
X8982667Y-8569208D01*
X8982667Y-8569208D02*
X9001715Y-8588255D01*
X9001715Y-8588255D02*
X9011239Y-8607303D01*
X9011239Y-8607303D02*
X9020763Y-8645398D01*
X9020763Y-8645398D02*
X9020763Y-8673970D01*
X9020763Y-8673970D02*
X9011239Y-8712065D01*
X9011239Y-8712065D02*
X9001715Y-8731112D01*
X9001715Y-8731112D02*
X8982667Y-8750160D01*
X8982667Y-8750160D02*
X8954096Y-8759684D01*
X8954096Y-8759684D02*
X8906477Y-8759684D01*
X9106477Y-8759684D02*
X9106477Y-8626350D01*
X9106477Y-8664446D02*
X9116001Y-8645398D01*
X9116001Y-8645398D02*
X9125524Y-8635874D01*
X9125524Y-8635874D02*
X9144572Y-8626350D01*
X9144572Y-8626350D02*
X9163620Y-8626350D01*
X9230286Y-8759684D02*
X9230286Y-8626350D01*
X9230286Y-8559684D02*
X9220763Y-8569208D01*
X9220763Y-8569208D02*
X9230286Y-8578731D01*
X9230286Y-8578731D02*
X9239810Y-8569208D01*
X9239810Y-8569208D02*
X9230286Y-8559684D01*
X9230286Y-8559684D02*
X9230286Y-8578731D01*
X9354096Y-8759684D02*
X9335048Y-8750160D01*
X9335048Y-8750160D02*
X9325524Y-8731112D01*
X9325524Y-8731112D02*
X9325524Y-8559684D01*
X9458858Y-8759684D02*
X9439810Y-8750160D01*
X9439810Y-8750160D02*
X9430286Y-8731112D01*
X9430286Y-8731112D02*
X9430286Y-8559684D01*
X9687429Y-8759684D02*
X9687429Y-8559684D01*
X9687429Y-8559684D02*
X9754096Y-8702541D01*
X9754096Y-8702541D02*
X9820763Y-8559684D01*
X9820763Y-8559684D02*
X9820763Y-8759684D01*
X10001715Y-8759684D02*
X10001715Y-8654922D01*
X10001715Y-8654922D02*
X9992191Y-8635874D01*
X9992191Y-8635874D02*
X9973144Y-8626350D01*
X9973144Y-8626350D02*
X9935048Y-8626350D01*
X9935048Y-8626350D02*
X9916001Y-8635874D01*
X10001715Y-8750160D02*
X9982667Y-8759684D01*
X9982667Y-8759684D02*
X9935048Y-8759684D01*
X9935048Y-8759684D02*
X9916001Y-8750160D01*
X9916001Y-8750160D02*
X9906477Y-8731112D01*
X9906477Y-8731112D02*
X9906477Y-8712065D01*
X9906477Y-8712065D02*
X9916001Y-8693017D01*
X9916001Y-8693017D02*
X9935048Y-8683493D01*
X9935048Y-8683493D02*
X9982667Y-8683493D01*
X9982667Y-8683493D02*
X10001715Y-8673970D01*
X10096953Y-8626350D02*
X10096953Y-8826350D01*
X10096953Y-8635874D02*
X10116001Y-8626350D01*
X10116001Y-8626350D02*
X10154096Y-8626350D01*
X10154096Y-8626350D02*
X10173144Y-8635874D01*
X10173144Y-8635874D02*
X10182667Y-8645398D01*
X10182667Y-8645398D02*
X10192191Y-8664446D01*
X10192191Y-8664446D02*
X10192191Y-8721589D01*
X10192191Y-8721589D02*
X10182667Y-8740636D01*
X10182667Y-8740636D02*
X10173144Y-8750160D01*
X10173144Y-8750160D02*
X10154096Y-8759684D01*
X10154096Y-8759684D02*
X10116001Y-8759684D01*
X10116001Y-8759684D02*
X10096953Y-8750160D01*
X10277905Y-8740636D02*
X10287429Y-8750160D01*
X10287429Y-8750160D02*
X10277905Y-8759684D01*
X10277905Y-8759684D02*
X10268382Y-8750160D01*
X10268382Y-8750160D02*
X10277905Y-8740636D01*
X10277905Y-8740636D02*
X10277905Y-8759684D01*
X10277905Y-8635874D02*
X10287429Y-8645398D01*
X10287429Y-8645398D02*
X10277905Y-8654922D01*
X10277905Y-8654922D02*
X10268382Y-8645398D01*
X10268382Y-8645398D02*
X10277905Y-8635874D01*
X10277905Y-8635874D02*
X10277905Y-8654922D01*
D12*
X8615700Y-9073200D02*
X8645700Y-9103200D01*
X8645700Y-9073200D02*
X8615700Y-9103200D01*
D11*
X8944572Y-8979684D02*
X8963620Y-8979684D01*
X8963620Y-8979684D02*
X8982667Y-8989208D01*
X8982667Y-8989208D02*
X8992191Y-8998731D01*
X8992191Y-8998731D02*
X9001715Y-9017779D01*
X9001715Y-9017779D02*
X9011239Y-9055874D01*
X9011239Y-9055874D02*
X9011239Y-9103493D01*
X9011239Y-9103493D02*
X9001715Y-9141589D01*
X9001715Y-9141589D02*
X8992191Y-9160636D01*
X8992191Y-9160636D02*
X8982667Y-9170160D01*
X8982667Y-9170160D02*
X8963620Y-9179684D01*
X8963620Y-9179684D02*
X8944572Y-9179684D01*
X8944572Y-9179684D02*
X8925524Y-9170160D01*
X8925524Y-9170160D02*
X8916001Y-9160636D01*
X8916001Y-9160636D02*
X8906477Y-9141589D01*
X8906477Y-9141589D02*
X8896953Y-9103493D01*
X8896953Y-9103493D02*
X8896953Y-9055874D01*
X8896953Y-9055874D02*
X8906477Y-9017779D01*
X8906477Y-9017779D02*
X8916001Y-8998731D01*
X8916001Y-8998731D02*
X8925524Y-8989208D01*
X8925524Y-8989208D02*
X8944572Y-8979684D01*
X9096953Y-9160636D02*
X9106477Y-9170160D01*
X9106477Y-9170160D02*
X9096953Y-9179684D01*
X9096953Y-9179684D02*
X9087429Y-9170160D01*
X9087429Y-9170160D02*
X9096953Y-9160636D01*
X9096953Y-9160636D02*
X9096953Y-9179684D01*
X9173144Y-8979684D02*
X9296953Y-8979684D01*
X9296953Y-8979684D02*
X9230286Y-9055874D01*
X9230286Y-9055874D02*
X9258858Y-9055874D01*
X9258858Y-9055874D02*
X9277905Y-9065398D01*
X9277905Y-9065398D02*
X9287429Y-9074922D01*
X9287429Y-9074922D02*
X9296953Y-9093970D01*
X9296953Y-9093970D02*
X9296953Y-9141589D01*
X9296953Y-9141589D02*
X9287429Y-9160636D01*
X9287429Y-9160636D02*
X9277905Y-9170160D01*
X9277905Y-9170160D02*
X9258858Y-9179684D01*
X9258858Y-9179684D02*
X9201715Y-9179684D01*
X9201715Y-9179684D02*
X9182667Y-9170160D01*
X9182667Y-9170160D02*
X9173144Y-9160636D01*
X9420763Y-8979684D02*
X9439810Y-8979684D01*
X9439810Y-8979684D02*
X9458858Y-8989208D01*
X9458858Y-8989208D02*
X9468382Y-8998731D01*
X9468382Y-8998731D02*
X9477905Y-9017779D01*
X9477905Y-9017779D02*
X9487429Y-9055874D01*
X9487429Y-9055874D02*
X9487429Y-9103493D01*
X9487429Y-9103493D02*
X9477905Y-9141589D01*
X9477905Y-9141589D02*
X9468382Y-9160636D01*
X9468382Y-9160636D02*
X9458858Y-9170160D01*
X9458858Y-9170160D02*
X9439810Y-9179684D01*
X9439810Y-9179684D02*
X9420763Y-9179684D01*
X9420763Y-9179684D02*
X9401715Y-9170160D01*
X9401715Y-9170160D02*
X9392191Y-9160636D01*
X9392191Y-9160636D02*
X9382667Y-9141589D01*
X9382667Y-9141589D02*
X9373144Y-9103493D01*
X9373144Y-9103493D02*
X9373144Y-9055874D01*
X9373144Y-9055874D02*
X9382667Y-9017779D01*
X9382667Y-9017779D02*
X9392191Y-8998731D01*
X9392191Y-8998731D02*
X9401715Y-8989208D01*
X9401715Y-8989208D02*
X9420763Y-8979684D01*
X9611239Y-8979684D02*
X9630286Y-8979684D01*
X9630286Y-8979684D02*
X9649334Y-8989208D01*
X9649334Y-8989208D02*
X9658858Y-8998731D01*
X9658858Y-8998731D02*
X9668382Y-9017779D01*
X9668382Y-9017779D02*
X9677905Y-9055874D01*
X9677905Y-9055874D02*
X9677905Y-9103493D01*
X9677905Y-9103493D02*
X9668382Y-9141589D01*
X9668382Y-9141589D02*
X9658858Y-9160636D01*
X9658858Y-9160636D02*
X9649334Y-9170160D01*
X9649334Y-9170160D02*
X9630286Y-9179684D01*
X9630286Y-9179684D02*
X9611239Y-9179684D01*
X9611239Y-9179684D02*
X9592191Y-9170160D01*
X9592191Y-9170160D02*
X9582667Y-9160636D01*
X9582667Y-9160636D02*
X9573144Y-9141589D01*
X9573144Y-9141589D02*
X9563620Y-9103493D01*
X9563620Y-9103493D02*
X9563620Y-9055874D01*
X9563620Y-9055874D02*
X9573144Y-9017779D01*
X9573144Y-9017779D02*
X9582667Y-8998731D01*
X9582667Y-8998731D02*
X9592191Y-8989208D01*
X9592191Y-8989208D02*
X9611239Y-8979684D01*
X9763620Y-9179684D02*
X9763620Y-9046350D01*
X9763620Y-9065398D02*
X9773144Y-9055874D01*
X9773144Y-9055874D02*
X9792191Y-9046350D01*
X9792191Y-9046350D02*
X9820763Y-9046350D01*
X9820763Y-9046350D02*
X9839810Y-9055874D01*
X9839810Y-9055874D02*
X9849334Y-9074922D01*
X9849334Y-9074922D02*
X9849334Y-9179684D01*
X9849334Y-9074922D02*
X9858858Y-9055874D01*
X9858858Y-9055874D02*
X9877905Y-9046350D01*
X9877905Y-9046350D02*
X9906477Y-9046350D01*
X9906477Y-9046350D02*
X9925525Y-9055874D01*
X9925525Y-9055874D02*
X9935048Y-9074922D01*
X9935048Y-9074922D02*
X9935048Y-9179684D01*
X10030286Y-9179684D02*
X10030286Y-9046350D01*
X10030286Y-9065398D02*
X10039810Y-9055874D01*
X10039810Y-9055874D02*
X10058858Y-9046350D01*
X10058858Y-9046350D02*
X10087429Y-9046350D01*
X10087429Y-9046350D02*
X10106477Y-9055874D01*
X10106477Y-9055874D02*
X10116001Y-9074922D01*
X10116001Y-9074922D02*
X10116001Y-9179684D01*
X10116001Y-9074922D02*
X10125525Y-9055874D01*
X10125525Y-9055874D02*
X10144572Y-9046350D01*
X10144572Y-9046350D02*
X10173144Y-9046350D01*
X10173144Y-9046350D02*
X10192191Y-9055874D01*
X10192191Y-9055874D02*
X10201715Y-9074922D01*
X10201715Y-9074922D02*
X10201715Y-9179684D01*
X10592191Y-8970160D02*
X10420763Y-9227303D01*
X10849334Y-8979684D02*
X10868382Y-8979684D01*
X10868382Y-8979684D02*
X10887429Y-8989208D01*
X10887429Y-8989208D02*
X10896953Y-8998731D01*
X10896953Y-8998731D02*
X10906477Y-9017779D01*
X10906477Y-9017779D02*
X10916001Y-9055874D01*
X10916001Y-9055874D02*
X10916001Y-9103493D01*
X10916001Y-9103493D02*
X10906477Y-9141589D01*
X10906477Y-9141589D02*
X10896953Y-9160636D01*
X10896953Y-9160636D02*
X10887429Y-9170160D01*
X10887429Y-9170160D02*
X10868382Y-9179684D01*
X10868382Y-9179684D02*
X10849334Y-9179684D01*
X10849334Y-9179684D02*
X10830287Y-9170160D01*
X10830287Y-9170160D02*
X10820763Y-9160636D01*
X10820763Y-9160636D02*
X10811239Y-9141589D01*
X10811239Y-9141589D02*
X10801715Y-9103493D01*
X10801715Y-9103493D02*
X10801715Y-9055874D01*
X10801715Y-9055874D02*
X10811239Y-9017779D01*
X10811239Y-9017779D02*
X10820763Y-8998731D01*
X10820763Y-8998731D02*
X10830287Y-8989208D01*
X10830287Y-8989208D02*
X10849334Y-8979684D01*
X11001715Y-9160636D02*
X11011239Y-9170160D01*
X11011239Y-9170160D02*
X11001715Y-9179684D01*
X11001715Y-9179684D02*
X10992191Y-9170160D01*
X10992191Y-9170160D02*
X11001715Y-9160636D01*
X11001715Y-9160636D02*
X11001715Y-9179684D01*
X11135048Y-8979684D02*
X11154096Y-8979684D01*
X11154096Y-8979684D02*
X11173144Y-8989208D01*
X11173144Y-8989208D02*
X11182668Y-8998731D01*
X11182668Y-8998731D02*
X11192191Y-9017779D01*
X11192191Y-9017779D02*
X11201715Y-9055874D01*
X11201715Y-9055874D02*
X11201715Y-9103493D01*
X11201715Y-9103493D02*
X11192191Y-9141589D01*
X11192191Y-9141589D02*
X11182668Y-9160636D01*
X11182668Y-9160636D02*
X11173144Y-9170160D01*
X11173144Y-9170160D02*
X11154096Y-9179684D01*
X11154096Y-9179684D02*
X11135048Y-9179684D01*
X11135048Y-9179684D02*
X11116001Y-9170160D01*
X11116001Y-9170160D02*
X11106477Y-9160636D01*
X11106477Y-9160636D02*
X11096953Y-9141589D01*
X11096953Y-9141589D02*
X11087429Y-9103493D01*
X11087429Y-9103493D02*
X11087429Y-9055874D01*
X11087429Y-9055874D02*
X11096953Y-9017779D01*
X11096953Y-9017779D02*
X11106477Y-8998731D01*
X11106477Y-8998731D02*
X11116001Y-8989208D01*
X11116001Y-8989208D02*
X11135048Y-8979684D01*
X11392191Y-9179684D02*
X11277906Y-9179684D01*
X11335048Y-9179684D02*
X11335048Y-8979684D01*
X11335048Y-8979684D02*
X11316001Y-9008255D01*
X11316001Y-9008255D02*
X11296953Y-9027303D01*
X11296953Y-9027303D02*
X11277906Y-9036827D01*
X11582667Y-9179684D02*
X11468382Y-9179684D01*
X11525525Y-9179684D02*
X11525525Y-8979684D01*
X11525525Y-8979684D02*
X11506477Y-9008255D01*
X11506477Y-9008255D02*
X11487429Y-9027303D01*
X11487429Y-9027303D02*
X11468382Y-9036827D01*
X11696953Y-9065398D02*
X11677906Y-9055874D01*
X11677906Y-9055874D02*
X11668382Y-9046350D01*
X11668382Y-9046350D02*
X11658858Y-9027303D01*
X11658858Y-9027303D02*
X11658858Y-9017779D01*
X11658858Y-9017779D02*
X11668382Y-8998731D01*
X11668382Y-8998731D02*
X11677906Y-8989208D01*
X11677906Y-8989208D02*
X11696953Y-8979684D01*
X11696953Y-8979684D02*
X11735048Y-8979684D01*
X11735048Y-8979684D02*
X11754096Y-8989208D01*
X11754096Y-8989208D02*
X11763620Y-8998731D01*
X11763620Y-8998731D02*
X11773144Y-9017779D01*
X11773144Y-9017779D02*
X11773144Y-9027303D01*
X11773144Y-9027303D02*
X11763620Y-9046350D01*
X11763620Y-9046350D02*
X11754096Y-9055874D01*
X11754096Y-9055874D02*
X11735048Y-9065398D01*
X11735048Y-9065398D02*
X11696953Y-9065398D01*
X11696953Y-9065398D02*
X11677906Y-9074922D01*
X11677906Y-9074922D02*
X11668382Y-9084446D01*
X11668382Y-9084446D02*
X11658858Y-9103493D01*
X11658858Y-9103493D02*
X11658858Y-9141589D01*
X11658858Y-9141589D02*
X11668382Y-9160636D01*
X11668382Y-9160636D02*
X11677906Y-9170160D01*
X11677906Y-9170160D02*
X11696953Y-9179684D01*
X11696953Y-9179684D02*
X11735048Y-9179684D01*
X11735048Y-9179684D02*
X11754096Y-9170160D01*
X11754096Y-9170160D02*
X11763620Y-9160636D01*
X11763620Y-9160636D02*
X11773144Y-9141589D01*
X11773144Y-9141589D02*
X11773144Y-9103493D01*
X11773144Y-9103493D02*
X11763620Y-9084446D01*
X11763620Y-9084446D02*
X11754096Y-9074922D01*
X11754096Y-9074922D02*
X11735048Y-9065398D01*
X11849334Y-8979684D02*
X11849334Y-9017779D01*
X11925525Y-8979684D02*
X11925525Y-9017779D01*
X12220763Y-9255874D02*
X12211239Y-9246350D01*
X12211239Y-9246350D02*
X12192191Y-9217779D01*
X12192191Y-9217779D02*
X12182668Y-9198731D01*
X12182668Y-9198731D02*
X12173144Y-9170160D01*
X12173144Y-9170160D02*
X12163620Y-9122541D01*
X12163620Y-9122541D02*
X12163620Y-9084446D01*
X12163620Y-9084446D02*
X12173144Y-9036827D01*
X12173144Y-9036827D02*
X12182668Y-9008255D01*
X12182668Y-9008255D02*
X12192191Y-8989208D01*
X12192191Y-8989208D02*
X12211239Y-8960636D01*
X12211239Y-8960636D02*
X12220763Y-8951112D01*
X12382668Y-8979684D02*
X12344572Y-8979684D01*
X12344572Y-8979684D02*
X12325525Y-8989208D01*
X12325525Y-8989208D02*
X12316001Y-8998731D01*
X12316001Y-8998731D02*
X12296953Y-9027303D01*
X12296953Y-9027303D02*
X12287429Y-9065398D01*
X12287429Y-9065398D02*
X12287429Y-9141589D01*
X12287429Y-9141589D02*
X12296953Y-9160636D01*
X12296953Y-9160636D02*
X12306477Y-9170160D01*
X12306477Y-9170160D02*
X12325525Y-9179684D01*
X12325525Y-9179684D02*
X12363620Y-9179684D01*
X12363620Y-9179684D02*
X12382668Y-9170160D01*
X12382668Y-9170160D02*
X12392191Y-9160636D01*
X12392191Y-9160636D02*
X12401715Y-9141589D01*
X12401715Y-9141589D02*
X12401715Y-9093970D01*
X12401715Y-9093970D02*
X12392191Y-9074922D01*
X12392191Y-9074922D02*
X12382668Y-9065398D01*
X12382668Y-9065398D02*
X12363620Y-9055874D01*
X12363620Y-9055874D02*
X12325525Y-9055874D01*
X12325525Y-9055874D02*
X12306477Y-9065398D01*
X12306477Y-9065398D02*
X12296953Y-9074922D01*
X12296953Y-9074922D02*
X12287429Y-9093970D01*
X12468382Y-8979684D02*
X12601715Y-8979684D01*
X12601715Y-8979684D02*
X12516001Y-9179684D01*
X12830287Y-9179684D02*
X12830287Y-8979684D01*
X12916001Y-9179684D02*
X12916001Y-9074922D01*
X12916001Y-9074922D02*
X12906477Y-9055874D01*
X12906477Y-9055874D02*
X12887430Y-9046350D01*
X12887430Y-9046350D02*
X12858858Y-9046350D01*
X12858858Y-9046350D02*
X12839810Y-9055874D01*
X12839810Y-9055874D02*
X12830287Y-9065398D01*
X13039810Y-9179684D02*
X13020763Y-9170160D01*
X13020763Y-9170160D02*
X13011239Y-9160636D01*
X13011239Y-9160636D02*
X13001715Y-9141589D01*
X13001715Y-9141589D02*
X13001715Y-9084446D01*
X13001715Y-9084446D02*
X13011239Y-9065398D01*
X13011239Y-9065398D02*
X13020763Y-9055874D01*
X13020763Y-9055874D02*
X13039810Y-9046350D01*
X13039810Y-9046350D02*
X13068382Y-9046350D01*
X13068382Y-9046350D02*
X13087430Y-9055874D01*
X13087430Y-9055874D02*
X13096953Y-9065398D01*
X13096953Y-9065398D02*
X13106477Y-9084446D01*
X13106477Y-9084446D02*
X13106477Y-9141589D01*
X13106477Y-9141589D02*
X13096953Y-9160636D01*
X13096953Y-9160636D02*
X13087430Y-9170160D01*
X13087430Y-9170160D02*
X13068382Y-9179684D01*
X13068382Y-9179684D02*
X13039810Y-9179684D01*
X13220763Y-9179684D02*
X13201715Y-9170160D01*
X13201715Y-9170160D02*
X13192191Y-9151112D01*
X13192191Y-9151112D02*
X13192191Y-8979684D01*
X13373144Y-9170160D02*
X13354096Y-9179684D01*
X13354096Y-9179684D02*
X13316001Y-9179684D01*
X13316001Y-9179684D02*
X13296953Y-9170160D01*
X13296953Y-9170160D02*
X13287430Y-9151112D01*
X13287430Y-9151112D02*
X13287430Y-9074922D01*
X13287430Y-9074922D02*
X13296953Y-9055874D01*
X13296953Y-9055874D02*
X13316001Y-9046350D01*
X13316001Y-9046350D02*
X13354096Y-9046350D01*
X13354096Y-9046350D02*
X13373144Y-9055874D01*
X13373144Y-9055874D02*
X13382668Y-9074922D01*
X13382668Y-9074922D02*
X13382668Y-9093970D01*
X13382668Y-9093970D02*
X13287430Y-9113017D01*
X13458858Y-9170160D02*
X13477906Y-9179684D01*
X13477906Y-9179684D02*
X13516001Y-9179684D01*
X13516001Y-9179684D02*
X13535049Y-9170160D01*
X13535049Y-9170160D02*
X13544572Y-9151112D01*
X13544572Y-9151112D02*
X13544572Y-9141589D01*
X13544572Y-9141589D02*
X13535049Y-9122541D01*
X13535049Y-9122541D02*
X13516001Y-9113017D01*
X13516001Y-9113017D02*
X13487430Y-9113017D01*
X13487430Y-9113017D02*
X13468382Y-9103493D01*
X13468382Y-9103493D02*
X13458858Y-9084446D01*
X13458858Y-9084446D02*
X13458858Y-9074922D01*
X13458858Y-9074922D02*
X13468382Y-9055874D01*
X13468382Y-9055874D02*
X13487430Y-9046350D01*
X13487430Y-9046350D02*
X13516001Y-9046350D01*
X13516001Y-9046350D02*
X13535049Y-9055874D01*
X13611239Y-9255874D02*
X13620763Y-9246350D01*
X13620763Y-9246350D02*
X13639811Y-9217779D01*
X13639811Y-9217779D02*
X13649334Y-9198731D01*
X13649334Y-9198731D02*
X13658858Y-9170160D01*
X13658858Y-9170160D02*
X13668382Y-9122541D01*
X13668382Y-9122541D02*
X13668382Y-9084446D01*
X13668382Y-9084446D02*
X13658858Y-9036827D01*
X13658858Y-9036827D02*
X13649334Y-9008255D01*
X13649334Y-9008255D02*
X13639811Y-8989208D01*
X13639811Y-8989208D02*
X13620763Y-8960636D01*
X13620763Y-8960636D02*
X13611239Y-8951112D01*
D12*
X8645700Y-9352200D02*
G75*
G02*
X8605700Y-9352200I-20000J0D01*
G01*
X8605700Y-9352200D02*
G75*
G02*
X8645700Y-9352200I20000J0D01*
G01*
D11*
X8944572Y-9243684D02*
X8963620Y-9243684D01*
X8963620Y-9243684D02*
X8982667Y-9253208D01*
X8982667Y-9253208D02*
X8992191Y-9262731D01*
X8992191Y-9262731D02*
X9001715Y-9281779D01*
X9001715Y-9281779D02*
X9011239Y-9319874D01*
X9011239Y-9319874D02*
X9011239Y-9367493D01*
X9011239Y-9367493D02*
X9001715Y-9405589D01*
X9001715Y-9405589D02*
X8992191Y-9424636D01*
X8992191Y-9424636D02*
X8982667Y-9434160D01*
X8982667Y-9434160D02*
X8963620Y-9443684D01*
X8963620Y-9443684D02*
X8944572Y-9443684D01*
X8944572Y-9443684D02*
X8925524Y-9434160D01*
X8925524Y-9434160D02*
X8916001Y-9424636D01*
X8916001Y-9424636D02*
X8906477Y-9405589D01*
X8906477Y-9405589D02*
X8896953Y-9367493D01*
X8896953Y-9367493D02*
X8896953Y-9319874D01*
X8896953Y-9319874D02*
X8906477Y-9281779D01*
X8906477Y-9281779D02*
X8916001Y-9262731D01*
X8916001Y-9262731D02*
X8925524Y-9253208D01*
X8925524Y-9253208D02*
X8944572Y-9243684D01*
X9096953Y-9424636D02*
X9106477Y-9434160D01*
X9106477Y-9434160D02*
X9096953Y-9443684D01*
X9096953Y-9443684D02*
X9087429Y-9434160D01*
X9087429Y-9434160D02*
X9096953Y-9424636D01*
X9096953Y-9424636D02*
X9096953Y-9443684D01*
X9277905Y-9310350D02*
X9277905Y-9443684D01*
X9230286Y-9234160D02*
X9182667Y-9377017D01*
X9182667Y-9377017D02*
X9306477Y-9377017D01*
X9420763Y-9243684D02*
X9439810Y-9243684D01*
X9439810Y-9243684D02*
X9458858Y-9253208D01*
X9458858Y-9253208D02*
X9468382Y-9262731D01*
X9468382Y-9262731D02*
X9477905Y-9281779D01*
X9477905Y-9281779D02*
X9487429Y-9319874D01*
X9487429Y-9319874D02*
X9487429Y-9367493D01*
X9487429Y-9367493D02*
X9477905Y-9405589D01*
X9477905Y-9405589D02*
X9468382Y-9424636D01*
X9468382Y-9424636D02*
X9458858Y-9434160D01*
X9458858Y-9434160D02*
X9439810Y-9443684D01*
X9439810Y-9443684D02*
X9420763Y-9443684D01*
X9420763Y-9443684D02*
X9401715Y-9434160D01*
X9401715Y-9434160D02*
X9392191Y-9424636D01*
X9392191Y-9424636D02*
X9382667Y-9405589D01*
X9382667Y-9405589D02*
X9373144Y-9367493D01*
X9373144Y-9367493D02*
X9373144Y-9319874D01*
X9373144Y-9319874D02*
X9382667Y-9281779D01*
X9382667Y-9281779D02*
X9392191Y-9262731D01*
X9392191Y-9262731D02*
X9401715Y-9253208D01*
X9401715Y-9253208D02*
X9420763Y-9243684D01*
X9611239Y-9243684D02*
X9630286Y-9243684D01*
X9630286Y-9243684D02*
X9649334Y-9253208D01*
X9649334Y-9253208D02*
X9658858Y-9262731D01*
X9658858Y-9262731D02*
X9668382Y-9281779D01*
X9668382Y-9281779D02*
X9677905Y-9319874D01*
X9677905Y-9319874D02*
X9677905Y-9367493D01*
X9677905Y-9367493D02*
X9668382Y-9405589D01*
X9668382Y-9405589D02*
X9658858Y-9424636D01*
X9658858Y-9424636D02*
X9649334Y-9434160D01*
X9649334Y-9434160D02*
X9630286Y-9443684D01*
X9630286Y-9443684D02*
X9611239Y-9443684D01*
X9611239Y-9443684D02*
X9592191Y-9434160D01*
X9592191Y-9434160D02*
X9582667Y-9424636D01*
X9582667Y-9424636D02*
X9573144Y-9405589D01*
X9573144Y-9405589D02*
X9563620Y-9367493D01*
X9563620Y-9367493D02*
X9563620Y-9319874D01*
X9563620Y-9319874D02*
X9573144Y-9281779D01*
X9573144Y-9281779D02*
X9582667Y-9262731D01*
X9582667Y-9262731D02*
X9592191Y-9253208D01*
X9592191Y-9253208D02*
X9611239Y-9243684D01*
X9763620Y-9443684D02*
X9763620Y-9310350D01*
X9763620Y-9329398D02*
X9773144Y-9319874D01*
X9773144Y-9319874D02*
X9792191Y-9310350D01*
X9792191Y-9310350D02*
X9820763Y-9310350D01*
X9820763Y-9310350D02*
X9839810Y-9319874D01*
X9839810Y-9319874D02*
X9849334Y-9338922D01*
X9849334Y-9338922D02*
X9849334Y-9443684D01*
X9849334Y-9338922D02*
X9858858Y-9319874D01*
X9858858Y-9319874D02*
X9877905Y-9310350D01*
X9877905Y-9310350D02*
X9906477Y-9310350D01*
X9906477Y-9310350D02*
X9925525Y-9319874D01*
X9925525Y-9319874D02*
X9935048Y-9338922D01*
X9935048Y-9338922D02*
X9935048Y-9443684D01*
X10030286Y-9443684D02*
X10030286Y-9310350D01*
X10030286Y-9329398D02*
X10039810Y-9319874D01*
X10039810Y-9319874D02*
X10058858Y-9310350D01*
X10058858Y-9310350D02*
X10087429Y-9310350D01*
X10087429Y-9310350D02*
X10106477Y-9319874D01*
X10106477Y-9319874D02*
X10116001Y-9338922D01*
X10116001Y-9338922D02*
X10116001Y-9443684D01*
X10116001Y-9338922D02*
X10125525Y-9319874D01*
X10125525Y-9319874D02*
X10144572Y-9310350D01*
X10144572Y-9310350D02*
X10173144Y-9310350D01*
X10173144Y-9310350D02*
X10192191Y-9319874D01*
X10192191Y-9319874D02*
X10201715Y-9338922D01*
X10201715Y-9338922D02*
X10201715Y-9443684D01*
X10592191Y-9234160D02*
X10420763Y-9491303D01*
X10849334Y-9243684D02*
X10868382Y-9243684D01*
X10868382Y-9243684D02*
X10887429Y-9253208D01*
X10887429Y-9253208D02*
X10896953Y-9262731D01*
X10896953Y-9262731D02*
X10906477Y-9281779D01*
X10906477Y-9281779D02*
X10916001Y-9319874D01*
X10916001Y-9319874D02*
X10916001Y-9367493D01*
X10916001Y-9367493D02*
X10906477Y-9405589D01*
X10906477Y-9405589D02*
X10896953Y-9424636D01*
X10896953Y-9424636D02*
X10887429Y-9434160D01*
X10887429Y-9434160D02*
X10868382Y-9443684D01*
X10868382Y-9443684D02*
X10849334Y-9443684D01*
X10849334Y-9443684D02*
X10830287Y-9434160D01*
X10830287Y-9434160D02*
X10820763Y-9424636D01*
X10820763Y-9424636D02*
X10811239Y-9405589D01*
X10811239Y-9405589D02*
X10801715Y-9367493D01*
X10801715Y-9367493D02*
X10801715Y-9319874D01*
X10801715Y-9319874D02*
X10811239Y-9281779D01*
X10811239Y-9281779D02*
X10820763Y-9262731D01*
X10820763Y-9262731D02*
X10830287Y-9253208D01*
X10830287Y-9253208D02*
X10849334Y-9243684D01*
X11001715Y-9424636D02*
X11011239Y-9434160D01*
X11011239Y-9434160D02*
X11001715Y-9443684D01*
X11001715Y-9443684D02*
X10992191Y-9434160D01*
X10992191Y-9434160D02*
X11001715Y-9424636D01*
X11001715Y-9424636D02*
X11001715Y-9443684D01*
X11135048Y-9243684D02*
X11154096Y-9243684D01*
X11154096Y-9243684D02*
X11173144Y-9253208D01*
X11173144Y-9253208D02*
X11182668Y-9262731D01*
X11182668Y-9262731D02*
X11192191Y-9281779D01*
X11192191Y-9281779D02*
X11201715Y-9319874D01*
X11201715Y-9319874D02*
X11201715Y-9367493D01*
X11201715Y-9367493D02*
X11192191Y-9405589D01*
X11192191Y-9405589D02*
X11182668Y-9424636D01*
X11182668Y-9424636D02*
X11173144Y-9434160D01*
X11173144Y-9434160D02*
X11154096Y-9443684D01*
X11154096Y-9443684D02*
X11135048Y-9443684D01*
X11135048Y-9443684D02*
X11116001Y-9434160D01*
X11116001Y-9434160D02*
X11106477Y-9424636D01*
X11106477Y-9424636D02*
X11096953Y-9405589D01*
X11096953Y-9405589D02*
X11087429Y-9367493D01*
X11087429Y-9367493D02*
X11087429Y-9319874D01*
X11087429Y-9319874D02*
X11096953Y-9281779D01*
X11096953Y-9281779D02*
X11106477Y-9262731D01*
X11106477Y-9262731D02*
X11116001Y-9253208D01*
X11116001Y-9253208D02*
X11135048Y-9243684D01*
X11392191Y-9443684D02*
X11277906Y-9443684D01*
X11335048Y-9443684D02*
X11335048Y-9243684D01*
X11335048Y-9243684D02*
X11316001Y-9272255D01*
X11316001Y-9272255D02*
X11296953Y-9291303D01*
X11296953Y-9291303D02*
X11277906Y-9300827D01*
X11573144Y-9243684D02*
X11477906Y-9243684D01*
X11477906Y-9243684D02*
X11468382Y-9338922D01*
X11468382Y-9338922D02*
X11477906Y-9329398D01*
X11477906Y-9329398D02*
X11496953Y-9319874D01*
X11496953Y-9319874D02*
X11544572Y-9319874D01*
X11544572Y-9319874D02*
X11563620Y-9329398D01*
X11563620Y-9329398D02*
X11573144Y-9338922D01*
X11573144Y-9338922D02*
X11582667Y-9357970D01*
X11582667Y-9357970D02*
X11582667Y-9405589D01*
X11582667Y-9405589D02*
X11573144Y-9424636D01*
X11573144Y-9424636D02*
X11563620Y-9434160D01*
X11563620Y-9434160D02*
X11544572Y-9443684D01*
X11544572Y-9443684D02*
X11496953Y-9443684D01*
X11496953Y-9443684D02*
X11477906Y-9434160D01*
X11477906Y-9434160D02*
X11468382Y-9424636D01*
X11649334Y-9243684D02*
X11782667Y-9243684D01*
X11782667Y-9243684D02*
X11696953Y-9443684D01*
X11849334Y-9243684D02*
X11849334Y-9281779D01*
X11925525Y-9243684D02*
X11925525Y-9281779D01*
X12220763Y-9519874D02*
X12211239Y-9510350D01*
X12211239Y-9510350D02*
X12192191Y-9481779D01*
X12192191Y-9481779D02*
X12182668Y-9462731D01*
X12182668Y-9462731D02*
X12173144Y-9434160D01*
X12173144Y-9434160D02*
X12163620Y-9386541D01*
X12163620Y-9386541D02*
X12163620Y-9348446D01*
X12163620Y-9348446D02*
X12173144Y-9300827D01*
X12173144Y-9300827D02*
X12182668Y-9272255D01*
X12182668Y-9272255D02*
X12192191Y-9253208D01*
X12192191Y-9253208D02*
X12211239Y-9224636D01*
X12211239Y-9224636D02*
X12220763Y-9215112D01*
X12277906Y-9243684D02*
X12401715Y-9243684D01*
X12401715Y-9243684D02*
X12335048Y-9319874D01*
X12335048Y-9319874D02*
X12363620Y-9319874D01*
X12363620Y-9319874D02*
X12382668Y-9329398D01*
X12382668Y-9329398D02*
X12392191Y-9338922D01*
X12392191Y-9338922D02*
X12401715Y-9357970D01*
X12401715Y-9357970D02*
X12401715Y-9405589D01*
X12401715Y-9405589D02*
X12392191Y-9424636D01*
X12392191Y-9424636D02*
X12382668Y-9434160D01*
X12382668Y-9434160D02*
X12363620Y-9443684D01*
X12363620Y-9443684D02*
X12306477Y-9443684D01*
X12306477Y-9443684D02*
X12287429Y-9434160D01*
X12287429Y-9434160D02*
X12277906Y-9424636D01*
X12639810Y-9443684D02*
X12639810Y-9243684D01*
X12725525Y-9443684D02*
X12725525Y-9338922D01*
X12725525Y-9338922D02*
X12716001Y-9319874D01*
X12716001Y-9319874D02*
X12696953Y-9310350D01*
X12696953Y-9310350D02*
X12668382Y-9310350D01*
X12668382Y-9310350D02*
X12649334Y-9319874D01*
X12649334Y-9319874D02*
X12639810Y-9329398D01*
X12849334Y-9443684D02*
X12830287Y-9434160D01*
X12830287Y-9434160D02*
X12820763Y-9424636D01*
X12820763Y-9424636D02*
X12811239Y-9405589D01*
X12811239Y-9405589D02*
X12811239Y-9348446D01*
X12811239Y-9348446D02*
X12820763Y-9329398D01*
X12820763Y-9329398D02*
X12830287Y-9319874D01*
X12830287Y-9319874D02*
X12849334Y-9310350D01*
X12849334Y-9310350D02*
X12877906Y-9310350D01*
X12877906Y-9310350D02*
X12896953Y-9319874D01*
X12896953Y-9319874D02*
X12906477Y-9329398D01*
X12906477Y-9329398D02*
X12916001Y-9348446D01*
X12916001Y-9348446D02*
X12916001Y-9405589D01*
X12916001Y-9405589D02*
X12906477Y-9424636D01*
X12906477Y-9424636D02*
X12896953Y-9434160D01*
X12896953Y-9434160D02*
X12877906Y-9443684D01*
X12877906Y-9443684D02*
X12849334Y-9443684D01*
X13030287Y-9443684D02*
X13011239Y-9434160D01*
X13011239Y-9434160D02*
X13001715Y-9415112D01*
X13001715Y-9415112D02*
X13001715Y-9243684D01*
X13182668Y-9434160D02*
X13163620Y-9443684D01*
X13163620Y-9443684D02*
X13125525Y-9443684D01*
X13125525Y-9443684D02*
X13106477Y-9434160D01*
X13106477Y-9434160D02*
X13096953Y-9415112D01*
X13096953Y-9415112D02*
X13096953Y-9338922D01*
X13096953Y-9338922D02*
X13106477Y-9319874D01*
X13106477Y-9319874D02*
X13125525Y-9310350D01*
X13125525Y-9310350D02*
X13163620Y-9310350D01*
X13163620Y-9310350D02*
X13182668Y-9319874D01*
X13182668Y-9319874D02*
X13192191Y-9338922D01*
X13192191Y-9338922D02*
X13192191Y-9357970D01*
X13192191Y-9357970D02*
X13096953Y-9377017D01*
X13268382Y-9434160D02*
X13287430Y-9443684D01*
X13287430Y-9443684D02*
X13325525Y-9443684D01*
X13325525Y-9443684D02*
X13344572Y-9434160D01*
X13344572Y-9434160D02*
X13354096Y-9415112D01*
X13354096Y-9415112D02*
X13354096Y-9405589D01*
X13354096Y-9405589D02*
X13344572Y-9386541D01*
X13344572Y-9386541D02*
X13325525Y-9377017D01*
X13325525Y-9377017D02*
X13296953Y-9377017D01*
X13296953Y-9377017D02*
X13277906Y-9367493D01*
X13277906Y-9367493D02*
X13268382Y-9348446D01*
X13268382Y-9348446D02*
X13268382Y-9338922D01*
X13268382Y-9338922D02*
X13277906Y-9319874D01*
X13277906Y-9319874D02*
X13296953Y-9310350D01*
X13296953Y-9310350D02*
X13325525Y-9310350D01*
X13325525Y-9310350D02*
X13344572Y-9319874D01*
X13420763Y-9519874D02*
X13430287Y-9510350D01*
X13430287Y-9510350D02*
X13449334Y-9481779D01*
X13449334Y-9481779D02*
X13458858Y-9462731D01*
X13458858Y-9462731D02*
X13468382Y-9434160D01*
X13468382Y-9434160D02*
X13477906Y-9386541D01*
X13477906Y-9386541D02*
X13477906Y-9348446D01*
X13477906Y-9348446D02*
X13468382Y-9300827D01*
X13468382Y-9300827D02*
X13458858Y-9272255D01*
X13458858Y-9272255D02*
X13449334Y-9253208D01*
X13449334Y-9253208D02*
X13430287Y-9224636D01*
X13430287Y-9224636D02*
X13420763Y-9215112D01*
X8545700Y-9516200D02*
X8545700Y-9716200D01*
X8445700Y-9616200D02*
X8645700Y-9616200D01*
X8896953Y-9526731D02*
X8906477Y-9517208D01*
X8906477Y-9517208D02*
X8925524Y-9507684D01*
X8925524Y-9507684D02*
X8973144Y-9507684D01*
X8973144Y-9507684D02*
X8992191Y-9517208D01*
X8992191Y-9517208D02*
X9001715Y-9526731D01*
X9001715Y-9526731D02*
X9011239Y-9545779D01*
X9011239Y-9545779D02*
X9011239Y-9564827D01*
X9011239Y-9564827D02*
X9001715Y-9593398D01*
X9001715Y-9593398D02*
X8887429Y-9707684D01*
X8887429Y-9707684D02*
X9011239Y-9707684D01*
X9096953Y-9688636D02*
X9106477Y-9698160D01*
X9106477Y-9698160D02*
X9096953Y-9707684D01*
X9096953Y-9707684D02*
X9087429Y-9698160D01*
X9087429Y-9698160D02*
X9096953Y-9688636D01*
X9096953Y-9688636D02*
X9096953Y-9707684D01*
X9287429Y-9507684D02*
X9192191Y-9507684D01*
X9192191Y-9507684D02*
X9182667Y-9602922D01*
X9182667Y-9602922D02*
X9192191Y-9593398D01*
X9192191Y-9593398D02*
X9211239Y-9583874D01*
X9211239Y-9583874D02*
X9258858Y-9583874D01*
X9258858Y-9583874D02*
X9277905Y-9593398D01*
X9277905Y-9593398D02*
X9287429Y-9602922D01*
X9287429Y-9602922D02*
X9296953Y-9621970D01*
X9296953Y-9621970D02*
X9296953Y-9669589D01*
X9296953Y-9669589D02*
X9287429Y-9688636D01*
X9287429Y-9688636D02*
X9277905Y-9698160D01*
X9277905Y-9698160D02*
X9258858Y-9707684D01*
X9258858Y-9707684D02*
X9211239Y-9707684D01*
X9211239Y-9707684D02*
X9192191Y-9698160D01*
X9192191Y-9698160D02*
X9182667Y-9688636D01*
X9468382Y-9574350D02*
X9468382Y-9707684D01*
X9420763Y-9498160D02*
X9373144Y-9641017D01*
X9373144Y-9641017D02*
X9496953Y-9641017D01*
X9611239Y-9507684D02*
X9630286Y-9507684D01*
X9630286Y-9507684D02*
X9649334Y-9517208D01*
X9649334Y-9517208D02*
X9658858Y-9526731D01*
X9658858Y-9526731D02*
X9668382Y-9545779D01*
X9668382Y-9545779D02*
X9677905Y-9583874D01*
X9677905Y-9583874D02*
X9677905Y-9631493D01*
X9677905Y-9631493D02*
X9668382Y-9669589D01*
X9668382Y-9669589D02*
X9658858Y-9688636D01*
X9658858Y-9688636D02*
X9649334Y-9698160D01*
X9649334Y-9698160D02*
X9630286Y-9707684D01*
X9630286Y-9707684D02*
X9611239Y-9707684D01*
X9611239Y-9707684D02*
X9592191Y-9698160D01*
X9592191Y-9698160D02*
X9582667Y-9688636D01*
X9582667Y-9688636D02*
X9573144Y-9669589D01*
X9573144Y-9669589D02*
X9563620Y-9631493D01*
X9563620Y-9631493D02*
X9563620Y-9583874D01*
X9563620Y-9583874D02*
X9573144Y-9545779D01*
X9573144Y-9545779D02*
X9582667Y-9526731D01*
X9582667Y-9526731D02*
X9592191Y-9517208D01*
X9592191Y-9517208D02*
X9611239Y-9507684D01*
X9763620Y-9707684D02*
X9763620Y-9574350D01*
X9763620Y-9593398D02*
X9773144Y-9583874D01*
X9773144Y-9583874D02*
X9792191Y-9574350D01*
X9792191Y-9574350D02*
X9820763Y-9574350D01*
X9820763Y-9574350D02*
X9839810Y-9583874D01*
X9839810Y-9583874D02*
X9849334Y-9602922D01*
X9849334Y-9602922D02*
X9849334Y-9707684D01*
X9849334Y-9602922D02*
X9858858Y-9583874D01*
X9858858Y-9583874D02*
X9877905Y-9574350D01*
X9877905Y-9574350D02*
X9906477Y-9574350D01*
X9906477Y-9574350D02*
X9925525Y-9583874D01*
X9925525Y-9583874D02*
X9935048Y-9602922D01*
X9935048Y-9602922D02*
X9935048Y-9707684D01*
X10030286Y-9707684D02*
X10030286Y-9574350D01*
X10030286Y-9593398D02*
X10039810Y-9583874D01*
X10039810Y-9583874D02*
X10058858Y-9574350D01*
X10058858Y-9574350D02*
X10087429Y-9574350D01*
X10087429Y-9574350D02*
X10106477Y-9583874D01*
X10106477Y-9583874D02*
X10116001Y-9602922D01*
X10116001Y-9602922D02*
X10116001Y-9707684D01*
X10116001Y-9602922D02*
X10125525Y-9583874D01*
X10125525Y-9583874D02*
X10144572Y-9574350D01*
X10144572Y-9574350D02*
X10173144Y-9574350D01*
X10173144Y-9574350D02*
X10192191Y-9583874D01*
X10192191Y-9583874D02*
X10201715Y-9602922D01*
X10201715Y-9602922D02*
X10201715Y-9707684D01*
X10592191Y-9498160D02*
X10420763Y-9755303D01*
X10849334Y-9507684D02*
X10868382Y-9507684D01*
X10868382Y-9507684D02*
X10887429Y-9517208D01*
X10887429Y-9517208D02*
X10896953Y-9526731D01*
X10896953Y-9526731D02*
X10906477Y-9545779D01*
X10906477Y-9545779D02*
X10916001Y-9583874D01*
X10916001Y-9583874D02*
X10916001Y-9631493D01*
X10916001Y-9631493D02*
X10906477Y-9669589D01*
X10906477Y-9669589D02*
X10896953Y-9688636D01*
X10896953Y-9688636D02*
X10887429Y-9698160D01*
X10887429Y-9698160D02*
X10868382Y-9707684D01*
X10868382Y-9707684D02*
X10849334Y-9707684D01*
X10849334Y-9707684D02*
X10830287Y-9698160D01*
X10830287Y-9698160D02*
X10820763Y-9688636D01*
X10820763Y-9688636D02*
X10811239Y-9669589D01*
X10811239Y-9669589D02*
X10801715Y-9631493D01*
X10801715Y-9631493D02*
X10801715Y-9583874D01*
X10801715Y-9583874D02*
X10811239Y-9545779D01*
X10811239Y-9545779D02*
X10820763Y-9526731D01*
X10820763Y-9526731D02*
X10830287Y-9517208D01*
X10830287Y-9517208D02*
X10849334Y-9507684D01*
X11001715Y-9688636D02*
X11011239Y-9698160D01*
X11011239Y-9698160D02*
X11001715Y-9707684D01*
X11001715Y-9707684D02*
X10992191Y-9698160D01*
X10992191Y-9698160D02*
X11001715Y-9688636D01*
X11001715Y-9688636D02*
X11001715Y-9707684D01*
X11201715Y-9707684D02*
X11087429Y-9707684D01*
X11144572Y-9707684D02*
X11144572Y-9507684D01*
X11144572Y-9507684D02*
X11125525Y-9536255D01*
X11125525Y-9536255D02*
X11106477Y-9555303D01*
X11106477Y-9555303D02*
X11087429Y-9564827D01*
X11325525Y-9507684D02*
X11344572Y-9507684D01*
X11344572Y-9507684D02*
X11363620Y-9517208D01*
X11363620Y-9517208D02*
X11373144Y-9526731D01*
X11373144Y-9526731D02*
X11382667Y-9545779D01*
X11382667Y-9545779D02*
X11392191Y-9583874D01*
X11392191Y-9583874D02*
X11392191Y-9631493D01*
X11392191Y-9631493D02*
X11382667Y-9669589D01*
X11382667Y-9669589D02*
X11373144Y-9688636D01*
X11373144Y-9688636D02*
X11363620Y-9698160D01*
X11363620Y-9698160D02*
X11344572Y-9707684D01*
X11344572Y-9707684D02*
X11325525Y-9707684D01*
X11325525Y-9707684D02*
X11306477Y-9698160D01*
X11306477Y-9698160D02*
X11296953Y-9688636D01*
X11296953Y-9688636D02*
X11287429Y-9669589D01*
X11287429Y-9669589D02*
X11277906Y-9631493D01*
X11277906Y-9631493D02*
X11277906Y-9583874D01*
X11277906Y-9583874D02*
X11287429Y-9545779D01*
X11287429Y-9545779D02*
X11296953Y-9526731D01*
X11296953Y-9526731D02*
X11306477Y-9517208D01*
X11306477Y-9517208D02*
X11325525Y-9507684D01*
X11516001Y-9507684D02*
X11535048Y-9507684D01*
X11535048Y-9507684D02*
X11554096Y-9517208D01*
X11554096Y-9517208D02*
X11563620Y-9526731D01*
X11563620Y-9526731D02*
X11573144Y-9545779D01*
X11573144Y-9545779D02*
X11582667Y-9583874D01*
X11582667Y-9583874D02*
X11582667Y-9631493D01*
X11582667Y-9631493D02*
X11573144Y-9669589D01*
X11573144Y-9669589D02*
X11563620Y-9688636D01*
X11563620Y-9688636D02*
X11554096Y-9698160D01*
X11554096Y-9698160D02*
X11535048Y-9707684D01*
X11535048Y-9707684D02*
X11516001Y-9707684D01*
X11516001Y-9707684D02*
X11496953Y-9698160D01*
X11496953Y-9698160D02*
X11487429Y-9688636D01*
X11487429Y-9688636D02*
X11477906Y-9669589D01*
X11477906Y-9669589D02*
X11468382Y-9631493D01*
X11468382Y-9631493D02*
X11468382Y-9583874D01*
X11468382Y-9583874D02*
X11477906Y-9545779D01*
X11477906Y-9545779D02*
X11487429Y-9526731D01*
X11487429Y-9526731D02*
X11496953Y-9517208D01*
X11496953Y-9517208D02*
X11516001Y-9507684D01*
X11706477Y-9507684D02*
X11725525Y-9507684D01*
X11725525Y-9507684D02*
X11744572Y-9517208D01*
X11744572Y-9517208D02*
X11754096Y-9526731D01*
X11754096Y-9526731D02*
X11763620Y-9545779D01*
X11763620Y-9545779D02*
X11773144Y-9583874D01*
X11773144Y-9583874D02*
X11773144Y-9631493D01*
X11773144Y-9631493D02*
X11763620Y-9669589D01*
X11763620Y-9669589D02*
X11754096Y-9688636D01*
X11754096Y-9688636D02*
X11744572Y-9698160D01*
X11744572Y-9698160D02*
X11725525Y-9707684D01*
X11725525Y-9707684D02*
X11706477Y-9707684D01*
X11706477Y-9707684D02*
X11687429Y-9698160D01*
X11687429Y-9698160D02*
X11677906Y-9688636D01*
X11677906Y-9688636D02*
X11668382Y-9669589D01*
X11668382Y-9669589D02*
X11658858Y-9631493D01*
X11658858Y-9631493D02*
X11658858Y-9583874D01*
X11658858Y-9583874D02*
X11668382Y-9545779D01*
X11668382Y-9545779D02*
X11677906Y-9526731D01*
X11677906Y-9526731D02*
X11687429Y-9517208D01*
X11687429Y-9517208D02*
X11706477Y-9507684D01*
X11849334Y-9507684D02*
X11849334Y-9545779D01*
X11925525Y-9507684D02*
X11925525Y-9545779D01*
X12220763Y-9783874D02*
X12211239Y-9774350D01*
X12211239Y-9774350D02*
X12192191Y-9745779D01*
X12192191Y-9745779D02*
X12182668Y-9726731D01*
X12182668Y-9726731D02*
X12173144Y-9698160D01*
X12173144Y-9698160D02*
X12163620Y-9650541D01*
X12163620Y-9650541D02*
X12163620Y-9612446D01*
X12163620Y-9612446D02*
X12173144Y-9564827D01*
X12173144Y-9564827D02*
X12182668Y-9536255D01*
X12182668Y-9536255D02*
X12192191Y-9517208D01*
X12192191Y-9517208D02*
X12211239Y-9488636D01*
X12211239Y-9488636D02*
X12220763Y-9479112D01*
X12382668Y-9574350D02*
X12382668Y-9707684D01*
X12335048Y-9498160D02*
X12287429Y-9641017D01*
X12287429Y-9641017D02*
X12411239Y-9641017D01*
X12639810Y-9707684D02*
X12639810Y-9507684D01*
X12725525Y-9707684D02*
X12725525Y-9602922D01*
X12725525Y-9602922D02*
X12716001Y-9583874D01*
X12716001Y-9583874D02*
X12696953Y-9574350D01*
X12696953Y-9574350D02*
X12668382Y-9574350D01*
X12668382Y-9574350D02*
X12649334Y-9583874D01*
X12649334Y-9583874D02*
X12639810Y-9593398D01*
X12849334Y-9707684D02*
X12830287Y-9698160D01*
X12830287Y-9698160D02*
X12820763Y-9688636D01*
X12820763Y-9688636D02*
X12811239Y-9669589D01*
X12811239Y-9669589D02*
X12811239Y-9612446D01*
X12811239Y-9612446D02*
X12820763Y-9593398D01*
X12820763Y-9593398D02*
X12830287Y-9583874D01*
X12830287Y-9583874D02*
X12849334Y-9574350D01*
X12849334Y-9574350D02*
X12877906Y-9574350D01*
X12877906Y-9574350D02*
X12896953Y-9583874D01*
X12896953Y-9583874D02*
X12906477Y-9593398D01*
X12906477Y-9593398D02*
X12916001Y-9612446D01*
X12916001Y-9612446D02*
X12916001Y-9669589D01*
X12916001Y-9669589D02*
X12906477Y-9688636D01*
X12906477Y-9688636D02*
X12896953Y-9698160D01*
X12896953Y-9698160D02*
X12877906Y-9707684D01*
X12877906Y-9707684D02*
X12849334Y-9707684D01*
X13030287Y-9707684D02*
X13011239Y-9698160D01*
X13011239Y-9698160D02*
X13001715Y-9679112D01*
X13001715Y-9679112D02*
X13001715Y-9507684D01*
X13182668Y-9698160D02*
X13163620Y-9707684D01*
X13163620Y-9707684D02*
X13125525Y-9707684D01*
X13125525Y-9707684D02*
X13106477Y-9698160D01*
X13106477Y-9698160D02*
X13096953Y-9679112D01*
X13096953Y-9679112D02*
X13096953Y-9602922D01*
X13096953Y-9602922D02*
X13106477Y-9583874D01*
X13106477Y-9583874D02*
X13125525Y-9574350D01*
X13125525Y-9574350D02*
X13163620Y-9574350D01*
X13163620Y-9574350D02*
X13182668Y-9583874D01*
X13182668Y-9583874D02*
X13192191Y-9602922D01*
X13192191Y-9602922D02*
X13192191Y-9621970D01*
X13192191Y-9621970D02*
X13096953Y-9641017D01*
X13268382Y-9698160D02*
X13287430Y-9707684D01*
X13287430Y-9707684D02*
X13325525Y-9707684D01*
X13325525Y-9707684D02*
X13344572Y-9698160D01*
X13344572Y-9698160D02*
X13354096Y-9679112D01*
X13354096Y-9679112D02*
X13354096Y-9669589D01*
X13354096Y-9669589D02*
X13344572Y-9650541D01*
X13344572Y-9650541D02*
X13325525Y-9641017D01*
X13325525Y-9641017D02*
X13296953Y-9641017D01*
X13296953Y-9641017D02*
X13277906Y-9631493D01*
X13277906Y-9631493D02*
X13268382Y-9612446D01*
X13268382Y-9612446D02*
X13268382Y-9602922D01*
X13268382Y-9602922D02*
X13277906Y-9583874D01*
X13277906Y-9583874D02*
X13296953Y-9574350D01*
X13296953Y-9574350D02*
X13325525Y-9574350D01*
X13325525Y-9574350D02*
X13344572Y-9583874D01*
X13420763Y-9783874D02*
X13430287Y-9774350D01*
X13430287Y-9774350D02*
X13449334Y-9745779D01*
X13449334Y-9745779D02*
X13458858Y-9726731D01*
X13458858Y-9726731D02*
X13468382Y-9698160D01*
X13468382Y-9698160D02*
X13477906Y-9650541D01*
X13477906Y-9650541D02*
X13477906Y-9612446D01*
X13477906Y-9612446D02*
X13468382Y-9564827D01*
X13468382Y-9564827D02*
X13458858Y-9536255D01*
X13458858Y-9536255D02*
X13449334Y-9517208D01*
X13449334Y-9517208D02*
X13430287Y-9488636D01*
X13430287Y-9488636D02*
X13420763Y-9479112D01*
M02*
