%TF.GenerationSoftware,KiCad,Pcbnew,9.0.7*%
%TF.CreationDate,2026-09-06T19:53:39+05:30*%
%TF.ProjectId,step_down_converter_BL8034,73746570-5f64-46f7-976e-5f636f6e7665,rev?*%
%TF.SameCoordinates,Original*%
%TF.FileFunction,Copper,L2,Bot*%
%TF.FilePolarity,Positive*%
%FSLAX46Y46*%
G04 Gerber Fmt 4.6, Leading zero omitted, Abs format (unit mm)*
G04 Created by KiCad (PCBNEW 9.0.7) date 2026-09-06 19:53:39*
%MOMM*%
%LPD*%
G01*
G04 APERTURE LIST*
%TA.AperFunction,ComponentPad*%
%ADD10R,5.000000X8.000000*%
%TD*%
%TA.AperFunction,ViaPad*%
%ADD11C,0.600000*%
%TD*%
%TA.AperFunction,ViaPad*%
%ADD12C,0.800000*%
%TD*%
%TA.AperFunction,Conductor*%
%ADD13C,0.500000*%
%TD*%
G04 APERTURE END LIST*
D10*
%TO.P,V_IN-,1,1*%
%TO.N,GND*%
X92108000Y-62534000D03*
%TD*%
%TO.P,V_OUT -,1,1*%
%TO.N,GND*%
X119366000Y-62517000D03*
%TD*%
%TO.P,V_0UT +,1,1*%
%TO.N,VOUT_5V*%
X119343000Y-77771000D03*
%TD*%
%TO.P,V_IN+,1,1*%
%TO.N,VIN*%
X92119000Y-78012000D03*
%TD*%
D11*
%TO.N,GND*%
X111240000Y-70110000D03*
X114370000Y-72910000D03*
X114050000Y-79850000D03*
X108640000Y-73590000D03*
X110410000Y-68850000D03*
X114710000Y-58450000D03*
X114710000Y-60990000D03*
X120060000Y-71260000D03*
X120060000Y-68720000D03*
X114800000Y-63370000D03*
X114800000Y-65910000D03*
X112550000Y-65650000D03*
X105336000Y-69471000D03*
X96492000Y-77988000D03*
X107420000Y-69980000D03*
X109150000Y-70490000D03*
X108781000Y-68153000D03*
X107500000Y-72060000D03*
X106241000Y-68153000D03*
X108479000Y-66634000D03*
X90774000Y-68774000D03*
X90774000Y-71314000D03*
X117520000Y-68730000D03*
X114980000Y-71270000D03*
X114980000Y-68730000D03*
X117520000Y-71270000D03*
X97837000Y-63261000D03*
X95911000Y-65620000D03*
X95911000Y-63080000D03*
X110591000Y-63278000D03*
X92900000Y-68700000D03*
X92900000Y-71240000D03*
X109219000Y-58469000D03*
X111759000Y-58469000D03*
X111790000Y-79820000D03*
X109232000Y-82098000D03*
X111772000Y-82098000D03*
X114530000Y-82090000D03*
X111759000Y-61009000D03*
X109219000Y-61009000D03*
X96928000Y-79869000D03*
X104345000Y-82039000D03*
X101805000Y-82039000D03*
X101805000Y-79499000D03*
X99265000Y-82039000D03*
X99265000Y-79499000D03*
X96725000Y-82039000D03*
X106885000Y-82039000D03*
X103590000Y-61044000D03*
X101050000Y-61044000D03*
X98510000Y-61044000D03*
X95970000Y-61044000D03*
X106130000Y-58504000D03*
X103590000Y-58504000D03*
X101050000Y-58504000D03*
X98510000Y-58504000D03*
X95970000Y-58504000D03*
X106130000Y-61044000D03*
X106296000Y-73743000D03*
X104612000Y-74003000D03*
X105506000Y-72383000D03*
D12*
X106854500Y-66344500D03*
X110860000Y-71560000D03*
%TO.N,Net-(U1-BST)*%
X101400000Y-77445000D03*
D11*
X99513000Y-71970000D03*
%TO.N,GND*%
X103518000Y-70571000D03*
X101429000Y-70617000D03*
X101508000Y-69283000D03*
X103545000Y-69283000D03*
X102461000Y-69908000D03*
%TD*%
D13*
%TO.N,Net-(U1-BST)*%
X101393000Y-77438000D02*
X101393000Y-76929000D01*
X101393000Y-76929000D02*
X100517000Y-76053000D01*
X100517000Y-76053000D02*
X100517000Y-75548000D01*
X101400000Y-77445000D02*
X101393000Y-77438000D01*
X100517000Y-72974000D02*
X99513000Y-71970000D01*
X100517000Y-75548000D02*
X100517000Y-72974000D01*
%TD*%
%TA.AperFunction,Conductor*%
%TO.N,GND*%
G36*
X95919414Y-57298926D02*
G01*
X121056687Y-57370153D01*
X121068796Y-57370783D01*
X121245438Y-57388667D01*
X121269222Y-57393463D01*
X121433147Y-57443638D01*
X121455552Y-57452981D01*
X121606551Y-57534137D01*
X121626707Y-57547669D01*
X121758989Y-57656689D01*
X121776125Y-57673892D01*
X121884628Y-57806603D01*
X121898083Y-57826816D01*
X121978641Y-57978124D01*
X121987899Y-58000571D01*
X122037428Y-58164685D01*
X122042133Y-58188506D01*
X122059322Y-58365196D01*
X122059905Y-58377337D01*
X122043915Y-73049702D01*
X122024157Y-73116720D01*
X121971304Y-73162417D01*
X121920285Y-73173566D01*
X115639325Y-73192316D01*
X115639325Y-73192317D01*
X115649104Y-82951797D01*
X115629487Y-83018856D01*
X115576728Y-83064664D01*
X115525293Y-83075921D01*
X95493891Y-83106466D01*
X95426822Y-83086884D01*
X95380986Y-83034149D01*
X95369709Y-82983772D01*
X95268879Y-73392026D01*
X89366036Y-73400611D01*
X89298968Y-73381024D01*
X89253137Y-73328286D01*
X89241856Y-73276627D01*
X89241834Y-73082474D01*
X89241696Y-71891153D01*
X98712500Y-71891153D01*
X98712500Y-72048846D01*
X98743261Y-72203489D01*
X98743264Y-72203501D01*
X98803602Y-72349172D01*
X98803609Y-72349185D01*
X98891210Y-72480288D01*
X98891213Y-72480292D01*
X99002710Y-72591789D01*
X99042694Y-72618505D01*
X99133821Y-72679394D01*
X99157475Y-72689191D01*
X99197703Y-72716071D01*
X99730181Y-73248548D01*
X99763666Y-73309871D01*
X99766500Y-73336229D01*
X99766500Y-75474082D01*
X99766500Y-76126918D01*
X99766500Y-76126920D01*
X99766499Y-76126920D01*
X99795340Y-76271907D01*
X99795343Y-76271917D01*
X99851913Y-76408490D01*
X99851915Y-76408493D01*
X99851916Y-76408495D01*
X99860056Y-76420677D01*
X99860057Y-76420680D01*
X99860058Y-76420680D01*
X99929273Y-76524270D01*
X99934051Y-76531420D01*
X99934052Y-76531421D01*
X100495677Y-77093045D01*
X100529162Y-77154368D01*
X100529613Y-77204917D01*
X100499500Y-77356304D01*
X100499500Y-77533695D01*
X100534103Y-77707658D01*
X100534106Y-77707667D01*
X100601983Y-77871540D01*
X100601990Y-77871553D01*
X100700535Y-78019034D01*
X100700538Y-78019038D01*
X100825961Y-78144461D01*
X100825965Y-78144464D01*
X100973446Y-78243009D01*
X100973459Y-78243016D01*
X101096363Y-78293923D01*
X101137334Y-78310894D01*
X101137336Y-78310894D01*
X101137341Y-78310896D01*
X101311304Y-78345499D01*
X101311307Y-78345500D01*
X101311309Y-78345500D01*
X101488693Y-78345500D01*
X101488694Y-78345499D01*
X101546682Y-78333964D01*
X101662658Y-78310896D01*
X101662661Y-78310894D01*
X101662666Y-78310894D01*
X101826547Y-78243013D01*
X101974035Y-78144464D01*
X102099464Y-78019035D01*
X102198013Y-77871547D01*
X102265894Y-77707666D01*
X102300500Y-77533691D01*
X102300500Y-77356309D01*
X102300500Y-77356306D01*
X102300499Y-77356304D01*
X102265896Y-77182341D01*
X102265893Y-77182332D01*
X102198016Y-77018459D01*
X102198009Y-77018446D01*
X102164398Y-76968144D01*
X102143520Y-76901467D01*
X102143500Y-76899253D01*
X102143500Y-76855079D01*
X102114659Y-76710092D01*
X102114658Y-76710091D01*
X102114658Y-76710087D01*
X102058084Y-76573505D01*
X102025186Y-76524270D01*
X102025185Y-76524268D01*
X101975956Y-76450589D01*
X101975952Y-76450584D01*
X101303819Y-75778451D01*
X101270334Y-75717128D01*
X101267500Y-75690770D01*
X101267500Y-72900079D01*
X101238659Y-72755092D01*
X101238658Y-72755091D01*
X101238658Y-72755087D01*
X101207305Y-72679394D01*
X101182087Y-72618511D01*
X101182080Y-72618498D01*
X101099952Y-72495585D01*
X101084655Y-72480288D01*
X100995416Y-72391049D01*
X100259071Y-71654703D01*
X100232191Y-71614475D01*
X100222394Y-71590821D01*
X100222389Y-71590814D01*
X100134789Y-71459710D01*
X100023292Y-71348213D01*
X100023288Y-71348210D01*
X99892185Y-71260609D01*
X99892172Y-71260602D01*
X99746501Y-71200264D01*
X99746489Y-71200261D01*
X99591845Y-71169500D01*
X99591842Y-71169500D01*
X99434158Y-71169500D01*
X99434155Y-71169500D01*
X99279510Y-71200261D01*
X99279498Y-71200264D01*
X99133827Y-71260602D01*
X99133814Y-71260609D01*
X99002711Y-71348210D01*
X99002707Y-71348213D01*
X98891213Y-71459707D01*
X98891210Y-71459711D01*
X98803609Y-71590814D01*
X98803602Y-71590827D01*
X98743264Y-71736498D01*
X98743261Y-71736510D01*
X98712500Y-71891153D01*
X89241696Y-71891153D01*
X89240116Y-58289036D01*
X89240713Y-58276889D01*
X89258180Y-58099672D01*
X89262934Y-58075799D01*
X89312920Y-57911281D01*
X89322251Y-57888795D01*
X89403424Y-57737223D01*
X89416963Y-57717003D01*
X89526201Y-57584215D01*
X89543439Y-57567025D01*
X89676513Y-57458157D01*
X89696777Y-57444666D01*
X89848576Y-57363900D01*
X89871075Y-57354636D01*
X90035735Y-57305097D01*
X90059616Y-57300408D01*
X90236879Y-57283423D01*
X90249044Y-57282859D01*
X95919414Y-57298926D01*
G37*
%TD.AperFunction*%
%TD*%
M02*
