%TF.GenerationSoftware,KiCad,Pcbnew,9.0.7*%
%TF.CreationDate,2026-09-06T19:53:39+05:30*%
%TF.ProjectId,step_down_converter_BL8034,73746570-5f64-46f7-976e-5f636f6e7665,rev?*%
%TF.SameCoordinates,Original*%
%TF.FileFunction,Legend,Top*%
%TF.FilePolarity,Positive*%
%FSLAX46Y46*%
G04 Gerber Fmt 4.6, Leading zero omitted, Abs format (unit mm)*
G04 Created by KiCad (PCBNEW 9.0.7) date 2026-09-06 19:53:39*
%MOMM*%
%LPD*%
G01*
G04 APERTURE LIST*
%ADD10C,0.150000*%
%ADD11C,0.127000*%
%ADD12C,0.120000*%
%ADD13C,0.260000*%
G04 APERTURE END LIST*
D10*
X106663033Y-81465653D02*
X106185984Y-81465653D01*
X106185984Y-81465653D02*
X106185984Y-80463850D01*
X106949262Y-80559260D02*
X106996967Y-80511555D01*
X106996967Y-80511555D02*
X107092377Y-80463850D01*
X107092377Y-80463850D02*
X107330901Y-80463850D01*
X107330901Y-80463850D02*
X107426311Y-80511555D01*
X107426311Y-80511555D02*
X107474016Y-80559260D01*
X107474016Y-80559260D02*
X107521721Y-80654670D01*
X107521721Y-80654670D02*
X107521721Y-80750080D01*
X107521721Y-80750080D02*
X107474016Y-80893195D01*
X107474016Y-80893195D02*
X106901557Y-81465653D01*
X106901557Y-81465653D02*
X107521721Y-81465653D01*
X113549580Y-73656666D02*
X113597200Y-73704285D01*
X113597200Y-73704285D02*
X113644819Y-73847142D01*
X113644819Y-73847142D02*
X113644819Y-73942380D01*
X113644819Y-73942380D02*
X113597200Y-74085237D01*
X113597200Y-74085237D02*
X113501961Y-74180475D01*
X113501961Y-74180475D02*
X113406723Y-74228094D01*
X113406723Y-74228094D02*
X113216247Y-74275713D01*
X113216247Y-74275713D02*
X113073390Y-74275713D01*
X113073390Y-74275713D02*
X112882914Y-74228094D01*
X112882914Y-74228094D02*
X112787676Y-74180475D01*
X112787676Y-74180475D02*
X112692438Y-74085237D01*
X112692438Y-74085237D02*
X112644819Y-73942380D01*
X112644819Y-73942380D02*
X112644819Y-73847142D01*
X112644819Y-73847142D02*
X112692438Y-73704285D01*
X112692438Y-73704285D02*
X112740057Y-73656666D01*
X112644819Y-73323332D02*
X112644819Y-72704285D01*
X112644819Y-72704285D02*
X113025771Y-73037618D01*
X113025771Y-73037618D02*
X113025771Y-72894761D01*
X113025771Y-72894761D02*
X113073390Y-72799523D01*
X113073390Y-72799523D02*
X113121009Y-72751904D01*
X113121009Y-72751904D02*
X113216247Y-72704285D01*
X113216247Y-72704285D02*
X113454342Y-72704285D01*
X113454342Y-72704285D02*
X113549580Y-72751904D01*
X113549580Y-72751904D02*
X113597200Y-72799523D01*
X113597200Y-72799523D02*
X113644819Y-72894761D01*
X113644819Y-72894761D02*
X113644819Y-73180475D01*
X113644819Y-73180475D02*
X113597200Y-73275713D01*
X113597200Y-73275713D02*
X113549580Y-73323332D01*
X95999580Y-72416666D02*
X96047200Y-72464285D01*
X96047200Y-72464285D02*
X96094819Y-72607142D01*
X96094819Y-72607142D02*
X96094819Y-72702380D01*
X96094819Y-72702380D02*
X96047200Y-72845237D01*
X96047200Y-72845237D02*
X95951961Y-72940475D01*
X95951961Y-72940475D02*
X95856723Y-72988094D01*
X95856723Y-72988094D02*
X95666247Y-73035713D01*
X95666247Y-73035713D02*
X95523390Y-73035713D01*
X95523390Y-73035713D02*
X95332914Y-72988094D01*
X95332914Y-72988094D02*
X95237676Y-72940475D01*
X95237676Y-72940475D02*
X95142438Y-72845237D01*
X95142438Y-72845237D02*
X95094819Y-72702380D01*
X95094819Y-72702380D02*
X95094819Y-72607142D01*
X95094819Y-72607142D02*
X95142438Y-72464285D01*
X95142438Y-72464285D02*
X95190057Y-72416666D01*
X96094819Y-71464285D02*
X96094819Y-72035713D01*
X96094819Y-71749999D02*
X95094819Y-71749999D01*
X95094819Y-71749999D02*
X95237676Y-71845237D01*
X95237676Y-71845237D02*
X95332914Y-71940475D01*
X95332914Y-71940475D02*
X95380533Y-72035713D01*
X98492819Y-69276904D02*
X99302342Y-69276904D01*
X99302342Y-69276904D02*
X99397580Y-69229285D01*
X99397580Y-69229285D02*
X99445200Y-69181666D01*
X99445200Y-69181666D02*
X99492819Y-69086428D01*
X99492819Y-69086428D02*
X99492819Y-68895952D01*
X99492819Y-68895952D02*
X99445200Y-68800714D01*
X99445200Y-68800714D02*
X99397580Y-68753095D01*
X99397580Y-68753095D02*
X99302342Y-68705476D01*
X99302342Y-68705476D02*
X98492819Y-68705476D01*
X99492819Y-67705476D02*
X99492819Y-68276904D01*
X99492819Y-67991190D02*
X98492819Y-67991190D01*
X98492819Y-67991190D02*
X98635676Y-68086428D01*
X98635676Y-68086428D02*
X98730914Y-68181666D01*
X98730914Y-68181666D02*
X98778533Y-68276904D01*
X87719819Y-64613237D02*
X88719819Y-64279904D01*
X88719819Y-64279904D02*
X87719819Y-63946571D01*
X88815057Y-63851333D02*
X88815057Y-63089428D01*
X88719819Y-62851332D02*
X87719819Y-62851332D01*
X88719819Y-62375142D02*
X87719819Y-62375142D01*
X87719819Y-62375142D02*
X88719819Y-61803714D01*
X88719819Y-61803714D02*
X87719819Y-61803714D01*
X88338866Y-61327523D02*
X88338866Y-60565619D01*
X122461819Y-64797856D02*
X123461819Y-64464523D01*
X123461819Y-64464523D02*
X122461819Y-64131190D01*
X123557057Y-64035952D02*
X123557057Y-63274047D01*
X122461819Y-62845475D02*
X122461819Y-62654999D01*
X122461819Y-62654999D02*
X122509438Y-62559761D01*
X122509438Y-62559761D02*
X122604676Y-62464523D01*
X122604676Y-62464523D02*
X122795152Y-62416904D01*
X122795152Y-62416904D02*
X123128485Y-62416904D01*
X123128485Y-62416904D02*
X123318961Y-62464523D01*
X123318961Y-62464523D02*
X123414200Y-62559761D01*
X123414200Y-62559761D02*
X123461819Y-62654999D01*
X123461819Y-62654999D02*
X123461819Y-62845475D01*
X123461819Y-62845475D02*
X123414200Y-62940713D01*
X123414200Y-62940713D02*
X123318961Y-63035951D01*
X123318961Y-63035951D02*
X123128485Y-63083570D01*
X123128485Y-63083570D02*
X122795152Y-63083570D01*
X122795152Y-63083570D02*
X122604676Y-63035951D01*
X122604676Y-63035951D02*
X122509438Y-62940713D01*
X122509438Y-62940713D02*
X122461819Y-62845475D01*
X122461819Y-61988332D02*
X123271342Y-61988332D01*
X123271342Y-61988332D02*
X123366580Y-61940713D01*
X123366580Y-61940713D02*
X123414200Y-61893094D01*
X123414200Y-61893094D02*
X123461819Y-61797856D01*
X123461819Y-61797856D02*
X123461819Y-61607380D01*
X123461819Y-61607380D02*
X123414200Y-61512142D01*
X123414200Y-61512142D02*
X123366580Y-61464523D01*
X123366580Y-61464523D02*
X123271342Y-61416904D01*
X123271342Y-61416904D02*
X122461819Y-61416904D01*
X122461819Y-61083570D02*
X122461819Y-60512142D01*
X123461819Y-60797856D02*
X122461819Y-60797856D01*
X123080866Y-59416903D02*
X123080866Y-58654999D01*
X122601819Y-80863237D02*
X123601819Y-80529904D01*
X123601819Y-80529904D02*
X122601819Y-80196571D01*
X123697057Y-80101333D02*
X123697057Y-79339428D01*
X122601819Y-78910856D02*
X122601819Y-78815618D01*
X122601819Y-78815618D02*
X122649438Y-78720380D01*
X122649438Y-78720380D02*
X122697057Y-78672761D01*
X122697057Y-78672761D02*
X122792295Y-78625142D01*
X122792295Y-78625142D02*
X122982771Y-78577523D01*
X122982771Y-78577523D02*
X123220866Y-78577523D01*
X123220866Y-78577523D02*
X123411342Y-78625142D01*
X123411342Y-78625142D02*
X123506580Y-78672761D01*
X123506580Y-78672761D02*
X123554200Y-78720380D01*
X123554200Y-78720380D02*
X123601819Y-78815618D01*
X123601819Y-78815618D02*
X123601819Y-78910856D01*
X123601819Y-78910856D02*
X123554200Y-79006094D01*
X123554200Y-79006094D02*
X123506580Y-79053713D01*
X123506580Y-79053713D02*
X123411342Y-79101332D01*
X123411342Y-79101332D02*
X123220866Y-79148951D01*
X123220866Y-79148951D02*
X122982771Y-79148951D01*
X122982771Y-79148951D02*
X122792295Y-79101332D01*
X122792295Y-79101332D02*
X122697057Y-79053713D01*
X122697057Y-79053713D02*
X122649438Y-79006094D01*
X122649438Y-79006094D02*
X122601819Y-78910856D01*
X122601819Y-78148951D02*
X123411342Y-78148951D01*
X123411342Y-78148951D02*
X123506580Y-78101332D01*
X123506580Y-78101332D02*
X123554200Y-78053713D01*
X123554200Y-78053713D02*
X123601819Y-77958475D01*
X123601819Y-77958475D02*
X123601819Y-77767999D01*
X123601819Y-77767999D02*
X123554200Y-77672761D01*
X123554200Y-77672761D02*
X123506580Y-77625142D01*
X123506580Y-77625142D02*
X123411342Y-77577523D01*
X123411342Y-77577523D02*
X122601819Y-77577523D01*
X122601819Y-77244189D02*
X122601819Y-76672761D01*
X123601819Y-76958475D02*
X122601819Y-76958475D01*
X123220866Y-75577522D02*
X123220866Y-74815618D01*
X123601819Y-75196570D02*
X122839914Y-75196570D01*
X87826819Y-80174237D02*
X88826819Y-79840904D01*
X88826819Y-79840904D02*
X87826819Y-79507571D01*
X88922057Y-79412333D02*
X88922057Y-78650428D01*
X88826819Y-78412332D02*
X87826819Y-78412332D01*
X88826819Y-77936142D02*
X87826819Y-77936142D01*
X87826819Y-77936142D02*
X88826819Y-77364714D01*
X88826819Y-77364714D02*
X87826819Y-77364714D01*
X88445866Y-76888523D02*
X88445866Y-76126619D01*
X88826819Y-76507571D02*
X88064914Y-76507571D01*
X102594333Y-78067580D02*
X102546714Y-78115200D01*
X102546714Y-78115200D02*
X102403857Y-78162819D01*
X102403857Y-78162819D02*
X102308619Y-78162819D01*
X102308619Y-78162819D02*
X102165762Y-78115200D01*
X102165762Y-78115200D02*
X102070524Y-78019961D01*
X102070524Y-78019961D02*
X102022905Y-77924723D01*
X102022905Y-77924723D02*
X101975286Y-77734247D01*
X101975286Y-77734247D02*
X101975286Y-77591390D01*
X101975286Y-77591390D02*
X102022905Y-77400914D01*
X102022905Y-77400914D02*
X102070524Y-77305676D01*
X102070524Y-77305676D02*
X102165762Y-77210438D01*
X102165762Y-77210438D02*
X102308619Y-77162819D01*
X102308619Y-77162819D02*
X102403857Y-77162819D01*
X102403857Y-77162819D02*
X102546714Y-77210438D01*
X102546714Y-77210438D02*
X102594333Y-77258057D01*
X102975286Y-77258057D02*
X103022905Y-77210438D01*
X103022905Y-77210438D02*
X103118143Y-77162819D01*
X103118143Y-77162819D02*
X103356238Y-77162819D01*
X103356238Y-77162819D02*
X103451476Y-77210438D01*
X103451476Y-77210438D02*
X103499095Y-77258057D01*
X103499095Y-77258057D02*
X103546714Y-77353295D01*
X103546714Y-77353295D02*
X103546714Y-77448533D01*
X103546714Y-77448533D02*
X103499095Y-77591390D01*
X103499095Y-77591390D02*
X102927667Y-78162819D01*
X102927667Y-78162819D02*
X103546714Y-78162819D01*
X100623333Y-63520819D02*
X100290000Y-63044628D01*
X100051905Y-63520819D02*
X100051905Y-62520819D01*
X100051905Y-62520819D02*
X100432857Y-62520819D01*
X100432857Y-62520819D02*
X100528095Y-62568438D01*
X100528095Y-62568438D02*
X100575714Y-62616057D01*
X100575714Y-62616057D02*
X100623333Y-62711295D01*
X100623333Y-62711295D02*
X100623333Y-62854152D01*
X100623333Y-62854152D02*
X100575714Y-62949390D01*
X100575714Y-62949390D02*
X100528095Y-62997009D01*
X100528095Y-62997009D02*
X100432857Y-63044628D01*
X100432857Y-63044628D02*
X100051905Y-63044628D01*
X101480476Y-62854152D02*
X101480476Y-63520819D01*
X101242381Y-62473200D02*
X101004286Y-63187485D01*
X101004286Y-63187485D02*
X101623333Y-63187485D01*
X107823333Y-63702819D02*
X107490000Y-63226628D01*
X107251905Y-63702819D02*
X107251905Y-62702819D01*
X107251905Y-62702819D02*
X107632857Y-62702819D01*
X107632857Y-62702819D02*
X107728095Y-62750438D01*
X107728095Y-62750438D02*
X107775714Y-62798057D01*
X107775714Y-62798057D02*
X107823333Y-62893295D01*
X107823333Y-62893295D02*
X107823333Y-63036152D01*
X107823333Y-63036152D02*
X107775714Y-63131390D01*
X107775714Y-63131390D02*
X107728095Y-63179009D01*
X107728095Y-63179009D02*
X107632857Y-63226628D01*
X107632857Y-63226628D02*
X107251905Y-63226628D01*
X108156667Y-62702819D02*
X108775714Y-62702819D01*
X108775714Y-62702819D02*
X108442381Y-63083771D01*
X108442381Y-63083771D02*
X108585238Y-63083771D01*
X108585238Y-63083771D02*
X108680476Y-63131390D01*
X108680476Y-63131390D02*
X108728095Y-63179009D01*
X108728095Y-63179009D02*
X108775714Y-63274247D01*
X108775714Y-63274247D02*
X108775714Y-63512342D01*
X108775714Y-63512342D02*
X108728095Y-63607580D01*
X108728095Y-63607580D02*
X108680476Y-63655200D01*
X108680476Y-63655200D02*
X108585238Y-63702819D01*
X108585238Y-63702819D02*
X108299524Y-63702819D01*
X108299524Y-63702819D02*
X108204286Y-63655200D01*
X108204286Y-63655200D02*
X108156667Y-63607580D01*
X107817833Y-65248819D02*
X107484500Y-64772628D01*
X107246405Y-65248819D02*
X107246405Y-64248819D01*
X107246405Y-64248819D02*
X107627357Y-64248819D01*
X107627357Y-64248819D02*
X107722595Y-64296438D01*
X107722595Y-64296438D02*
X107770214Y-64344057D01*
X107770214Y-64344057D02*
X107817833Y-64439295D01*
X107817833Y-64439295D02*
X107817833Y-64582152D01*
X107817833Y-64582152D02*
X107770214Y-64677390D01*
X107770214Y-64677390D02*
X107722595Y-64725009D01*
X107722595Y-64725009D02*
X107627357Y-64772628D01*
X107627357Y-64772628D02*
X107246405Y-64772628D01*
X108198786Y-64344057D02*
X108246405Y-64296438D01*
X108246405Y-64296438D02*
X108341643Y-64248819D01*
X108341643Y-64248819D02*
X108579738Y-64248819D01*
X108579738Y-64248819D02*
X108674976Y-64296438D01*
X108674976Y-64296438D02*
X108722595Y-64344057D01*
X108722595Y-64344057D02*
X108770214Y-64439295D01*
X108770214Y-64439295D02*
X108770214Y-64534533D01*
X108770214Y-64534533D02*
X108722595Y-64677390D01*
X108722595Y-64677390D02*
X108151167Y-65248819D01*
X108151167Y-65248819D02*
X108770214Y-65248819D01*
D11*
%TO.C,L2*%
X104340000Y-75120000D02*
X109240000Y-75120000D01*
X109240000Y-80020000D02*
X104340000Y-80020000D01*
D12*
%TO.C,C3*%
X109950000Y-75281252D02*
X109950000Y-73858748D01*
X111770000Y-75281252D02*
X111770000Y-73858748D01*
%TO.C,C1*%
X96580000Y-72961252D02*
X96580000Y-71538748D01*
X98400000Y-72961252D02*
X98400000Y-71538748D01*
%TO.C,U1*%
D13*
X100183000Y-73499000D02*
G75*
G02*
X99923000Y-73499000I-130000J0D01*
G01*
X99923000Y-73499000D02*
G75*
G02*
X100183000Y-73499000I130000J0D01*
G01*
D12*
%TO.C,C2*%
X102153733Y-75680000D02*
X102446267Y-75680000D01*
X102153733Y-76700000D02*
X102446267Y-76700000D01*
%TO.C,R4*%
X100535276Y-65018500D02*
X101044724Y-65018500D01*
X100535276Y-63973500D02*
X101044724Y-63973500D01*
%TO.C,R3*%
X105594224Y-62670500D02*
X105084776Y-62670500D01*
X105594224Y-63715500D02*
X105084776Y-63715500D01*
%TO.C,R2*%
X105065276Y-65344500D02*
X105574724Y-65344500D01*
X105065276Y-64299500D02*
X105574724Y-64299500D01*
%TD*%
M02*
