%TF.GenerationSoftware,KiCad,Pcbnew,9.0.7*%
%TF.CreationDate,2026-09-06T19:53:47+05:30*%
%TF.ProjectId,step_down_converter_BL8034,73746570-5f64-46f7-976e-5f636f6e7665,rev?*%
%TF.SameCoordinates,Original*%
%TF.FileFunction,Drillmap*%
%TF.FilePolarity,Positive*%
%FSLAX45Y45*%
G04 Gerber Fmt 4.5, Leading zero omitted, Abs format (unit mm)*
G04 Created by KiCad (PCBNEW 9.0.7) date 2026-09-06 19:53:47*
%MOMM*%
%LPD*%
G01*
G04 APERTURE LIST*
%ADD10C,0.050000*%
%ADD11C,0.200000*%
G04 APERTURE END LIST*
D10*
X12048200Y-5545700D02*
G75*
G02*
X12448200Y-5945700I0J-400000D01*
G01*
X8648200Y-5945700D02*
G75*
G02*
X9048200Y-5545700I400000J0D01*
G01*
X12448200Y-8045700D02*
G75*
G02*
X12048200Y-8445700I-400000J0D01*
G01*
X9048200Y-8445700D02*
G75*
G02*
X8648200Y-8045700I0J400000D01*
G01*
X9048200Y-5545700D02*
X12048200Y-5545700D01*
X12448200Y-5945700D02*
X12448200Y-8045700D01*
X8648200Y-8045700D02*
X8648200Y-5945700D01*
X12048200Y-8445700D02*
X9048200Y-8445700D01*
D11*
X8906477Y-8759684D02*
X8906477Y-8559684D01*
X8906477Y-8559684D02*
X8954096Y-8559684D01*
X8954096Y-8559684D02*
X8982667Y-8569208D01*
X8982667Y-8569208D02*
X9001715Y-8588255D01*
X9001715Y-8588255D02*
X9011239Y-8607303D01*
X9011239Y-8607303D02*
X9020763Y-8645398D01*
X9020763Y-8645398D02*
X9020763Y-8673970D01*
X9020763Y-8673970D02*
X9011239Y-8712065D01*
X9011239Y-8712065D02*
X9001715Y-8731112D01*
X9001715Y-8731112D02*
X8982667Y-8750160D01*
X8982667Y-8750160D02*
X8954096Y-8759684D01*
X8954096Y-8759684D02*
X8906477Y-8759684D01*
X9106477Y-8759684D02*
X9106477Y-8626350D01*
X9106477Y-8664446D02*
X9116001Y-8645398D01*
X9116001Y-8645398D02*
X9125524Y-8635874D01*
X9125524Y-8635874D02*
X9144572Y-8626350D01*
X9144572Y-8626350D02*
X9163620Y-8626350D01*
X9230286Y-8759684D02*
X9230286Y-8626350D01*
X9230286Y-8559684D02*
X9220763Y-8569208D01*
X9220763Y-8569208D02*
X9230286Y-8578731D01*
X9230286Y-8578731D02*
X9239810Y-8569208D01*
X9239810Y-8569208D02*
X9230286Y-8559684D01*
X9230286Y-8559684D02*
X9230286Y-8578731D01*
X9354096Y-8759684D02*
X9335048Y-8750160D01*
X9335048Y-8750160D02*
X9325524Y-8731112D01*
X9325524Y-8731112D02*
X9325524Y-8559684D01*
X9458858Y-8759684D02*
X9439810Y-8750160D01*
X9439810Y-8750160D02*
X9430286Y-8731112D01*
X9430286Y-8731112D02*
X9430286Y-8559684D01*
X9687429Y-8759684D02*
X9687429Y-8559684D01*
X9687429Y-8559684D02*
X9754096Y-8702541D01*
X9754096Y-8702541D02*
X9820763Y-8559684D01*
X9820763Y-8559684D02*
X9820763Y-8759684D01*
X10001715Y-8759684D02*
X10001715Y-8654922D01*
X10001715Y-8654922D02*
X9992191Y-8635874D01*
X9992191Y-8635874D02*
X9973144Y-8626350D01*
X9973144Y-8626350D02*
X9935048Y-8626350D01*
X9935048Y-8626350D02*
X9916001Y-8635874D01*
X10001715Y-8750160D02*
X9982667Y-8759684D01*
X9982667Y-8759684D02*
X9935048Y-8759684D01*
X9935048Y-8759684D02*
X9916001Y-8750160D01*
X9916001Y-8750160D02*
X9906477Y-8731112D01*
X9906477Y-8731112D02*
X9906477Y-8712065D01*
X9906477Y-8712065D02*
X9916001Y-8693017D01*
X9916001Y-8693017D02*
X9935048Y-8683493D01*
X9935048Y-8683493D02*
X9982667Y-8683493D01*
X9982667Y-8683493D02*
X10001715Y-8673970D01*
X10096953Y-8626350D02*
X10096953Y-8826350D01*
X10096953Y-8635874D02*
X10116001Y-8626350D01*
X10116001Y-8626350D02*
X10154096Y-8626350D01*
X10154096Y-8626350D02*
X10173144Y-8635874D01*
X10173144Y-8635874D02*
X10182667Y-8645398D01*
X10182667Y-8645398D02*
X10192191Y-8664446D01*
X10192191Y-8664446D02*
X10192191Y-8721589D01*
X10192191Y-8721589D02*
X10182667Y-8740636D01*
X10182667Y-8740636D02*
X10173144Y-8750160D01*
X10173144Y-8750160D02*
X10154096Y-8759684D01*
X10154096Y-8759684D02*
X10116001Y-8759684D01*
X10116001Y-8759684D02*
X10096953Y-8750160D01*
X10277905Y-8740636D02*
X10287429Y-8750160D01*
X10287429Y-8750160D02*
X10277905Y-8759684D01*
X10277905Y-8759684D02*
X10268382Y-8750160D01*
X10268382Y-8750160D02*
X10277905Y-8740636D01*
X10277905Y-8740636D02*
X10277905Y-8759684D01*
X10277905Y-8635874D02*
X10287429Y-8645398D01*
X10287429Y-8645398D02*
X10277905Y-8654922D01*
X10277905Y-8654922D02*
X10268382Y-8645398D01*
X10268382Y-8645398D02*
X10277905Y-8635874D01*
X10277905Y-8635874D02*
X10277905Y-8654922D01*
M02*
